<svg width="1592" height="1303" viewBox="0 0 1592 1303" fill="none" xmlns="http://www.w3.org/2000/svg">
<path d="M1305.83 1349.25L1413.9 1353.1L1445.67 1280.57L1305.83 1349.25Z" fill="url(#paint0_linear_0_6473)"/>
<path d="M818.74 961.412L914.137 1406.54L699.195 1364.58L818.74 961.412Z" fill="url(#paint1_linear_0_6473)"/>
<path d="M699.195 1364.58L818.74 961.412L413.092 1093.72L699.195 1364.58Z" fill="url(#paint2_linear_0_6473)"/>
<path d="M-51.1309 1353.1L59.5083 1110.25L395.279 1217.03L-51.1309 1353.1Z" fill="url(#paint3_linear_0_6473)"/>
<path d="M-51.1309 1353.1L383.804 1456.12L395.279 1217.03L-51.1309 1353.1Z" fill="url(#paint4_linear_0_6473)"/>
<path d="M383.805 1456.12L500.781 1430.69L395.28 1217.03L383.805 1456.12Z" fill="url(#paint5_linear_0_6473)"/>
<path d="M395.279 1217.03L413.091 1093.72L647.043 1379.82L395.279 1217.03Z" fill="url(#paint6_linear_0_6473)"/>
<path d="M395.279 1217.03L500.78 1430.69L647.043 1379.82L395.279 1217.03Z" fill="url(#paint7_linear_0_6473)"/>
<path d="M413.092 1093.72L699.195 1364.58L647.044 1379.82L413.092 1093.72Z" fill="url(#paint8_linear_0_6473)"/>
<path d="M818.74 961.412L914.137 1406.54L1336.31 1050.47L818.74 961.412Z" fill="url(#paint9_linear_0_6473)"/>
<path d="M914.137 1406.54L1305.83 1349.25L1336.31 1050.47L914.137 1406.54Z" fill="url(#paint10_linear_0_6473)"/>
<path d="M1305.83 1349.25L1445.67 1280.57L1336.31 1050.47L1305.83 1349.25Z" fill="url(#paint11_linear_0_6473)"/>
<path d="M-335.949 927.075L59.5088 1110.25L-171.874 813.867L-335.949 927.075Z" fill="url(#paint12_linear_0_6473)"/>
<path d="M-171.875 813.865L-16.7918 690.552L158.758 971.603L-171.875 813.865Z" fill="url(#paint13_linear_0_6473)"/>
<path d="M-171.875 813.867L59.5082 1110.25L158.758 971.605L-171.875 813.867Z" fill="url(#paint14_linear_0_6473)"/>
<path d="M59.5088 1110.25L395.28 1217.03L158.759 971.604L59.5088 1110.25Z" fill="url(#paint15_linear_0_6473)"/>
<path d="M395.28 1217.03L413.092 1093.72L158.759 971.604L395.28 1217.03Z" fill="url(#paint16_linear_0_6473)"/>
<path d="M158.759 971.603L413.092 1093.72L531.352 899.071L158.759 971.603Z" fill="url(#paint17_linear_0_6473)"/>
<path d="M413.092 1093.72L818.74 961.412L531.352 899.071L413.092 1093.72Z" fill="url(#paint18_linear_0_6473)"/>
<path d="M-335.949 927.075L59.5088 1110.25L-281.315 1245.03L-335.949 927.075Z" fill="url(#paint19_linear_0_6473)"/>
<path d="M-51.1301 1353.1L59.509 1110.25L-281.314 1245.03L-51.1301 1353.1Z" fill="url(#paint20_linear_0_6473)"/>
<path d="M1413.9 1353.1L1445.67 1280.57L1591.93 1823.66L1413.9 1353.1Z" fill="url(#paint21_linear_0_6473)"/>
<g style="mix-blend-mode:overlay">
<path d="M1305.83 1349.25L1413.9 1353.1L1445.67 1280.57L1305.83 1349.25Z" fill="#5FE0ED"/>
<path d="M818.74 961.412L914.137 1406.54L699.195 1364.58L818.74 961.412Z" fill="#5FE0ED"/>
<path d="M699.195 1364.58L818.74 961.412L413.092 1093.72L699.195 1364.58Z" fill="#5FE0ED"/>
<path d="M-51.1309 1353.1L59.5083 1110.25L395.279 1217.03L-51.1309 1353.1Z" fill="#5FE0ED"/>
<path d="M-51.1309 1353.1L383.804 1456.12L395.279 1217.03L-51.1309 1353.1Z" fill="#5FE0ED"/>
<path d="M383.805 1456.12L500.781 1430.69L395.28 1217.03L383.805 1456.12Z" fill="#5FE0ED"/>
<path d="M395.279 1217.03L413.091 1093.72L647.043 1379.82L395.279 1217.03Z" fill="#5FE0ED"/>
<path d="M395.279 1217.03L500.78 1430.69L647.043 1379.82L395.279 1217.03Z" fill="#5FE0ED"/>
<path d="M413.092 1093.72L699.195 1364.58L647.044 1379.82L413.092 1093.72Z" fill="#5FE0ED"/>
<path d="M818.74 961.412L914.137 1406.54L1336.31 1050.47L818.74 961.412Z" fill="#5FE0ED"/>
<path d="M914.137 1406.54L1305.83 1349.25L1336.31 1050.47L914.137 1406.54Z" fill="#5FE0ED"/>
<path d="M1305.83 1349.25L1445.67 1280.57L1336.31 1050.47L1305.83 1349.25Z" fill="#5FE0ED"/>
<path d="M-335.949 927.075L59.5088 1110.25L-171.874 813.867L-335.949 927.075Z" fill="#5FE0ED"/>
<path d="M-171.875 813.865L-16.7918 690.552L158.758 971.603L-171.875 813.865Z" fill="#5FE0ED"/>
<path d="M-171.875 813.867L59.5082 1110.25L158.758 971.605L-171.875 813.867Z" fill="#5FE0ED"/>
<path d="M59.5088 1110.25L395.28 1217.03L158.759 971.604L59.5088 1110.25Z" fill="#5FE0ED"/>
<path d="M395.28 1217.03L413.092 1093.72L158.759 971.604L395.28 1217.03Z" fill="#5FE0ED"/>
<path d="M158.759 971.603L413.092 1093.72L531.352 899.071L158.759 971.603Z" fill="#5FE0ED"/>
<path d="M413.092 1093.72L818.74 961.412L531.352 899.071L413.092 1093.72Z" fill="#5FE0ED"/>
<path d="M-335.949 927.075L59.5088 1110.25L-281.315 1245.03L-335.949 927.075Z" fill="#5FE0ED"/>
<path d="M-51.1301 1353.1L59.509 1110.25L-281.314 1245.03L-51.1301 1353.1Z" fill="#5FE0ED"/>
<path d="M1413.9 1353.1L1445.67 1280.57L1591.93 1823.66L1413.9 1353.1Z" fill="#5FE0ED"/>
</g>
<defs>
<linearGradient id="paint0_linear_0_6473" x1="1306" y1="1277.83" x2="1365.82" y2="1393.27" gradientUnits="userSpaceOnUse">
<stop stop-color="#9B9B9B"/>
<stop offset="1" stop-color="#777777"/>
</linearGradient>
<linearGradient id="paint1_linear_0_6473" x1="675.475" y1="1012.54" x2="1013.09" y2="1164.69" gradientUnits="userSpaceOnUse">
<stop stop-color="#DBDBDB"/>
<stop offset="1" stop-color="#A6A6A6"/>
</linearGradient>
<linearGradient id="paint2_linear_0_6473" x1="480.914" y1="901.897" x2="888.096" y2="1311.65" gradientUnits="userSpaceOnUse">
<stop stop-color="#CCCCCC"/>
<stop offset="1" stop-color="#FAFAFA"/>
</linearGradient>
<linearGradient id="paint3_linear_0_6473" x1="-89.0667" y1="1137.05" x2="96.2746" y2="1501.98" gradientUnits="userSpaceOnUse">
<stop stop-color="#E8E8E8"/>
<stop offset="1" stop-color="#E8E8E8"/>
</linearGradient>
<linearGradient id="paint4_linear_0_6473" x1="1.10589" y1="1190.57" x2="202.125" y2="1565.88" gradientUnits="userSpaceOnUse">
<stop stop-color="#E0E0E0"/>
<stop offset="1" stop-color="#D3D3D3"/>
</linearGradient>
<linearGradient id="paint5_linear_0_6473" x1="358.2" y1="1271.07" x2="548.886" y2="1364.38" gradientUnits="userSpaceOnUse">
<stop stop-color="#C9C9C9"/>
<stop offset="1" stop-color="#DDDDDD"/>
</linearGradient>
<linearGradient id="paint6_linear_0_6473" x1="366.849" y1="1112.39" x2="653.518" y2="1364.66" gradientUnits="userSpaceOnUse">
<stop stop-color="white"/>
<stop offset="1" stop-color="#E5E5E5"/>
</linearGradient>
<linearGradient id="paint7_linear_0_6473" x1="366.849" y1="1241.44" x2="582.182" y2="1478.3" gradientUnits="userSpaceOnUse">
<stop stop-color="#E0E0E0"/>
<stop offset="1" stop-color="#C0C0C0"/>
</linearGradient>
<linearGradient id="paint8_linear_0_6473" x1="394.852" y1="1112.39" x2="683.867" y2="1382.13" gradientUnits="userSpaceOnUse">
<stop stop-color="#E5E5E5"/>
<stop offset="1" stop-color="#BBBBBB"/>
</linearGradient>
<linearGradient id="paint9_linear_0_6473" x1="813.517" y1="952.592" x2="1258.03" y2="1469.49" gradientUnits="userSpaceOnUse">
<stop stop-color="#F4F4F4"/>
<stop offset="1" stop-color="#D6D6D6"/>
</linearGradient>
<linearGradient id="paint10_linear_0_6473" x1="905.745" y1="1056.47" x2="1260.25" y2="1476.81" gradientUnits="userSpaceOnUse">
<stop stop-color="#A6A6A6"/>
<stop offset="1" stop-color="#CCCCCC"/>
</linearGradient>
<linearGradient id="paint11_linear_0_6473" x1="1277.74" y1="1101.85" x2="1509.54" y2="1210.36" gradientUnits="userSpaceOnUse">
<stop stop-color="#B4B4B4"/>
<stop offset="1" stop-color="#C0C0C0"/>
</linearGradient>
<linearGradient id="paint12_linear_0_6473" x1="-327.814" y1="814.638" x2="-40.5812" y2="1198.03" gradientUnits="userSpaceOnUse">
<stop stop-color="#EDEDED"/>
<stop offset="1" stop-color="#EAEAEA"/>
</linearGradient>
<linearGradient id="paint13_linear_0_6473" x1="-172.132" y1="695.776" x2="111.181" y2="1006.86" gradientUnits="userSpaceOnUse">
<stop stop-color="#D6D6D6"/>
<stop offset="1" stop-color="#C7C7C7"/>
</linearGradient>
<linearGradient id="paint14_linear_0_6473" x1="-149.867" y1="794.685" x2="125.727" y2="1124.18" gradientUnits="userSpaceOnUse">
<stop stop-color="#EAEAEA"/>
<stop offset="1" stop-color="#EDEDED"/>
</linearGradient>
<linearGradient id="paint15_linear_0_6473" x1="46.1499" y1="990.872" x2="262.113" y2="1307.38" gradientUnits="userSpaceOnUse">
<stop stop-color="#F2F2F2"/>
<stop offset="1" stop-color="white"/>
</linearGradient>
<linearGradient id="paint16_linear_0_6473" x1="184.449" y1="941.29" x2="432.202" y2="1198.03" gradientUnits="userSpaceOnUse">
<stop stop-color="#F4F4F4"/>
<stop offset="1" stop-color="#FAFAFA"/>
</linearGradient>
<linearGradient id="paint17_linear_0_6473" x1="226.667" y1="864.646" x2="371.488" y2="1161.79" gradientUnits="userSpaceOnUse">
<stop stop-color="#EFEFEF"/>
<stop offset="1" stop-color="#E2E2E2"/>
</linearGradient>
<linearGradient id="paint18_linear_0_6473" x1="371.645" y1="917.054" x2="524.909" y2="1236.6" gradientUnits="userSpaceOnUse">
<stop stop-color="#EDEDED"/>
<stop offset="1" stop-color="#EFEFEF"/>
</linearGradient>
<linearGradient id="paint19_linear_0_6473" x1="-381.078" y1="955.42" x2="-67.4556" y2="1345.57" gradientUnits="userSpaceOnUse">
<stop stop-color="white"/>
<stop offset="1" stop-color="white"/>
</linearGradient>
<linearGradient id="paint20_linear_0_6473" x1="-253.141" y1="1087.98" x2="-21.2302" y2="1413.38" gradientUnits="userSpaceOnUse">
<stop stop-color="#F7F7F7"/>
<stop offset="1" stop-color="#F2F2F2"/>
</linearGradient>
<linearGradient id="paint21_linear_0_6473" x1="1411.16" y1="1290.16" x2="1718.83" y2="1384.31" gradientUnits="userSpaceOnUse">
<stop stop-color="#9F9F9F"/>
<stop offset="1" stop-color="#929292"/>
</linearGradient>
</defs>
</svg>
