<svg width="742" height="1615" viewBox="0 0 742 1615" fill="none" xmlns="http://www.w3.org/2000/svg">
<path d="M665.866 656.016L915.948 685.772L863.573 763.17L665.866 656.016Z" fill="url(#paint0_linear_0_6805)"/>
<path d="M235.884 -65.8377L530.078 -55.0902L401.428 137.885L235.884 -65.8377Z" fill="url(#paint1_linear_0_6805)"/>
<path d="M530.079 -55.0902L602.745 62.8122L401.429 137.885L530.079 -55.0902Z" fill="url(#paint2_linear_0_6805)"/>
<path d="M401.429 137.885L602.745 62.8126L483.64 227.154L401.429 137.885Z" fill="url(#paint3_linear_0_6805)"/>
<path d="M483.639 227.153L583.655 353.397L692.093 199.803L483.639 227.153Z" fill="url(#paint4_linear_0_6805)"/>
<path d="M483.639 227.154L602.744 62.8126L692.093 199.804L483.639 227.154Z" fill="url(#paint5_linear_0_6805)"/>
<path d="M583.655 353.398L749.2 370.081L692.093 199.804L583.655 353.398Z" fill="url(#paint6_linear_0_6805)"/>
<path d="M602.744 62.8141L693.216 0.895302L692.093 199.805L602.744 62.8141Z" fill="url(#paint7_linear_0_6805)"/>
<path d="M693.217 0.895187L929.102 -76.5835L692.094 199.805L693.217 0.895187Z" fill="url(#paint8_linear_0_6805)"/>
<path d="M749.2 370.081L798.045 284.341L692.094 199.804L749.2 370.081Z" fill="url(#paint9_linear_0_6805)"/>
<path d="M798.045 284.342L929.102 -76.5834L692.094 199.805L798.045 284.342Z" fill="url(#paint10_linear_0_6805)"/>
<path d="M164.421 -30.0653L235.884 -65.8371L187.039 58.0005L164.421 -30.0653Z" fill="url(#paint11_linear_0_6805)"/>
<path d="M235.883 -65.8377L401.428 137.885L187.038 57.9999L235.883 -65.8377Z" fill="url(#paint12_linear_0_6805)"/>
<path d="M583.655 353.399L749.2 370.081L694.419 473.707L583.655 353.399Z" fill="url(#paint13_linear_0_6805)"/>
<path d="M665.866 656.014L915.948 685.771L694.419 473.707L665.866 656.014Z" fill="url(#paint14_linear_0_6805)"/>
<path d="M749.2 370.082L986.288 568.992L694.42 473.707L749.2 370.082Z" fill="url(#paint15_linear_0_6805)"/>
<path d="M915.948 685.771L986.288 568.991L694.42 473.707L915.948 685.771Z" fill="url(#paint16_linear_0_6805)"/>
<path d="M164.421 -30.0653L187.039 58.0005L-0.000989576 -90.8612L164.421 -30.0653Z" fill="url(#paint17_linear_0_6805)"/>
<path d="M530.078 -55.0874L602.744 62.8151L575.314 -97.9974L530.078 -55.0874Z" fill="url(#paint18_linear_0_6805)"/>
<path d="M602.744 62.8151L693.216 0.896253L575.313 -97.9974L602.744 62.8151Z" fill="url(#paint19_linear_0_6805)"/>
<path d="M693.216 0.894521L929.101 -76.5842L575.313 -97.9991L693.216 0.894521Z" fill="url(#paint20_linear_0_6805)"/>
<g style="mix-blend-mode:exclusion" opacity="0.1">
<path d="M665.867 656.016L915.948 685.772L863.574 763.17L665.867 656.016Z" fill="url(#paint21_linear_0_6805)"/>
<path d="M235.885 -65.8377L530.079 -55.0902L401.429 137.885L235.885 -65.8377Z" fill="url(#paint22_linear_0_6805)"/>
<path d="M530.08 -55.0902L602.746 62.8122L401.43 137.885L530.08 -55.0902Z" fill="url(#paint23_linear_0_6805)"/>
<path d="M401.43 137.885L602.746 62.8126L483.641 227.154L401.43 137.885Z" fill="url(#paint24_linear_0_6805)"/>
<path d="M483.64 227.153L583.656 353.397L692.094 199.803L483.64 227.153Z" fill="url(#paint25_linear_0_6805)"/>
<path d="M483.64 227.154L602.745 62.8126L692.094 199.804L483.64 227.154Z" fill="url(#paint26_linear_0_6805)"/>
<path d="M583.656 353.398L749.201 370.081L692.094 199.804L583.656 353.398Z" fill="url(#paint27_linear_0_6805)"/>
<path d="M602.745 62.8141L693.217 0.895302L692.094 199.805L602.745 62.8141Z" fill="url(#paint28_linear_0_6805)"/>
<path d="M693.218 0.895309L929.103 -76.5834L692.095 199.805L693.218 0.895309Z" fill="url(#paint29_linear_0_6805)"/>
<path d="M749.201 370.081L798.046 284.341L692.095 199.804L749.201 370.081Z" fill="url(#paint30_linear_0_6805)"/>
<path d="M798.046 284.342L929.103 -76.5833L692.095 199.805L798.046 284.342Z" fill="url(#paint31_linear_0_6805)"/>
<path d="M164.422 -30.0653L235.885 -65.8371L187.04 58.0005L164.422 -30.0653Z" fill="url(#paint32_linear_0_6805)"/>
<path d="M235.884 -65.8377L401.429 137.885L187.039 57.9999L235.884 -65.8377Z" fill="url(#paint33_linear_0_6805)"/>
<path d="M583.656 353.399L749.201 370.081L694.42 473.707L583.656 353.399Z" fill="url(#paint34_linear_0_6805)"/>
<path d="M665.867 656.014L915.949 685.771L694.42 473.707L665.867 656.014Z" fill="url(#paint35_linear_0_6805)"/>
<path d="M749.201 370.082L986.289 568.992L694.421 473.708L749.201 370.082Z" fill="url(#paint36_linear_0_6805)"/>
<path d="M915.949 685.771L986.289 568.991L694.421 473.707L915.949 685.771Z" fill="url(#paint37_linear_0_6805)"/>
<path d="M164.422 -30.0653L187.04 58.0005L-1.30139e-05 -90.8612L164.422 -30.0653Z" fill="url(#paint38_linear_0_6805)"/>
<path d="M530.079 -55.0874L602.745 62.8151L575.315 -97.9974L530.079 -55.0874Z" fill="url(#paint39_linear_0_6805)"/>
<path d="M602.745 62.8151L693.217 0.896253L575.314 -97.9974L602.745 62.8151Z" fill="url(#paint40_linear_0_6805)"/>
<path d="M693.217 0.894521L929.102 -76.5842L575.314 -97.9991L693.217 0.894521Z" fill="url(#paint41_linear_0_6805)"/>
</g>
<g style="mix-blend-mode:overlay">
<path d="M665.867 656.016L915.948 685.772L863.574 763.17L665.867 656.016Z" fill="#E04B9D"/>
<path d="M235.885 -65.8377L530.079 -55.0902L401.429 137.885L235.885 -65.8377Z" fill="#E04B9D"/>
<path d="M530.08 -55.0902L602.746 62.8122L401.43 137.885L530.08 -55.0902Z" fill="#E04B9D"/>
<path d="M401.43 137.885L602.746 62.8126L483.641 227.154L401.43 137.885Z" fill="#E04B9D"/>
<path d="M483.64 227.153L583.656 353.397L692.094 199.803L483.64 227.153Z" fill="#E04B9D"/>
<path d="M483.64 227.154L602.745 62.8126L692.094 199.804L483.64 227.154Z" fill="#E04B9D"/>
<path d="M583.656 353.398L749.201 370.081L692.094 199.804L583.656 353.398Z" fill="#E04B9D"/>
<path d="M602.745 62.8141L693.217 0.895302L692.094 199.805L602.745 62.8141Z" fill="#E04B9D"/>
<path d="M693.218 0.895309L929.103 -76.5834L692.095 199.805L693.218 0.895309Z" fill="#E04B9D"/>
<path d="M749.201 370.081L798.046 284.341L692.095 199.804L749.201 370.081Z" fill="#E04B9D"/>
<path d="M798.046 284.342L929.103 -76.5833L692.095 199.805L798.046 284.342Z" fill="#E04B9D"/>
<path d="M164.422 -30.0653L235.885 -65.8371L187.04 58.0005L164.422 -30.0653Z" fill="#E04B9D"/>
<path d="M235.884 -65.8377L401.429 137.885L187.039 57.9999L235.884 -65.8377Z" fill="#E04B9D"/>
<path d="M583.656 353.399L749.201 370.081L694.42 473.707L583.656 353.399Z" fill="#E04B9D"/>
<path d="M665.867 656.014L915.949 685.771L694.42 473.707L665.867 656.014Z" fill="#E04B9D"/>
<path d="M749.201 370.082L986.289 568.992L694.421 473.708L749.201 370.082Z" fill="#E04B9D"/>
<path d="M915.949 685.771L986.289 568.991L694.421 473.707L915.949 685.771Z" fill="#E04B9D"/>
<path d="M164.422 -30.0653L187.04 58.0005L-1.30139e-05 -90.8612L164.422 -30.0653Z" fill="#E04B9D"/>
<path d="M530.079 -55.0874L602.745 62.8151L575.315 -97.9974L530.079 -55.0874Z" fill="#E04B9D"/>
<path d="M602.745 62.8151L693.217 0.896253L575.314 -97.9974L602.745 62.8151Z" fill="#E04B9D"/>
<path d="M693.217 0.894521L929.102 -76.5842L575.314 -97.9991L693.217 0.894521Z" fill="#E04B9D"/>
</g>
<defs>
<linearGradient id="paint0_linear_0_6805" x1="655.76" y1="754.669" x2="738.079" y2="575.397" gradientUnits="userSpaceOnUse">
<stop stop-color="#E2E2E2"/>
<stop offset="1" stop-color="#FAFAFA"/>
</linearGradient>
<linearGradient id="paint1_linear_0_6805" x1="200.272" y1="113.422" x2="392.834" y2="-164.722" gradientUnits="userSpaceOnUse">
<stop stop-color="white"/>
<stop offset="1" stop-color="white"/>
</linearGradient>
<linearGradient id="paint2_linear_0_6805" x1="415.705" y1="147.83" x2="610.431" y2="-55.3093" gradientUnits="userSpaceOnUse">
<stop stop-color="white"/>
<stop offset="1" stop-color="#D8D8D8"/>
</linearGradient>
<linearGradient id="paint3_linear_0_6805" x1="388.596" y1="218.893" x2="551.27" y2="19.6758" gradientUnits="userSpaceOnUse">
<stop stop-color="white"/>
<stop offset="1" stop-color="#DBDBDB"/>
</linearGradient>
<linearGradient id="paint4_linear_0_6805" x1="469.362" y1="336.875" x2="617.612" y2="135.76" gradientUnits="userSpaceOnUse">
<stop stop-color="#EFEFEF"/>
<stop offset="1" stop-color="#E5E5E5"/>
</linearGradient>
<linearGradient id="paint5_linear_0_6805" x1="511.47" y1="241.03" x2="659.774" y2="39.529" gradientUnits="userSpaceOnUse">
<stop stop-color="#DDDDDD"/>
<stop offset="1" stop-color="#C2C2C2"/>
</linearGradient>
<linearGradient id="paint6_linear_0_6805" x1="615.337" y1="394.865" x2="776.158" y2="227.376" gradientUnits="userSpaceOnUse">
<stop stop-color="#EFEFEF"/>
<stop offset="1" stop-color="#BDBDBD"/>
</linearGradient>
<linearGradient id="paint7_linear_0_6805" x1="611.246" y1="215.686" x2="762.739" y2="146.743" gradientUnits="userSpaceOnUse">
<stop stop-color="#E2E2E2"/>
<stop offset="1" stop-color="#D8D8D8"/>
</linearGradient>
<linearGradient id="paint8_linear_0_6805" x1="654.156" y1="144.303" x2="930.019" y2="-92.3205" gradientUnits="userSpaceOnUse">
<stop stop-color="#E5E5E5"/>
<stop offset="1" stop-color="#C0C0C0"/>
</linearGradient>
<linearGradient id="paint9_linear_0_6805" x1="680.624" y1="348.987" x2="834.982" y2="252.918" gradientUnits="userSpaceOnUse">
<stop stop-color="#DDDDDD"/>
<stop offset="1" stop-color="#EDEDED"/>
</linearGradient>
<linearGradient id="paint10_linear_0_6805" x1="702.039" y1="296.774" x2="1036.57" y2="77.0655" gradientUnits="userSpaceOnUse">
<stop stop-color="#FAFAFA"/>
<stop offset="1" stop-color="#B6B6B6"/>
</linearGradient>
<linearGradient id="paint11_linear_0_6805" x1="158.566" y1="48.2956" x2="266.884" y2="-14.1954" gradientUnits="userSpaceOnUse">
<stop stop-color="#E8E8E8"/>
<stop offset="1" stop-color="white"/>
</linearGradient>
<linearGradient id="paint12_linear_0_6805" x1="197.946" y1="154.568" x2="403.403" y2="-61.7032" gradientUnits="userSpaceOnUse">
<stop stop-color="white"/>
<stop offset="1" stop-color="white"/>
</linearGradient>
<linearGradient id="paint13_linear_0_6805" x1="570.742" y1="465.125" x2="686.31" y2="306.076" gradientUnits="userSpaceOnUse">
<stop stop-color="#F4F4F4"/>
<stop offset="1" stop-color="#BBBBBB"/>
</linearGradient>
<linearGradient id="paint14_linear_0_6805" x1="672.603" y1="693.952" x2="883.859" y2="444.718" gradientUnits="userSpaceOnUse">
<stop stop-color="#D8D8D8"/>
<stop offset="1" stop-color="#E0E0E0"/>
</linearGradient>
<linearGradient id="paint15_linear_0_6805" x1="708.616" y1="572.36" x2="900.458" y2="309.679" gradientUnits="userSpaceOnUse">
<stop stop-color="#D1D1D1"/>
<stop offset="1" stop-color="#E8E8E8"/>
</linearGradient>
<linearGradient id="paint16_linear_0_6805" x1="669.316" y1="679.675" x2="872.982" y2="399.347" gradientUnits="userSpaceOnUse">
<stop stop-color="white"/>
<stop offset="1" stop-color="#FCFCFC"/>
</linearGradient>
<linearGradient id="paint17_linear_0_6805" x1="-3.53002" y1="54.2308" x2="145.329" y2="-120.272" gradientUnits="userSpaceOnUse">
<stop stop-color="#D8D8D8"/>
<stop offset="1" stop-color="white"/>
</linearGradient>
<linearGradient id="paint18_linear_0_6805" x1="535.452" y1="74.9261" x2="657.342" y2="19.8499" gradientUnits="userSpaceOnUse">
<stop stop-color="white"/>
<stop offset="1" stop-color="#E0E0E0"/>
</linearGradient>
<linearGradient id="paint19_linear_0_6805" x1="566.731" y1="42.4428" x2="711.31" y2="-63.5817" gradientUnits="userSpaceOnUse">
<stop stop-color="#C0C0C0"/>
<stop offset="1" stop-color="#DDDDDD"/>
</linearGradient>
<linearGradient id="paint20_linear_0_6805" x1="523.26" y1="-14.9862" x2="575.029" y2="-200.231" gradientUnits="userSpaceOnUse">
<stop stop-color="#C5C5C5"/>
<stop offset="1" stop-color="#C5C5C5"/>
</linearGradient>
<linearGradient id="paint21_linear_0_6805" x1="655.761" y1="754.669" x2="738.08" y2="575.397" gradientUnits="userSpaceOnUse">
<stop stop-color="#E2E2E2"/>
<stop offset="1" stop-color="#FAFAFA"/>
</linearGradient>
<linearGradient id="paint22_linear_0_6805" x1="200.273" y1="113.422" x2="392.835" y2="-164.722" gradientUnits="userSpaceOnUse">
<stop stop-color="white"/>
<stop offset="1" stop-color="white"/>
</linearGradient>
<linearGradient id="paint23_linear_0_6805" x1="415.706" y1="147.83" x2="610.432" y2="-55.3093" gradientUnits="userSpaceOnUse">
<stop stop-color="white"/>
<stop offset="1" stop-color="#D8D8D8"/>
</linearGradient>
<linearGradient id="paint24_linear_0_6805" x1="388.597" y1="218.893" x2="551.271" y2="19.6758" gradientUnits="userSpaceOnUse">
<stop stop-color="white"/>
<stop offset="1" stop-color="#DBDBDB"/>
</linearGradient>
<linearGradient id="paint25_linear_0_6805" x1="469.363" y1="336.875" x2="617.613" y2="135.76" gradientUnits="userSpaceOnUse">
<stop stop-color="#EFEFEF"/>
<stop offset="1" stop-color="#E5E5E5"/>
</linearGradient>
<linearGradient id="paint26_linear_0_6805" x1="511.471" y1="241.03" x2="659.775" y2="39.529" gradientUnits="userSpaceOnUse">
<stop stop-color="#DDDDDD"/>
<stop offset="1" stop-color="#C2C2C2"/>
</linearGradient>
<linearGradient id="paint27_linear_0_6805" x1="615.337" y1="394.865" x2="776.159" y2="227.376" gradientUnits="userSpaceOnUse">
<stop stop-color="#EFEFEF"/>
<stop offset="1" stop-color="#BDBDBD"/>
</linearGradient>
<linearGradient id="paint28_linear_0_6805" x1="611.247" y1="215.686" x2="762.74" y2="146.743" gradientUnits="userSpaceOnUse">
<stop stop-color="#E2E2E2"/>
<stop offset="1" stop-color="#D8D8D8"/>
</linearGradient>
<linearGradient id="paint29_linear_0_6805" x1="654.157" y1="144.303" x2="930.02" y2="-92.3203" gradientUnits="userSpaceOnUse">
<stop stop-color="#E5E5E5"/>
<stop offset="1" stop-color="#C0C0C0"/>
</linearGradient>
<linearGradient id="paint30_linear_0_6805" x1="680.625" y1="348.987" x2="834.983" y2="252.918" gradientUnits="userSpaceOnUse">
<stop stop-color="#DDDDDD"/>
<stop offset="1" stop-color="#EDEDED"/>
</linearGradient>
<linearGradient id="paint31_linear_0_6805" x1="702.04" y1="296.774" x2="1036.57" y2="77.0657" gradientUnits="userSpaceOnUse">
<stop stop-color="#FAFAFA"/>
<stop offset="1" stop-color="#B6B6B6"/>
</linearGradient>
<linearGradient id="paint32_linear_0_6805" x1="158.567" y1="48.2956" x2="266.885" y2="-14.1954" gradientUnits="userSpaceOnUse">
<stop stop-color="#E8E8E8"/>
<stop offset="1" stop-color="white"/>
</linearGradient>
<linearGradient id="paint33_linear_0_6805" x1="197.947" y1="154.568" x2="403.404" y2="-61.7032" gradientUnits="userSpaceOnUse">
<stop stop-color="white"/>
<stop offset="1" stop-color="white"/>
</linearGradient>
<linearGradient id="paint34_linear_0_6805" x1="570.743" y1="465.125" x2="686.311" y2="306.076" gradientUnits="userSpaceOnUse">
<stop stop-color="#F4F4F4"/>
<stop offset="1" stop-color="#BBBBBB"/>
</linearGradient>
<linearGradient id="paint35_linear_0_6805" x1="672.604" y1="693.952" x2="883.86" y2="444.718" gradientUnits="userSpaceOnUse">
<stop stop-color="#D8D8D8"/>
<stop offset="1" stop-color="#E0E0E0"/>
</linearGradient>
<linearGradient id="paint36_linear_0_6805" x1="708.617" y1="572.361" x2="900.459" y2="309.679" gradientUnits="userSpaceOnUse">
<stop stop-color="#D1D1D1"/>
<stop offset="1" stop-color="#E8E8E8"/>
</linearGradient>
<linearGradient id="paint37_linear_0_6805" x1="669.317" y1="679.675" x2="872.983" y2="399.347" gradientUnits="userSpaceOnUse">
<stop stop-color="white"/>
<stop offset="1" stop-color="#FCFCFC"/>
</linearGradient>
<linearGradient id="paint38_linear_0_6805" x1="-3.52905" y1="54.2308" x2="145.33" y2="-120.272" gradientUnits="userSpaceOnUse">
<stop stop-color="#D8D8D8"/>
<stop offset="1" stop-color="white"/>
</linearGradient>
<linearGradient id="paint39_linear_0_6805" x1="535.453" y1="74.9261" x2="657.343" y2="19.8499" gradientUnits="userSpaceOnUse">
<stop stop-color="white"/>
<stop offset="1" stop-color="#E0E0E0"/>
</linearGradient>
<linearGradient id="paint40_linear_0_6805" x1="566.732" y1="42.4428" x2="711.311" y2="-63.5817" gradientUnits="userSpaceOnUse">
<stop stop-color="#C0C0C0"/>
<stop offset="1" stop-color="#DDDDDD"/>
</linearGradient>
<linearGradient id="paint41_linear_0_6805" x1="523.261" y1="-14.9862" x2="575.03" y2="-200.231" gradientUnits="userSpaceOnUse">
<stop stop-color="#C5C5C5"/>
<stop offset="1" stop-color="#C5C5C5"/>
</linearGradient>
</defs>
</svg>
