<svg width="1548" height="1246" viewBox="0 0 1548 1246" fill="none" xmlns="http://www.w3.org/2000/svg">
<g clip-path="url(#clip0_99_28)">
<path d="M881.441 958.777L631.36 929.02L683.734 851.622L881.441 958.777Z" fill="url(#paint0_linear_99_28)"/>
<path d="M390.744 1566.25L287.118 1472.17L515.784 1189.85L390.744 1566.25Z" fill="url(#paint1_linear_99_28)"/>
<path d="M631.36 929.022L561.02 1045.8L532.467 963.59L631.36 929.022Z" fill="url(#paint2_linear_99_28)"/>
<path d="M561.02 1045.8L512.175 976.663L532.467 963.59L561.02 1045.8Z" fill="url(#paint3_linear_99_28)"/>
<path d="M512.175 976.665L468.142 962.389L532.467 963.592L512.175 976.665Z" fill="url(#paint4_linear_99_28)"/>
<path d="M468.142 962.386L445.524 896.858L532.467 963.59L468.142 962.386Z" fill="url(#paint5_linear_99_28)"/>
<path d="M515.784 1189.85L390.743 1566.25L749.263 1330.45L515.784 1189.85Z" fill="url(#paint6_linear_99_28)"/>
<path d="M749.263 1330.45L515.784 1189.85L798.108 1244.71L749.263 1330.45Z" fill="url(#paint7_linear_99_28)"/>
<path d="M561.02 1045.8L515.784 1189.85L798.108 1244.71L561.02 1045.8Z" fill="url(#paint8_linear_99_28)"/>
<path d="M48.9066 1266.13L-54.7191 1038.66L-369.205 1138.68L48.9066 1266.13Z" fill="url(#paint9_linear_99_28)"/>
<path d="M48.9066 1266.13L-358.458 1362.61L-369.205 1138.68L48.9066 1266.13Z" fill="url(#paint10_linear_99_28)"/>
<path d="M963.652 1261.39L798.108 1244.71L855.214 1414.99L963.652 1261.39Z" fill="url(#paint11_linear_99_28)"/>
<path d="M798.108 1244.71L749.263 1330.45L855.214 1414.99L798.108 1244.71Z" fill="url(#paint12_linear_99_28)"/>
<path d="M561.02 1045.8L515.784 1189.85L466.939 1025.51L561.02 1045.8Z" fill="url(#paint13_linear_99_28)"/>
<path d="M561.02 1045.8L512.175 976.664L466.939 1025.51L561.02 1045.8Z" fill="url(#paint14_linear_99_28)"/>
<path d="M512.175 976.665L468.142 962.389L466.939 1025.51L512.175 976.665Z" fill="url(#paint15_linear_99_28)"/>
<path d="M587.247 681.267L445.524 896.86L315.671 867.104L587.247 681.267Z" fill="url(#paint16_linear_99_28)"/>
<path d="M468.142 962.388L466.939 1025.51L315.671 867.104L468.142 962.388Z" fill="url(#paint17_linear_99_28)"/>
<path d="M468.142 962.388L445.524 896.86L315.671 867.104L468.142 962.388Z" fill="url(#paint18_linear_99_28)"/>
<path d="M315.671 867.104L-54.719 1038.66L161.997 761.072L315.671 867.104Z" fill="url(#paint19_linear_99_28)"/>
<path d="M142.988 500.241L16.7441 645.573L161.997 761.07L142.988 500.241Z" fill="url(#paint20_linear_99_28)"/>
<path d="M587.247 681.267L315.671 867.104L161.997 761.072L587.247 681.267Z" fill="url(#paint21_linear_99_28)"/>
<path d="M587.247 681.265L142.988 500.241L161.997 761.07L587.247 681.265Z" fill="url(#paint22_linear_99_28)"/>
<path d="M963.652 1261.39L798.108 1244.71L852.888 1141.09L963.652 1261.39Z" fill="url(#paint23_linear_99_28)"/>
<path d="M881.441 958.778L631.36 929.022L852.888 1141.09L881.441 958.778Z" fill="url(#paint24_linear_99_28)"/>
<path d="M798.108 1244.71L561.02 1045.8L852.889 1141.08L798.108 1244.71Z" fill="url(#paint25_linear_99_28)"/>
<path d="M631.361 929.022L561.02 1045.8L852.889 1141.09L631.361 929.022Z" fill="url(#paint26_linear_99_28)"/>
<path d="M161.997 761.07L16.7441 645.574L-147.678 908.809L161.997 761.07Z" fill="url(#paint27_linear_99_28)"/>
<path d="M161.997 761.072L-54.7192 1038.66L-147.678 908.811L161.997 761.072Z" fill="url(#paint28_linear_99_28)"/>
<path d="M315.671 867.104L-54.719 1038.66L264.5 1164.91L315.671 867.104Z" fill="url(#paint29_linear_99_28)"/>
<path d="M287.118 1472.17L215.655 1463.83L264.5 1164.91L287.118 1472.17Z" fill="url(#paint30_linear_99_28)"/>
<path d="M215.654 1463.83L48.9065 1266.13L264.5 1164.91L215.654 1463.83Z" fill="url(#paint31_linear_99_28)"/>
<path d="M48.9067 1266.13L-54.719 1038.66L264.5 1164.91L48.9067 1266.13Z" fill="url(#paint32_linear_99_28)"/>
<path d="M515.784 1189.85L287.118 1472.17L264.5 1164.91L515.784 1189.85Z" fill="url(#paint33_linear_99_28)"/>
<path d="M515.784 1189.85L466.939 1025.51L264.5 1164.91L515.784 1189.85Z" fill="url(#paint34_linear_99_28)"/>
<path d="M466.938 1025.51L315.671 867.104L264.499 1164.91L466.938 1025.51Z" fill="url(#paint35_linear_99_28)"/>
<path d="M683.734 851.623L631.36 929.021L603.93 801.574L683.734 851.623Z" fill="url(#paint36_linear_99_28)"/>
<path d="M683.734 851.624L587.247 681.267L603.93 801.576L683.734 851.624Z" fill="url(#paint37_linear_99_28)"/>
<path d="M631.36 929.021L532.467 963.59L603.93 801.574L631.36 929.021Z" fill="url(#paint38_linear_99_28)"/>
<path d="M587.247 681.267L445.524 896.86L603.93 801.576L587.247 681.267Z" fill="url(#paint39_linear_99_28)"/>
<path d="M532.467 963.59L445.524 896.859L603.93 801.574L532.467 963.59Z" fill="url(#paint40_linear_99_28)"/>
<g style="mix-blend-mode:exclusion" opacity="0.1">
<path d="M881.441 958.777L631.36 929.02L683.734 851.622L881.441 958.777Z" fill="url(#paint41_linear_99_28)"/>
<path d="M390.744 1566.25L287.118 1472.17L515.784 1189.85L390.744 1566.25Z" fill="url(#paint42_linear_99_28)"/>
<path d="M631.36 929.022L561.02 1045.8L532.467 963.59L631.36 929.022Z" fill="url(#paint43_linear_99_28)"/>
<path d="M561.02 1045.8L512.175 976.663L532.467 963.59L561.02 1045.8Z" fill="url(#paint44_linear_99_28)"/>
<path d="M512.175 976.665L468.142 962.389L532.467 963.592L512.175 976.665Z" fill="url(#paint45_linear_99_28)"/>
<path d="M468.142 962.386L445.524 896.858L532.467 963.59L468.142 962.386Z" fill="url(#paint46_linear_99_28)"/>
<path d="M515.784 1189.85L390.743 1566.25L749.263 1330.45L515.784 1189.85Z" fill="url(#paint47_linear_99_28)"/>
<path d="M749.263 1330.45L515.784 1189.85L798.108 1244.71L749.263 1330.45Z" fill="url(#paint48_linear_99_28)"/>
<path d="M561.02 1045.8L515.784 1189.85L798.108 1244.71L561.02 1045.8Z" fill="url(#paint49_linear_99_28)"/>
<path d="M48.9066 1266.13L-54.7191 1038.66L-369.205 1138.68L48.9066 1266.13Z" fill="url(#paint50_linear_99_28)"/>
<path d="M48.9066 1266.13L-358.458 1362.61L-369.205 1138.68L48.9066 1266.13Z" fill="url(#paint51_linear_99_28)"/>
<path d="M963.652 1261.39L798.108 1244.71L855.214 1414.99L963.652 1261.39Z" fill="url(#paint52_linear_99_28)"/>
<path d="M798.108 1244.71L749.263 1330.45L855.214 1414.99L798.108 1244.71Z" fill="url(#paint53_linear_99_28)"/>
<path d="M561.02 1045.8L515.784 1189.85L466.939 1025.51L561.02 1045.8Z" fill="url(#paint54_linear_99_28)"/>
<path d="M561.02 1045.8L512.175 976.664L466.939 1025.51L561.02 1045.8Z" fill="url(#paint55_linear_99_28)"/>
<path d="M512.175 976.665L468.142 962.389L466.939 1025.51L512.175 976.665Z" fill="url(#paint56_linear_99_28)"/>
<path d="M587.247 681.267L445.524 896.86L315.671 867.104L587.247 681.267Z" fill="url(#paint57_linear_99_28)"/>
<path d="M468.142 962.388L466.939 1025.51L315.671 867.104L468.142 962.388Z" fill="url(#paint58_linear_99_28)"/>
<path d="M468.142 962.388L445.524 896.86L315.671 867.104L468.142 962.388Z" fill="url(#paint59_linear_99_28)"/>
<path d="M315.671 867.104L-54.719 1038.66L161.997 761.072L315.671 867.104Z" fill="url(#paint60_linear_99_28)"/>
<path d="M142.988 500.241L16.7441 645.573L161.997 761.07L142.988 500.241Z" fill="url(#paint61_linear_99_28)"/>
<path d="M587.247 681.267L315.671 867.104L161.997 761.072L587.247 681.267Z" fill="url(#paint62_linear_99_28)"/>
<path d="M587.247 681.265L142.988 500.241L161.997 761.07L587.247 681.265Z" fill="url(#paint63_linear_99_28)"/>
<path d="M963.652 1261.39L798.108 1244.71L852.888 1141.09L963.652 1261.39Z" fill="url(#paint64_linear_99_28)"/>
<path d="M881.441 958.778L631.36 929.022L852.888 1141.09L881.441 958.778Z" fill="url(#paint65_linear_99_28)"/>
<path d="M798.108 1244.71L561.02 1045.8L852.889 1141.08L798.108 1244.71Z" fill="url(#paint66_linear_99_28)"/>
<path d="M631.361 929.022L561.02 1045.8L852.889 1141.09L631.361 929.022Z" fill="url(#paint67_linear_99_28)"/>
<path d="M161.997 761.07L16.7441 645.574L-147.678 908.809L161.997 761.07Z" fill="url(#paint68_linear_99_28)"/>
<path d="M161.997 761.072L-54.7192 1038.66L-147.678 908.811L161.997 761.072Z" fill="url(#paint69_linear_99_28)"/>
<path d="M315.671 867.104L-54.719 1038.66L264.5 1164.91L315.671 867.104Z" fill="url(#paint70_linear_99_28)"/>
<path d="M287.118 1472.17L215.655 1463.83L264.5 1164.91L287.118 1472.17Z" fill="url(#paint71_linear_99_28)"/>
<path d="M215.654 1463.83L48.9065 1266.13L264.5 1164.91L215.654 1463.83Z" fill="url(#paint72_linear_99_28)"/>
<path d="M48.9065 1266.13L-54.7192 1038.66L264.5 1164.91L48.9065 1266.13Z" fill="url(#paint73_linear_99_28)"/>
<path d="M515.784 1189.85L287.118 1472.17L264.5 1164.91L515.784 1189.85Z" fill="url(#paint74_linear_99_28)"/>
<path d="M515.784 1189.85L466.939 1025.51L264.5 1164.91L515.784 1189.85Z" fill="url(#paint75_linear_99_28)"/>
<path d="M466.938 1025.51L315.671 867.104L264.499 1164.91L466.938 1025.51Z" fill="url(#paint76_linear_99_28)"/>
<path d="M683.734 851.623L631.36 929.021L603.93 801.574L683.734 851.623Z" fill="url(#paint77_linear_99_28)"/>
<path d="M683.734 851.624L587.247 681.267L603.93 801.576L683.734 851.624Z" fill="url(#paint78_linear_99_28)"/>
<path d="M631.36 929.021L532.467 963.59L603.93 801.574L631.36 929.021Z" fill="url(#paint79_linear_99_28)"/>
<path d="M587.247 681.267L445.524 896.86L603.93 801.576L587.247 681.267Z" fill="url(#paint80_linear_99_28)"/>
<path d="M532.467 963.59L445.524 896.859L603.93 801.574L532.467 963.59Z" fill="url(#paint81_linear_99_28)"/>
</g>
<g style="mix-blend-mode:overlay">
<path d="M881.441 958.777L631.36 929.02L683.734 851.622L881.441 958.777Z" fill="#5FE0ED"/>
<path d="M390.744 1566.25L287.118 1472.17L515.784 1189.85L390.744 1566.25Z" fill="#5FE0ED"/>
<path d="M631.36 929.022L561.02 1045.8L532.467 963.59L631.36 929.022Z" fill="#5FE0ED"/>
<path d="M561.02 1045.8L512.175 976.663L532.467 963.59L561.02 1045.8Z" fill="#5FE0ED"/>
<path d="M512.175 976.665L468.142 962.389L532.467 963.592L512.175 976.665Z" fill="#5FE0ED"/>
<path d="M468.142 962.386L445.524 896.858L532.467 963.59L468.142 962.386Z" fill="#5FE0ED"/>
<path d="M515.784 1189.85L390.743 1566.25L749.263 1330.45L515.784 1189.85Z" fill="#5FE0ED"/>
<path d="M749.263 1330.45L515.784 1189.85L798.108 1244.71L749.263 1330.45Z" fill="#5FE0ED"/>
<path d="M561.02 1045.8L515.784 1189.85L798.108 1244.71L561.02 1045.8Z" fill="#5FE0ED"/>
<path d="M48.9066 1266.13L-54.7191 1038.66L-369.205 1138.68L48.9066 1266.13Z" fill="#5FE0ED"/>
<path d="M48.9066 1266.13L-358.458 1362.61L-369.205 1138.68L48.9066 1266.13Z" fill="#5FE0ED"/>
<path d="M963.652 1261.39L798.108 1244.71L855.214 1414.99L963.652 1261.39Z" fill="#5FE0ED"/>
<path d="M798.108 1244.71L749.263 1330.45L855.214 1414.99L798.108 1244.71Z" fill="#5FE0ED"/>
<path d="M561.02 1045.8L515.784 1189.85L466.939 1025.51L561.02 1045.8Z" fill="#5FE0ED"/>
<path d="M561.02 1045.8L512.175 976.664L466.939 1025.51L561.02 1045.8Z" fill="#5FE0ED"/>
<path d="M512.175 976.665L468.142 962.389L466.939 1025.51L512.175 976.665Z" fill="#5FE0ED"/>
<path d="M587.247 681.267L445.524 896.86L315.671 867.104L587.247 681.267Z" fill="#5FE0ED"/>
<path d="M468.142 962.388L466.939 1025.51L315.671 867.104L468.142 962.388Z" fill="#5FE0ED"/>
<path d="M468.142 962.388L445.524 896.86L315.671 867.104L468.142 962.388Z" fill="#5FE0ED"/>
<path d="M315.671 867.104L-54.719 1038.66L161.997 761.072L315.671 867.104Z" fill="#5FE0ED"/>
<path d="M142.988 500.241L16.7441 645.573L161.997 761.07L142.988 500.241Z" fill="#5FE0ED"/>
<path d="M587.247 681.267L315.671 867.104L161.997 761.072L587.247 681.267Z" fill="#5FE0ED"/>
<path d="M587.247 681.265L142.988 500.241L161.997 761.07L587.247 681.265Z" fill="#5FE0ED"/>
<path d="M963.652 1261.39L798.108 1244.71L852.888 1141.09L963.652 1261.39Z" fill="#5FE0ED"/>
<path d="M881.441 958.778L631.36 929.022L852.888 1141.09L881.441 958.778Z" fill="#5FE0ED"/>
<path d="M798.108 1244.71L561.02 1045.8L852.889 1141.08L798.108 1244.71Z" fill="#5FE0ED"/>
<path d="M631.361 929.022L561.02 1045.8L852.889 1141.09L631.361 929.022Z" fill="#5FE0ED"/>
<path d="M161.997 761.07L16.7441 645.574L-147.678 908.809L161.997 761.07Z" fill="#5FE0ED"/>
<path d="M161.997 761.072L-54.7192 1038.66L-147.678 908.811L161.997 761.072Z" fill="#5FE0ED"/>
<path d="M315.671 867.104L-54.719 1038.66L264.5 1164.91L315.671 867.104Z" fill="#5FE0ED"/>
<path d="M287.118 1472.17L215.655 1463.83L264.5 1164.91L287.118 1472.17Z" fill="#5FE0ED"/>
<path d="M215.654 1463.83L48.9065 1266.13L264.5 1164.91L215.654 1463.83Z" fill="#5FE0ED"/>
<path d="M48.9065 1266.13L-54.7192 1038.66L264.5 1164.91L48.9065 1266.13Z" fill="#5FE0ED"/>
<path d="M515.784 1189.85L287.118 1472.17L264.5 1164.91L515.784 1189.85Z" fill="#5FE0ED"/>
<path d="M515.784 1189.85L466.939 1025.51L264.5 1164.91L515.784 1189.85Z" fill="#5FE0ED"/>
<path d="M466.938 1025.51L315.671 867.104L264.499 1164.91L466.938 1025.51Z" fill="#5FE0ED"/>
<path d="M683.734 851.623L631.36 929.021L603.93 801.574L683.734 851.623Z" fill="#5FE0ED"/>
<path d="M683.734 851.624L587.247 681.267L603.93 801.576L683.734 851.624Z" fill="#5FE0ED"/>
<path d="M631.36 929.021L532.467 963.59L603.93 801.574L631.36 929.021Z" fill="#5FE0ED"/>
<path d="M587.247 681.267L445.524 896.86L603.93 801.576L587.247 681.267Z" fill="#5FE0ED"/>
<path d="M532.467 963.59L445.524 896.859L603.93 801.574L532.467 963.59Z" fill="#5FE0ED"/>
</g>
</g>
<defs>
<linearGradient id="paint0_linear_99_28" x1="891.547" y1="860.124" x2="809.229" y2="1039.4" gradientUnits="userSpaceOnUse">
<stop stop-color="#E2E2E2"/>
<stop offset="1" stop-color="#FAFAFA"/>
</linearGradient>
<linearGradient id="paint1_linear_99_28" x1="524.928" y1="1212.55" x2="187.508" y2="1417.56" gradientUnits="userSpaceOnUse">
<stop stop-color="#FCFCFC"/>
<stop offset="1" stop-color="white"/>
</linearGradient>
<linearGradient id="paint2_linear_99_28" x1="619.891" y1="920.68" x2="504.901" y2="1011.58" gradientUnits="userSpaceOnUse">
<stop stop-color="#F4F4F4"/>
<stop offset="1" stop-color="white"/>
</linearGradient>
<linearGradient id="paint3_linear_99_28" x1="562.865" y1="966.317" x2="489.955" y2="1009.64" gradientUnits="userSpaceOnUse">
<stop stop-color="white"/>
<stop offset="1" stop-color="white"/>
</linearGradient>
<linearGradient id="paint4_linear_99_28" x1="527.414" y1="961.266" x2="521.299" y2="988.781" gradientUnits="userSpaceOnUse">
<stop stop-color="#D1D1D1"/>
<stop offset="1" stop-color="#EDEDED"/>
</linearGradient>
<linearGradient id="paint5_linear_99_28" x1="529.579" y1="897.259" x2="469.91" y2="980.599" gradientUnits="userSpaceOnUse">
<stop stop-color="#EFEFEF"/>
<stop offset="1" stop-color="#E0E0E0"/>
</linearGradient>
<linearGradient id="paint6_linear_99_28" x1="724.72" y1="1161.86" x2="344.994" y2="1523.56" gradientUnits="userSpaceOnUse">
<stop stop-color="white"/>
<stop offset="1" stop-color="#FCFCFC"/>
</linearGradient>
<linearGradient id="paint7_linear_99_28" x1="787.2" y1="1185.6" x2="673.917" y2="1413.12" gradientUnits="userSpaceOnUse">
<stop stop-color="#FAFAFA"/>
<stop offset="1" stop-color="#D6D6D6"/>
</linearGradient>
<linearGradient id="paint8_linear_99_28" x1="806.209" y1="1055.83" x2="617.005" y2="1324.34" gradientUnits="userSpaceOnUse">
<stop stop-color="white"/>
<stop offset="1" stop-color="#F2F2F2"/>
</linearGradient>
<linearGradient id="paint9_linear_99_28" x1="84.4378" y1="1063.77" x2="-89.1547" y2="1405.56" gradientUnits="userSpaceOnUse">
<stop stop-color="#E8E8E8"/>
<stop offset="1" stop-color="#E8E8E8"/>
</linearGradient>
<linearGradient id="paint10_linear_99_28" x1="-0.0187954" y1="1113.9" x2="-188.295" y2="1465.41" gradientUnits="userSpaceOnUse">
<stop stop-color="#E0E0E0"/>
<stop offset="1" stop-color="#D3D3D3"/>
</linearGradient>
<linearGradient id="paint11_linear_99_28" x1="931.971" y1="1219.93" x2="771.15" y2="1387.42" gradientUnits="userSpaceOnUse">
<stop stop-color="#EFEFEF"/>
<stop offset="1" stop-color="#BDBDBD"/>
</linearGradient>
<linearGradient id="paint12_linear_99_28" x1="866.684" y1="1265.81" x2="712.326" y2="1361.87" gradientUnits="userSpaceOnUse">
<stop stop-color="#DDDDDD"/>
<stop offset="1" stop-color="#EDEDED"/>
</linearGradient>
<linearGradient id="paint13_linear_99_28" x1="550.353" y1="1005.3" x2="407.184" y2="1087.26" gradientUnits="userSpaceOnUse">
<stop stop-color="white"/>
<stop offset="1" stop-color="white"/>
</linearGradient>
<linearGradient id="paint14_linear_99_28" x1="569.361" y1="984.284" x2="508.481" y2="1073.13" gradientUnits="userSpaceOnUse">
<stop stop-color="white"/>
<stop offset="1" stop-color="white"/>
</linearGradient>
<linearGradient id="paint15_linear_99_28" x1="503.192" y1="952.203" x2="444.108" y2="991.741" gradientUnits="userSpaceOnUse">
<stop stop-color="white"/>
<stop offset="1" stop-color="white"/>
</linearGradient>
<linearGradient id="paint16_linear_99_28" x1="617.485" y1="698.913" x2="405.402" y2="966.066" gradientUnits="userSpaceOnUse">
<stop stop-color="#EAEAEA"/>
<stop offset="1" stop-color="#E5E5E5"/>
</linearGradient>
<linearGradient id="paint17_linear_99_28" x1="472.312" y1="864.297" x2="312.419" y2="1018.18" gradientUnits="userSpaceOnUse">
<stop stop-color="#E5E5E5"/>
<stop offset="1" stop-color="#F4F4F4"/>
</linearGradient>
<linearGradient id="paint18_linear_99_28" x1="472.312" y1="869.991" x2="383.106" y2="1003.21" gradientUnits="userSpaceOnUse">
<stop stop-color="white"/>
<stop offset="1" stop-color="#E2E2E2"/>
</linearGradient>
<linearGradient id="paint19_linear_99_28" x1="308.051" y1="761.794" x2="39.0263" y2="1120.88" gradientUnits="userSpaceOnUse">
<stop stop-color="#EDEDED"/>
<stop offset="1" stop-color="#EAEAEA"/>
</linearGradient>
<linearGradient id="paint20_linear_99_28" x1="183.572" y1="544.113" x2="-32.6188" y2="656.519" gradientUnits="userSpaceOnUse">
<stop stop-color="#EDEDED"/>
<stop offset="1" stop-color="#BDBDBD"/>
</linearGradient>
<linearGradient id="paint21_linear_99_28" x1="558.052" y1="674.851" x2="420.326" y2="990.031" gradientUnits="userSpaceOnUse">
<stop stop-color="#D3D3D3"/>
<stop offset="1" stop-color="#E5E5E5"/>
</linearGradient>
<linearGradient id="paint22_linear_99_28" x1="562.143" y1="473.853" x2="332.066" y2="865.719" gradientUnits="userSpaceOnUse">
<stop stop-color="#CECECE"/>
<stop offset="1" stop-color="#F4F4F4"/>
</linearGradient>
<linearGradient id="paint23_linear_99_28" x1="976.565" y1="1149.67" x2="860.997" y2="1308.72" gradientUnits="userSpaceOnUse">
<stop stop-color="#F4F4F4"/>
<stop offset="1" stop-color="#BBBBBB"/>
</linearGradient>
<linearGradient id="paint24_linear_99_28" x1="874.704" y1="920.841" x2="663.449" y2="1170.07" gradientUnits="userSpaceOnUse">
<stop stop-color="#D8D8D8"/>
<stop offset="1" stop-color="#E0E0E0"/>
</linearGradient>
<linearGradient id="paint25_linear_99_28" x1="838.692" y1="1042.43" x2="646.851" y2="1305.11" gradientUnits="userSpaceOnUse">
<stop stop-color="#D1D1D1"/>
<stop offset="1" stop-color="#E8E8E8"/>
</linearGradient>
<linearGradient id="paint26_linear_99_28" x1="877.993" y1="935.117" x2="674.326" y2="1215.45" gradientUnits="userSpaceOnUse">
<stop stop-color="white"/>
<stop offset="1" stop-color="#FCFCFC"/>
</linearGradient>
<linearGradient id="paint27_linear_99_28" x1="162.237" y1="650.466" x2="-103.116" y2="941.835" gradientUnits="userSpaceOnUse">
<stop stop-color="#D6D6D6"/>
<stop offset="1" stop-color="#C7C7C7"/>
</linearGradient>
<linearGradient id="paint28_linear_99_28" x1="141.384" y1="743.106" x2="-116.741" y2="1051.72" gradientUnits="userSpaceOnUse">
<stop stop-color="#EAEAEA"/>
<stop offset="1" stop-color="#EDEDED"/>
</linearGradient>
<linearGradient id="paint29_linear_99_28" x1="357.939" y1="893.652" x2="64.197" y2="1259.07" gradientUnits="userSpaceOnUse">
<stop stop-color="white"/>
<stop offset="1" stop-color="white"/>
</linearGradient>
<linearGradient id="paint30_linear_99_28" x1="299.55" y1="1224.98" x2="170.56" y2="1252.98" gradientUnits="userSpaceOnUse">
<stop stop-color="#DBDBDB"/>
<stop offset="1" stop-color="#EAEAEA"/>
</linearGradient>
<linearGradient id="paint31_linear_99_28" x1="265.382" y1="1177.5" x2="-7.98599" y2="1388.71" gradientUnits="userSpaceOnUse">
<stop stop-color="#DDDDDD"/>
<stop offset="1" stop-color="#E8E8E8"/>
</linearGradient>
<linearGradient id="paint32_linear_99_28" x1="238.112" y1="1017.81" x2="20.9022" y2="1322.59" gradientUnits="userSpaceOnUse">
<stop stop-color="#F7F7F7"/>
<stop offset="1" stop-color="#F2F2F2"/>
</linearGradient>
<linearGradient id="paint33_linear_99_28" x1="451.62" y1="1100.82" x2="163.743" y2="1353.07" gradientUnits="userSpaceOnUse">
<stop stop-color="#F4F4F4"/>
<stop offset="1" stop-color="#E5E5E5"/>
</linearGradient>
<linearGradient id="paint34_linear_99_28" x1="570.083" y1="1060.64" x2="417.976" y2="1293.21" gradientUnits="userSpaceOnUse">
<stop stop-color="#EDEDED"/>
<stop offset="1" stop-color="white"/>
</linearGradient>
<linearGradient id="paint35_linear_99_28" x1="460.843" y1="853.549" x2="181.132" y2="1043.75" gradientUnits="userSpaceOnUse">
<stop stop-color="#FAFAFA"/>
<stop offset="1" stop-color="#E5E5E5"/>
</linearGradient>
<linearGradient id="paint36_linear_99_28" x1="674.19" y1="782.806" x2="558.383" y2="855.321" gradientUnits="userSpaceOnUse">
<stop stop-color="#D6D6D6"/>
<stop offset="1" stop-color="#FCFCFC"/>
</linearGradient>
<linearGradient id="paint37_linear_99_28" x1="681.408" y1="683.513" x2="538.632" y2="770.163" gradientUnits="userSpaceOnUse">
<stop stop-color="#BBBBBB"/>
<stop offset="1" stop-color="#D6D6D6"/>
</linearGradient>
<linearGradient id="paint38_linear_99_28" x1="646.519" y1="823.952" x2="501.005" y2="912.758" gradientUnits="userSpaceOnUse">
<stop stop-color="white"/>
<stop offset="1" stop-color="#FAFAFA"/>
</linearGradient>
<linearGradient id="paint39_linear_99_28" x1="620.533" y1="698.913" x2="412.719" y2="851.615" gradientUnits="userSpaceOnUse">
<stop stop-color="#CECECE"/>
<stop offset="1" stop-color="#D3D3D3"/>
</linearGradient>
<linearGradient id="paint40_linear_99_28" x1="609.865" y1="802.136" x2="446.286" y2="962.107" gradientUnits="userSpaceOnUse">
<stop stop-color="white"/>
<stop offset="1" stop-color="#E0E0E0"/>
</linearGradient>
<linearGradient id="paint41_linear_99_28" x1="891.547" y1="860.124" x2="809.229" y2="1039.4" gradientUnits="userSpaceOnUse">
<stop stop-color="#E2E2E2"/>
<stop offset="1" stop-color="#FAFAFA"/>
</linearGradient>
<linearGradient id="paint42_linear_99_28" x1="524.928" y1="1212.55" x2="187.508" y2="1417.56" gradientUnits="userSpaceOnUse">
<stop stop-color="#FCFCFC"/>
<stop offset="1" stop-color="white"/>
</linearGradient>
<linearGradient id="paint43_linear_99_28" x1="619.891" y1="920.68" x2="504.901" y2="1011.58" gradientUnits="userSpaceOnUse">
<stop stop-color="#F4F4F4"/>
<stop offset="1" stop-color="white"/>
</linearGradient>
<linearGradient id="paint44_linear_99_28" x1="562.865" y1="966.317" x2="489.955" y2="1009.64" gradientUnits="userSpaceOnUse">
<stop stop-color="white"/>
<stop offset="1" stop-color="white"/>
</linearGradient>
<linearGradient id="paint45_linear_99_28" x1="527.414" y1="961.266" x2="521.299" y2="988.781" gradientUnits="userSpaceOnUse">
<stop stop-color="#D1D1D1"/>
<stop offset="1" stop-color="#EDEDED"/>
</linearGradient>
<linearGradient id="paint46_linear_99_28" x1="529.579" y1="897.259" x2="469.91" y2="980.599" gradientUnits="userSpaceOnUse">
<stop stop-color="#EFEFEF"/>
<stop offset="1" stop-color="#E0E0E0"/>
</linearGradient>
<linearGradient id="paint47_linear_99_28" x1="724.72" y1="1161.86" x2="344.994" y2="1523.56" gradientUnits="userSpaceOnUse">
<stop stop-color="white"/>
<stop offset="1" stop-color="#FCFCFC"/>
</linearGradient>
<linearGradient id="paint48_linear_99_28" x1="787.2" y1="1185.6" x2="673.917" y2="1413.12" gradientUnits="userSpaceOnUse">
<stop stop-color="#FAFAFA"/>
<stop offset="1" stop-color="#D6D6D6"/>
</linearGradient>
<linearGradient id="paint49_linear_99_28" x1="806.209" y1="1055.83" x2="617.005" y2="1324.34" gradientUnits="userSpaceOnUse">
<stop stop-color="white"/>
<stop offset="1" stop-color="#F2F2F2"/>
</linearGradient>
<linearGradient id="paint50_linear_99_28" x1="84.4378" y1="1063.77" x2="-89.1547" y2="1405.56" gradientUnits="userSpaceOnUse">
<stop stop-color="#E8E8E8"/>
<stop offset="1" stop-color="#E8E8E8"/>
</linearGradient>
<linearGradient id="paint51_linear_99_28" x1="-0.0187954" y1="1113.9" x2="-188.295" y2="1465.41" gradientUnits="userSpaceOnUse">
<stop stop-color="#E0E0E0"/>
<stop offset="1" stop-color="#D3D3D3"/>
</linearGradient>
<linearGradient id="paint52_linear_99_28" x1="931.971" y1="1219.93" x2="771.15" y2="1387.42" gradientUnits="userSpaceOnUse">
<stop stop-color="#EFEFEF"/>
<stop offset="1" stop-color="#BDBDBD"/>
</linearGradient>
<linearGradient id="paint53_linear_99_28" x1="866.684" y1="1265.81" x2="712.326" y2="1361.87" gradientUnits="userSpaceOnUse">
<stop stop-color="#DDDDDD"/>
<stop offset="1" stop-color="#EDEDED"/>
</linearGradient>
<linearGradient id="paint54_linear_99_28" x1="550.353" y1="1005.3" x2="407.184" y2="1087.26" gradientUnits="userSpaceOnUse">
<stop stop-color="white"/>
<stop offset="1" stop-color="white"/>
</linearGradient>
<linearGradient id="paint55_linear_99_28" x1="569.361" y1="984.284" x2="508.481" y2="1073.13" gradientUnits="userSpaceOnUse">
<stop stop-color="white"/>
<stop offset="1" stop-color="white"/>
</linearGradient>
<linearGradient id="paint56_linear_99_28" x1="503.192" y1="952.203" x2="444.108" y2="991.741" gradientUnits="userSpaceOnUse">
<stop stop-color="white"/>
<stop offset="1" stop-color="white"/>
</linearGradient>
<linearGradient id="paint57_linear_99_28" x1="617.485" y1="698.913" x2="405.402" y2="966.066" gradientUnits="userSpaceOnUse">
<stop stop-color="#EAEAEA"/>
<stop offset="1" stop-color="#E5E5E5"/>
</linearGradient>
<linearGradient id="paint58_linear_99_28" x1="472.312" y1="864.297" x2="312.419" y2="1018.18" gradientUnits="userSpaceOnUse">
<stop stop-color="#E5E5E5"/>
<stop offset="1" stop-color="#F4F4F4"/>
</linearGradient>
<linearGradient id="paint59_linear_99_28" x1="472.312" y1="869.991" x2="383.106" y2="1003.21" gradientUnits="userSpaceOnUse">
<stop stop-color="white"/>
<stop offset="1" stop-color="#E2E2E2"/>
</linearGradient>
<linearGradient id="paint60_linear_99_28" x1="308.051" y1="761.794" x2="39.0263" y2="1120.88" gradientUnits="userSpaceOnUse">
<stop stop-color="#EDEDED"/>
<stop offset="1" stop-color="#EAEAEA"/>
</linearGradient>
<linearGradient id="paint61_linear_99_28" x1="183.572" y1="544.113" x2="-32.6188" y2="656.519" gradientUnits="userSpaceOnUse">
<stop stop-color="#EDEDED"/>
<stop offset="1" stop-color="#BDBDBD"/>
</linearGradient>
<linearGradient id="paint62_linear_99_28" x1="558.052" y1="674.851" x2="420.326" y2="990.031" gradientUnits="userSpaceOnUse">
<stop stop-color="#D3D3D3"/>
<stop offset="1" stop-color="#E5E5E5"/>
</linearGradient>
<linearGradient id="paint63_linear_99_28" x1="562.143" y1="473.853" x2="332.066" y2="865.719" gradientUnits="userSpaceOnUse">
<stop stop-color="#CECECE"/>
<stop offset="1" stop-color="#F4F4F4"/>
</linearGradient>
<linearGradient id="paint64_linear_99_28" x1="976.565" y1="1149.67" x2="860.997" y2="1308.72" gradientUnits="userSpaceOnUse">
<stop stop-color="#F4F4F4"/>
<stop offset="1" stop-color="#BBBBBB"/>
</linearGradient>
<linearGradient id="paint65_linear_99_28" x1="874.704" y1="920.841" x2="663.449" y2="1170.07" gradientUnits="userSpaceOnUse">
<stop stop-color="#D8D8D8"/>
<stop offset="1" stop-color="#E0E0E0"/>
</linearGradient>
<linearGradient id="paint66_linear_99_28" x1="838.692" y1="1042.43" x2="646.851" y2="1305.11" gradientUnits="userSpaceOnUse">
<stop stop-color="#D1D1D1"/>
<stop offset="1" stop-color="#E8E8E8"/>
</linearGradient>
<linearGradient id="paint67_linear_99_28" x1="877.993" y1="935.117" x2="674.326" y2="1215.45" gradientUnits="userSpaceOnUse">
<stop stop-color="white"/>
<stop offset="1" stop-color="#FCFCFC"/>
</linearGradient>
<linearGradient id="paint68_linear_99_28" x1="162.237" y1="650.466" x2="-103.116" y2="941.835" gradientUnits="userSpaceOnUse">
<stop stop-color="#D6D6D6"/>
<stop offset="1" stop-color="#C7C7C7"/>
</linearGradient>
<linearGradient id="paint69_linear_99_28" x1="141.384" y1="743.106" x2="-116.741" y2="1051.72" gradientUnits="userSpaceOnUse">
<stop stop-color="#EAEAEA"/>
<stop offset="1" stop-color="#EDEDED"/>
</linearGradient>
<linearGradient id="paint70_linear_99_28" x1="357.939" y1="893.652" x2="64.197" y2="1259.07" gradientUnits="userSpaceOnUse">
<stop stop-color="white"/>
<stop offset="1" stop-color="white"/>
</linearGradient>
<linearGradient id="paint71_linear_99_28" x1="299.55" y1="1224.98" x2="170.56" y2="1252.98" gradientUnits="userSpaceOnUse">
<stop stop-color="#DBDBDB"/>
<stop offset="1" stop-color="#EAEAEA"/>
</linearGradient>
<linearGradient id="paint72_linear_99_28" x1="265.382" y1="1177.5" x2="-7.98599" y2="1388.71" gradientUnits="userSpaceOnUse">
<stop stop-color="#DDDDDD"/>
<stop offset="1" stop-color="#E8E8E8"/>
</linearGradient>
<linearGradient id="paint73_linear_99_28" x1="238.112" y1="1017.81" x2="20.9019" y2="1322.59" gradientUnits="userSpaceOnUse">
<stop stop-color="#F7F7F7"/>
<stop offset="1" stop-color="#F2F2F2"/>
</linearGradient>
<linearGradient id="paint74_linear_99_28" x1="451.62" y1="1100.82" x2="163.743" y2="1353.07" gradientUnits="userSpaceOnUse">
<stop stop-color="#F4F4F4"/>
<stop offset="1" stop-color="#E5E5E5"/>
</linearGradient>
<linearGradient id="paint75_linear_99_28" x1="570.083" y1="1060.64" x2="417.976" y2="1293.21" gradientUnits="userSpaceOnUse">
<stop stop-color="#EDEDED"/>
<stop offset="1" stop-color="white"/>
</linearGradient>
<linearGradient id="paint76_linear_99_28" x1="460.843" y1="853.549" x2="181.132" y2="1043.75" gradientUnits="userSpaceOnUse">
<stop stop-color="#FAFAFA"/>
<stop offset="1" stop-color="#E5E5E5"/>
</linearGradient>
<linearGradient id="paint77_linear_99_28" x1="674.19" y1="782.806" x2="558.383" y2="855.321" gradientUnits="userSpaceOnUse">
<stop stop-color="#D6D6D6"/>
<stop offset="1" stop-color="#FCFCFC"/>
</linearGradient>
<linearGradient id="paint78_linear_99_28" x1="681.408" y1="683.513" x2="538.632" y2="770.163" gradientUnits="userSpaceOnUse">
<stop stop-color="#BBBBBB"/>
<stop offset="1" stop-color="#D6D6D6"/>
</linearGradient>
<linearGradient id="paint79_linear_99_28" x1="646.519" y1="823.952" x2="501.005" y2="912.758" gradientUnits="userSpaceOnUse">
<stop stop-color="white"/>
<stop offset="1" stop-color="#FAFAFA"/>
</linearGradient>
<linearGradient id="paint80_linear_99_28" x1="620.533" y1="698.913" x2="412.719" y2="851.615" gradientUnits="userSpaceOnUse">
<stop stop-color="#CECECE"/>
<stop offset="1" stop-color="#D3D3D3"/>
</linearGradient>
<linearGradient id="paint81_linear_99_28" x1="609.865" y1="802.136" x2="446.286" y2="962.107" gradientUnits="userSpaceOnUse">
<stop stop-color="white"/>
<stop offset="1" stop-color="#E0E0E0"/>
</linearGradient>
<clipPath id="clip0_99_28">
<rect width="1548" height="1246" fill="white"/>
</clipPath>
</defs>
</svg>
