<svg width="1160" height="946" viewBox="0 0 1160 946" fill="none" xmlns="http://www.w3.org/2000/svg">
<path d="M201.016 279.442L230.772 29.3603L308.171 81.7346L201.016 279.442Z" fill="url(#paint0_linear_0_371)"/>
<path d="M230.771 29.3604L113.992 -40.98L196.203 -69.5333L230.771 29.3604Z" fill="url(#paint1_linear_0_371)"/>
<path d="M113.992 -40.98L-30.057 -86.216L-84.9177 196.108L113.992 -40.98Z" fill="url(#paint2_linear_0_371)"/>
<path d="M-101.601 361.652L-84.9182 196.108L18.7075 250.888L-101.601 361.652Z" fill="url(#paint3_linear_0_371)"/>
<path d="M201.015 279.442L230.771 29.3603L18.7075 250.888L201.015 279.442Z" fill="url(#paint4_linear_0_371)"/>
<path d="M-84.9177 196.108L113.992 -40.98L18.708 250.888L-84.9177 196.108Z" fill="url(#paint5_linear_0_371)"/>
<path d="M230.771 29.3604L113.992 -40.98L18.7075 250.888L230.771 29.3604Z" fill="url(#paint6_linear_0_371)"/>
<path d="M308.17 81.7345L230.771 29.3602L358.218 1.92987L308.17 81.7345Z" fill="url(#paint7_linear_0_371)"/>
<path d="M308.168 81.7345L478.525 -14.7529L358.217 1.92987L308.168 81.7345Z" fill="url(#paint8_linear_0_371)"/>
<path d="M230.771 29.3603L196.203 -69.5333L358.218 1.93002L230.771 29.3603Z" fill="url(#paint9_linear_0_371)"/>
<path d="M478.525 -14.7527L262.932 -156.476L358.217 1.93005L478.525 -14.7527Z" fill="url(#paint10_linear_0_371)"/>
<path d="M196.203 -69.5332L262.934 -156.476L358.218 1.93005L196.203 -69.5332Z" fill="url(#paint11_linear_0_371)"/>
<g style="mix-blend-mode:exclusion" opacity="0.1">
<path d="M201.016 279.442L230.772 29.3603L308.171 81.7346L201.016 279.442Z" fill="url(#paint12_linear_0_371)"/>
<path d="M230.771 29.3604L113.992 -40.98L196.203 -69.5333L230.771 29.3604Z" fill="url(#paint13_linear_0_371)"/>
<path d="M113.992 -40.98L-30.057 -86.216L-84.9177 196.108L113.992 -40.98Z" fill="url(#paint14_linear_0_371)"/>
<path d="M-101.601 361.652L-84.9182 196.108L18.7075 250.888L-101.601 361.652Z" fill="url(#paint15_linear_0_371)"/>
<path d="M201.015 279.442L230.771 29.3603L18.7075 250.888L201.015 279.442Z" fill="url(#paint16_linear_0_371)"/>
<path d="M-84.9177 196.108L113.992 -40.98L18.708 250.888L-84.9177 196.108Z" fill="url(#paint17_linear_0_371)"/>
<path d="M230.771 29.3604L113.992 -40.98L18.7075 250.888L230.771 29.3604Z" fill="url(#paint18_linear_0_371)"/>
<path d="M308.17 81.7345L230.771 29.3602L358.218 1.92987L308.17 81.7345Z" fill="url(#paint19_linear_0_371)"/>
<path d="M308.168 81.7345L478.525 -14.7529L358.217 1.92987L308.168 81.7345Z" fill="url(#paint20_linear_0_371)"/>
<path d="M230.771 29.3603L196.203 -69.5333L358.218 1.93002L230.771 29.3603Z" fill="url(#paint21_linear_0_371)"/>
<path d="M478.525 -14.7527L262.932 -156.476L358.217 1.93005L478.525 -14.7527Z" fill="url(#paint22_linear_0_371)"/>
<path d="M196.203 -69.5332L262.934 -156.476L358.218 1.93005L196.203 -69.5332Z" fill="url(#paint23_linear_0_371)"/>
</g>
<g style="mix-blend-mode:overlay">
<path d="M201.016 279.442L230.772 29.3603L308.171 81.7346L201.016 279.442Z" fill="#5FE0ED"/>
<path d="M230.771 29.3604L113.992 -40.98L196.203 -69.5333L230.771 29.3604Z" fill="#5FE0ED"/>
<path d="M113.992 -40.98L-30.057 -86.216L-84.9177 196.108L113.992 -40.98Z" fill="#5FE0ED"/>
<path d="M-101.601 361.652L-84.9182 196.108L18.7075 250.888L-101.601 361.652Z" fill="#5FE0ED"/>
<path d="M201.015 279.442L230.771 29.3603L18.7075 250.888L201.015 279.442Z" fill="#5FE0ED"/>
<path d="M-84.9177 196.108L113.992 -40.98L18.708 250.888L-84.9177 196.108Z" fill="#5FE0ED"/>
<path d="M230.771 29.3604L113.992 -40.98L18.7075 250.888L230.771 29.3604Z" fill="#5FE0ED"/>
<path d="M308.17 81.7345L230.771 29.3602L358.218 1.92987L308.17 81.7345Z" fill="#5FE0ED"/>
<path d="M308.168 81.7345L478.525 -14.7529L358.217 1.92987L308.168 81.7345Z" fill="#5FE0ED"/>
<path d="M230.771 29.3603L196.203 -69.5333L358.218 1.93002L230.771 29.3603Z" fill="#5FE0ED"/>
<path d="M478.525 -14.7527L262.932 -156.476L358.217 1.93005L478.525 -14.7527Z" fill="#5FE0ED"/>
<path d="M196.203 -69.5332L262.934 -156.476L358.218 1.93005L196.203 -69.5332Z" fill="#5FE0ED"/>
</g>
<defs>
<linearGradient id="paint0_linear_0_371" x1="299.669" y1="289.548" x2="120.398" y2="207.229" gradientUnits="userSpaceOnUse">
<stop stop-color="#E2E2E2"/>
<stop offset="1" stop-color="#FAFAFA"/>
</linearGradient>
<linearGradient id="paint1_linear_0_371" x1="239.113" y1="17.8909" x2="148.216" y2="-97.099" gradientUnits="userSpaceOnUse">
<stop stop-color="#F4F4F4"/>
<stop offset="1" stop-color="white"/>
</linearGradient>
<linearGradient id="paint2_linear_0_371" x1="103.967" y1="204.209" x2="-164.543" y2="15.0054" gradientUnits="userSpaceOnUse">
<stop stop-color="white"/>
<stop offset="1" stop-color="#F2F2F2"/>
</linearGradient>
<linearGradient id="paint3_linear_0_371" x1="10.1255" y1="374.566" x2="-148.924" y2="258.997" gradientUnits="userSpaceOnUse">
<stop stop-color="#F4F4F4"/>
<stop offset="1" stop-color="#BBBBBB"/>
</linearGradient>
<linearGradient id="paint4_linear_0_371" x1="238.952" y1="272.704" x2="-10.2819" y2="61.4488" gradientUnits="userSpaceOnUse">
<stop stop-color="#D8D8D8"/>
<stop offset="1" stop-color="#E0E0E0"/>
</linearGradient>
<linearGradient id="paint5_linear_0_371" x1="117.361" y1="236.692" x2="-145.32" y2="44.8504" gradientUnits="userSpaceOnUse">
<stop stop-color="#D1D1D1"/>
<stop offset="1" stop-color="#E8E8E8"/>
</linearGradient>
<linearGradient id="paint6_linear_0_371" x1="224.676" y1="275.993" x2="-55.6524" y2="72.3259" gradientUnits="userSpaceOnUse">
<stop stop-color="white"/>
<stop offset="1" stop-color="#FCFCFC"/>
</linearGradient>
<linearGradient id="paint7_linear_0_371" x1="376.986" y1="72.19" x2="304.472" y2="-43.617" gradientUnits="userSpaceOnUse">
<stop stop-color="#D6D6D6"/>
<stop offset="1" stop-color="#FCFCFC"/>
</linearGradient>
<linearGradient id="paint8_linear_0_371" x1="476.28" y1="79.4085" x2="389.63" y2="-63.368" gradientUnits="userSpaceOnUse">
<stop stop-color="#BBBBBB"/>
<stop offset="1" stop-color="#D6D6D6"/>
</linearGradient>
<linearGradient id="paint9_linear_0_371" x1="335.841" y1="44.5192" x2="247.034" y2="-100.995" gradientUnits="userSpaceOnUse">
<stop stop-color="white"/>
<stop offset="1" stop-color="#FAFAFA"/>
</linearGradient>
<linearGradient id="paint10_linear_0_371" x1="460.88" y1="18.5326" x2="308.177" y2="-189.281" gradientUnits="userSpaceOnUse">
<stop stop-color="#CECECE"/>
<stop offset="1" stop-color="#D3D3D3"/>
</linearGradient>
<linearGradient id="paint11_linear_0_371" x1="357.657" y1="7.86528" x2="197.686" y2="-155.714" gradientUnits="userSpaceOnUse">
<stop stop-color="white"/>
<stop offset="1" stop-color="#E0E0E0"/>
</linearGradient>
<linearGradient id="paint12_linear_0_371" x1="299.669" y1="289.548" x2="120.398" y2="207.229" gradientUnits="userSpaceOnUse">
<stop stop-color="#E2E2E2"/>
<stop offset="1" stop-color="#FAFAFA"/>
</linearGradient>
<linearGradient id="paint13_linear_0_371" x1="239.113" y1="17.8909" x2="148.216" y2="-97.099" gradientUnits="userSpaceOnUse">
<stop stop-color="#F4F4F4"/>
<stop offset="1" stop-color="white"/>
</linearGradient>
<linearGradient id="paint14_linear_0_371" x1="103.967" y1="204.209" x2="-164.543" y2="15.0054" gradientUnits="userSpaceOnUse">
<stop stop-color="white"/>
<stop offset="1" stop-color="#F2F2F2"/>
</linearGradient>
<linearGradient id="paint15_linear_0_371" x1="10.1255" y1="374.566" x2="-148.924" y2="258.997" gradientUnits="userSpaceOnUse">
<stop stop-color="#F4F4F4"/>
<stop offset="1" stop-color="#BBBBBB"/>
</linearGradient>
<linearGradient id="paint16_linear_0_371" x1="238.952" y1="272.704" x2="-10.2819" y2="61.4488" gradientUnits="userSpaceOnUse">
<stop stop-color="#D8D8D8"/>
<stop offset="1" stop-color="#E0E0E0"/>
</linearGradient>
<linearGradient id="paint17_linear_0_371" x1="117.361" y1="236.692" x2="-145.32" y2="44.8504" gradientUnits="userSpaceOnUse">
<stop stop-color="#D1D1D1"/>
<stop offset="1" stop-color="#E8E8E8"/>
</linearGradient>
<linearGradient id="paint18_linear_0_371" x1="224.676" y1="275.993" x2="-55.6524" y2="72.3259" gradientUnits="userSpaceOnUse">
<stop stop-color="white"/>
<stop offset="1" stop-color="#FCFCFC"/>
</linearGradient>
<linearGradient id="paint19_linear_0_371" x1="376.986" y1="72.19" x2="304.472" y2="-43.617" gradientUnits="userSpaceOnUse">
<stop stop-color="#D6D6D6"/>
<stop offset="1" stop-color="#FCFCFC"/>
</linearGradient>
<linearGradient id="paint20_linear_0_371" x1="476.28" y1="79.4085" x2="389.63" y2="-63.368" gradientUnits="userSpaceOnUse">
<stop stop-color="#BBBBBB"/>
<stop offset="1" stop-color="#D6D6D6"/>
</linearGradient>
<linearGradient id="paint21_linear_0_371" x1="335.841" y1="44.5192" x2="247.034" y2="-100.995" gradientUnits="userSpaceOnUse">
<stop stop-color="white"/>
<stop offset="1" stop-color="#FAFAFA"/>
</linearGradient>
<linearGradient id="paint22_linear_0_371" x1="460.88" y1="18.5326" x2="308.177" y2="-189.281" gradientUnits="userSpaceOnUse">
<stop stop-color="#CECECE"/>
<stop offset="1" stop-color="#D3D3D3"/>
</linearGradient>
<linearGradient id="paint23_linear_0_371" x1="357.657" y1="7.86528" x2="197.686" y2="-155.714" gradientUnits="userSpaceOnUse">
<stop stop-color="white"/>
<stop offset="1" stop-color="#E0E0E0"/>
</linearGradient>
</defs>
</svg>
