<svg width="2126" height="1352" viewBox="0 0 2126 1352" fill="none" xmlns="http://www.w3.org/2000/svg">
<path d="M1684.16 371.592L1632.99 501.445L1624.65 426.372L1684.16 371.592Z" fill="url(#paint0_linear_0_766)"/>
<path d="M1632.99 501.447L1603.15 413.301L1624.65 426.374L1632.99 501.447Z" fill="url(#paint1_linear_0_766)"/>
<path d="M1684.16 371.592L1632.99 501.445L2090.32 456.209L1684.16 371.592Z" fill="url(#paint2_linear_0_766)"/>
<path d="M2371.44 959.981L2121.36 930.224L2173.73 852.826L2371.44 959.981Z" fill="url(#paint3_linear_0_766)"/>
<path d="M1880.74 1567.46L1777.12 1473.38L2005.78 1191.05L1880.74 1567.46Z" fill="url(#paint4_linear_0_766)"/>
<path d="M2195.15 512.192L2090.32 456.209L2214.24 334.697L2195.15 512.192Z" fill="url(#paint5_linear_0_766)"/>
<path d="M1684.16 371.593L1675.82 95.2848L1952.21 256.097L1684.16 371.593Z" fill="url(#paint6_linear_0_766)"/>
<path d="M2236.86 115.495L2214.24 334.698L1952.21 256.096L2236.86 115.495Z" fill="url(#paint7_linear_0_766)"/>
<path d="M2236.86 115.495L2207.1 73.8687L1952.21 256.096L2236.86 115.495Z" fill="url(#paint8_linear_0_766)"/>
<path d="M2214.24 334.698L2090.32 456.209L1952.21 256.096L2214.24 334.698Z" fill="url(#paint9_linear_0_766)"/>
<path d="M2090.32 456.209L1684.16 371.592L1952.21 256.096L2090.32 456.209Z" fill="url(#paint10_linear_0_766)"/>
<path d="M2121.36 930.225L2051.02 1047L2022.47 964.794L2121.36 930.225Z" fill="url(#paint11_linear_0_766)"/>
<path d="M2051.02 1047L2002.17 977.867L2022.47 964.794L2051.02 1047Z" fill="url(#paint12_linear_0_766)"/>
<path d="M2002.17 977.869L1958.14 963.593L2022.47 964.796L2002.17 977.869Z" fill="url(#paint13_linear_0_766)"/>
<path d="M1958.14 963.59L1935.52 898.062L2022.47 964.793L1958.14 963.59Z" fill="url(#paint14_linear_0_766)"/>
<path d="M2108.21 1692.58L1880.74 1567.46L2239.26 1331.65L2108.21 1692.58Z" fill="url(#paint15_linear_0_766)"/>
<path d="M2005.78 1191.05L1880.74 1567.46L2239.26 1331.65L2005.78 1191.05Z" fill="url(#paint16_linear_0_766)"/>
<path d="M1632.99 501.447L1603.15 413.301L1501.93 539.544L1632.99 501.447Z" fill="url(#paint17_linear_0_766)"/>
<path d="M1632.99 501.445L1506.74 646.777L1501.93 539.542L1632.99 501.445Z" fill="url(#paint18_linear_0_766)"/>
<path d="M1603.15 413.3L1444.75 370.47L1501.93 539.544L1603.15 413.3Z" fill="url(#paint19_linear_0_766)"/>
<path d="M1506.74 646.779L1325.64 420.439L1501.93 539.544L1506.74 646.779Z" fill="url(#paint20_linear_0_766)"/>
<path d="M1444.75 370.47L1325.64 420.438L1501.93 539.544L1444.75 370.47Z" fill="url(#paint21_linear_0_766)"/>
<path d="M2239.26 1331.65L2005.78 1191.05L2288.11 1245.91L2239.26 1331.65Z" fill="url(#paint22_linear_0_766)"/>
<path d="M2051.02 1047L2005.78 1191.05L2288.11 1245.91L2051.02 1047Z" fill="url(#paint23_linear_0_766)"/>
<path d="M2195.15 512.193L2173.73 852.826L2077.25 682.469L2195.15 512.193Z" fill="url(#paint24_linear_0_766)"/>
<path d="M2195.15 512.194L2090.32 456.211L2077.25 682.471L2195.15 512.194Z" fill="url(#paint25_linear_0_766)"/>
<path d="M2090.32 456.211L1632.99 501.447L2077.25 682.471L2090.32 456.211Z" fill="url(#paint26_linear_0_766)"/>
<path d="M1538.91 1267.33L1435.28 1039.87L1120.79 1139.88L1538.91 1267.33Z" fill="url(#paint27_linear_0_766)"/>
<path d="M1538.91 1267.33L1131.54 1363.82L1120.79 1139.88L1538.91 1267.33Z" fill="url(#paint28_linear_0_766)"/>
<path d="M1131.54 1363.82L1021.98 1340L1120.79 1139.88L1131.54 1363.82Z" fill="url(#paint29_linear_0_766)"/>
<path d="M1120.79 1139.88L1104.11 1024.39L884.99 1292.36L1120.79 1139.88Z" fill="url(#paint30_linear_0_766)"/>
<path d="M1120.79 1139.88L1021.98 1340L884.99 1292.35L1120.79 1139.88Z" fill="url(#paint31_linear_0_766)"/>
<path d="M2239.26 1331.65L2108.21 1692.58L2345.21 1416.19L2239.26 1331.65Z" fill="url(#paint32_linear_0_766)"/>
<path d="M2051.02 1047.01L2005.78 1191.06L1956.94 1026.71L2051.02 1047.01Z" fill="url(#paint33_linear_0_766)"/>
<path d="M2051.02 1047.01L2002.17 977.868L1956.94 1026.71L2051.02 1047.01Z" fill="url(#paint34_linear_0_766)"/>
<path d="M2002.17 977.869L1958.14 963.593L1956.94 1026.71L2002.17 977.869Z" fill="url(#paint35_linear_0_766)"/>
<path d="M1035.05 1510.35L1021.98 1340L883.787 1493.67L1035.05 1510.35Z" fill="url(#paint36_linear_0_766)"/>
<path d="M1021.98 1340L884.99 1292.35L883.787 1493.67L1021.98 1340Z" fill="url(#paint37_linear_0_766)"/>
<path d="M884.99 1292.35L836.144 1278.08L883.786 1493.67L884.99 1292.35Z" fill="url(#paint38_linear_0_766)"/>
<path d="M1684.16 371.592L1624.65 426.372L1643.74 384.745L1684.16 371.592Z" fill="url(#paint39_linear_0_766)"/>
<path d="M1624.65 426.375L1603.15 413.301L1643.74 384.748L1624.65 426.375Z" fill="url(#paint40_linear_0_766)"/>
<path d="M1603.15 413.3L1444.75 370.47L1643.74 384.747L1603.15 413.3Z" fill="url(#paint41_linear_0_766)"/>
<path d="M2077.25 682.471L1935.52 898.064L1805.67 868.308L2077.25 682.471Z" fill="url(#paint42_linear_0_766)"/>
<path d="M1958.14 963.592L1956.94 1026.71L1805.67 868.308L1958.14 963.592Z" fill="url(#paint43_linear_0_766)"/>
<path d="M1958.14 963.592L1935.52 898.064L1805.67 868.308L1958.14 963.592Z" fill="url(#paint44_linear_0_766)"/>
<path d="M1805.67 868.308L1435.28 1039.87L1652 762.276L1805.67 868.308Z" fill="url(#paint45_linear_0_766)"/>
<path d="M1632.99 501.445L1506.74 646.777L1652 762.273L1632.99 501.445Z" fill="url(#paint46_linear_0_766)"/>
<path d="M2077.25 682.471L1805.67 868.308L1652 762.276L2077.25 682.471Z" fill="url(#paint47_linear_0_766)"/>
<path d="M2077.25 682.469L1632.99 501.445L1652 762.273L2077.25 682.469Z" fill="url(#paint48_linear_0_766)"/>
<path d="M2371.44 959.982L2121.36 930.225L2342.89 1142.29L2371.44 959.982Z" fill="url(#paint49_linear_0_766)"/>
<path d="M2288.11 1245.91L2051.02 1047L2342.89 1142.29L2288.11 1245.91Z" fill="url(#paint50_linear_0_766)"/>
<path d="M2121.36 930.225L2051.02 1047L2342.89 1142.29L2121.36 930.225Z" fill="url(#paint51_linear_0_766)"/>
<path d="M1131.54 1363.82L1021.98 1340L1105.31 1486.53L1131.54 1363.82Z" fill="url(#paint52_linear_0_766)"/>
<path d="M1035.05 1510.35L1021.98 1340L1105.31 1486.53L1035.05 1510.35Z" fill="url(#paint53_linear_0_766)"/>
<path d="M2604.92 4.73213L2207.1 73.8694L1784.26 0L2604.92 4.73213Z" fill="url(#paint54_linear_0_766)"/>
<path d="M2207.1 73.8694L1952.21 256.097L1784.26 0L2207.1 73.8694Z" fill="url(#paint55_linear_0_766)"/>
<path d="M1952.21 256.097L1675.82 95.2843L1784.26 0L1952.21 256.097Z" fill="url(#paint56_linear_0_766)"/>
<path d="M1652 762.274L1506.74 646.778L1342.32 910.013L1652 762.274Z" fill="url(#paint57_linear_0_766)"/>
<path d="M1652 762.276L1435.28 1039.87L1342.32 910.015L1652 762.276Z" fill="url(#paint58_linear_0_766)"/>
<path d="M1506.74 646.779L1325.64 420.439L1342.32 910.014L1506.74 646.779Z" fill="url(#paint59_linear_0_766)"/>
<path d="M1435.28 1039.87L1120.79 1139.88L1342.32 910.014L1435.28 1039.87Z" fill="url(#paint60_linear_0_766)"/>
<path d="M1120.79 1139.88L1104.11 1024.39L1342.32 910.014L1120.79 1139.88Z" fill="url(#paint61_linear_0_766)"/>
<path d="M1805.67 868.308L1435.28 1039.87L1754.5 1166.11L1805.67 868.308Z" fill="url(#paint62_linear_0_766)"/>
<path d="M1777.12 1473.38L1705.65 1465.04L1754.5 1166.11L1777.12 1473.38Z" fill="url(#paint63_linear_0_766)"/>
<path d="M1705.65 1465.04L1538.91 1267.33L1754.5 1166.11L1705.65 1465.04Z" fill="url(#paint64_linear_0_766)"/>
<path d="M1538.91 1267.33L1435.28 1039.87L1754.5 1166.11L1538.91 1267.33Z" fill="url(#paint65_linear_0_766)"/>
<path d="M2005.78 1191.05L1777.12 1473.38L1754.5 1166.11L2005.78 1191.05Z" fill="url(#paint66_linear_0_766)"/>
<path d="M2005.78 1191.06L1956.94 1026.71L1754.5 1166.11L2005.78 1191.06Z" fill="url(#paint67_linear_0_766)"/>
<path d="M1956.94 1026.71L1805.67 868.308L1754.5 1166.11L1956.94 1026.71Z" fill="url(#paint68_linear_0_766)"/>
<path d="M2173.73 852.827L2121.36 930.225L2093.93 802.778L2173.73 852.827Z" fill="url(#paint69_linear_0_766)"/>
<path d="M2173.73 852.828L2077.25 682.471L2093.93 802.78L2173.73 852.828Z" fill="url(#paint70_linear_0_766)"/>
<path d="M2121.36 930.225L2022.47 964.794L2093.93 802.778L2121.36 930.225Z" fill="url(#paint71_linear_0_766)"/>
<path d="M2077.25 682.471L1935.52 898.064L2093.93 802.78L2077.25 682.471Z" fill="url(#paint72_linear_0_766)"/>
<path d="M2022.47 964.794L1935.52 898.063L2093.93 802.778L2022.47 964.794Z" fill="url(#paint73_linear_0_766)"/>
<path d="M1705.65 1465.04L1538.91 1267.33L1448.35 1548.45L1705.65 1465.04Z" fill="url(#paint74_linear_0_766)"/>
<path d="M1538.91 1267.33L1131.54 1363.82L1448.35 1548.45L1538.91 1267.33Z" fill="url(#paint75_linear_0_766)"/>
<g style="mix-blend-mode:overlay">
<path d="M1684.16 371.592L1632.99 501.445L1624.65 426.372L1684.16 371.592Z" fill="#E04B9D"/>
<path d="M1632.99 501.447L1603.15 413.301L1624.65 426.374L1632.99 501.447Z" fill="#E04B9D"/>
<path d="M1684.16 371.592L1632.99 501.445L2090.32 456.209L1684.16 371.592Z" fill="#E04B9D"/>
<path d="M2371.44 959.981L2121.36 930.224L2173.73 852.826L2371.44 959.981Z" fill="#E04B9D"/>
<path d="M1880.74 1567.46L1777.12 1473.38L2005.78 1191.05L1880.74 1567.46Z" fill="#E04B9D"/>
<path d="M2195.15 512.192L2090.32 456.209L2214.24 334.697L2195.15 512.192Z" fill="#E04B9D"/>
<path d="M1684.16 371.593L1675.82 95.2848L1952.21 256.097L1684.16 371.593Z" fill="#E04B9D"/>
<path d="M2236.86 115.495L2214.24 334.698L1952.21 256.096L2236.86 115.495Z" fill="#E04B9D"/>
<path d="M2236.86 115.495L2207.1 73.8687L1952.21 256.096L2236.86 115.495Z" fill="#E04B9D"/>
<path d="M2214.24 334.698L2090.32 456.209L1952.21 256.096L2214.24 334.698Z" fill="#E04B9D"/>
<path d="M2090.32 456.209L1684.16 371.592L1952.21 256.096L2090.32 456.209Z" fill="#E04B9D"/>
<path d="M2121.36 930.225L2051.02 1047L2022.47 964.794L2121.36 930.225Z" fill="#E04B9D"/>
<path d="M2051.02 1047L2002.17 977.867L2022.47 964.794L2051.02 1047Z" fill="#E04B9D"/>
<path d="M2002.17 977.869L1958.14 963.593L2022.47 964.796L2002.17 977.869Z" fill="#E04B9D"/>
<path d="M1958.14 963.59L1935.52 898.062L2022.47 964.793L1958.14 963.59Z" fill="#E04B9D"/>
<path d="M2108.21 1692.58L1880.74 1567.46L2239.26 1331.65L2108.21 1692.58Z" fill="#E04B9D"/>
<path d="M2005.78 1191.05L1880.74 1567.46L2239.26 1331.65L2005.78 1191.05Z" fill="#E04B9D"/>
<path d="M1632.99 501.447L1603.15 413.301L1501.93 539.544L1632.99 501.447Z" fill="#E04B9D"/>
<path d="M1632.99 501.445L1506.74 646.777L1501.93 539.542L1632.99 501.445Z" fill="#E04B9D"/>
<path d="M1603.15 413.3L1444.75 370.47L1501.93 539.544L1603.15 413.3Z" fill="#E04B9D"/>
<path d="M1506.74 646.779L1325.64 420.439L1501.93 539.544L1506.74 646.779Z" fill="#E04B9D"/>
<path d="M1444.75 370.47L1325.64 420.438L1501.93 539.544L1444.75 370.47Z" fill="#E04B9D"/>
<path d="M2239.26 1331.65L2005.78 1191.05L2288.11 1245.91L2239.26 1331.65Z" fill="#E04B9D"/>
<path d="M2051.02 1047L2005.78 1191.05L2288.11 1245.91L2051.02 1047Z" fill="#E04B9D"/>
<path d="M2195.15 512.193L2173.73 852.826L2077.25 682.469L2195.15 512.193Z" fill="#E04B9D"/>
<path d="M2195.15 512.194L2090.32 456.211L2077.25 682.471L2195.15 512.194Z" fill="#E04B9D"/>
<path d="M2090.32 456.211L1632.99 501.447L2077.25 682.471L2090.32 456.211Z" fill="#E04B9D"/>
<path d="M1538.91 1267.33L1435.28 1039.87L1120.79 1139.88L1538.91 1267.33Z" fill="#E04B9D"/>
<path d="M1538.91 1267.33L1131.54 1363.82L1120.79 1139.88L1538.91 1267.33Z" fill="#E04B9D"/>
<path d="M1131.54 1363.82L1021.98 1340L1120.79 1139.88L1131.54 1363.82Z" fill="#E04B9D"/>
<path d="M1120.79 1139.88L1104.11 1024.39L884.99 1292.36L1120.79 1139.88Z" fill="#E04B9D"/>
<path d="M1120.79 1139.88L1021.98 1340L884.99 1292.35L1120.79 1139.88Z" fill="#E04B9D"/>
<path d="M2239.26 1331.65L2108.21 1692.58L2345.21 1416.19L2239.26 1331.65Z" fill="#E04B9D"/>
<path d="M2051.02 1047.01L2005.78 1191.06L1956.94 1026.71L2051.02 1047.01Z" fill="#E04B9D"/>
<path d="M2051.02 1047.01L2002.17 977.868L1956.94 1026.71L2051.02 1047.01Z" fill="#E04B9D"/>
<path d="M2002.17 977.869L1958.14 963.593L1956.94 1026.71L2002.17 977.869Z" fill="#E04B9D"/>
<path d="M1035.05 1510.35L1021.98 1340L883.787 1493.67L1035.05 1510.35Z" fill="#E04B9D"/>
<path d="M1021.98 1340L884.99 1292.35L883.787 1493.67L1021.98 1340Z" fill="#E04B9D"/>
<path d="M884.99 1292.35L836.144 1278.08L883.786 1493.67L884.99 1292.35Z" fill="#E04B9D"/>
<path d="M1684.16 371.592L1624.65 426.372L1643.74 384.745L1684.16 371.592Z" fill="#E04B9D"/>
<path d="M1624.65 426.375L1603.15 413.301L1643.74 384.748L1624.65 426.375Z" fill="#E04B9D"/>
<path d="M1603.15 413.3L1444.75 370.47L1643.74 384.747L1603.15 413.3Z" fill="#E04B9D"/>
<path d="M2077.25 682.471L1935.52 898.064L1805.67 868.308L2077.25 682.471Z" fill="#E04B9D"/>
<path d="M1958.14 963.592L1956.94 1026.71L1805.67 868.308L1958.14 963.592Z" fill="#E04B9D"/>
<path d="M1958.14 963.592L1935.52 898.064L1805.67 868.308L1958.14 963.592Z" fill="#E04B9D"/>
<path d="M1805.67 868.308L1435.28 1039.87L1652 762.276L1805.67 868.308Z" fill="#E04B9D"/>
<path d="M1632.99 501.445L1506.74 646.777L1652 762.273L1632.99 501.445Z" fill="#E04B9D"/>
<path d="M2077.25 682.471L1805.67 868.308L1652 762.276L2077.25 682.471Z" fill="#E04B9D"/>
<path d="M2077.25 682.469L1632.99 501.445L1652 762.273L2077.25 682.469Z" fill="#E04B9D"/>
<path d="M2371.44 959.982L2121.36 930.225L2342.89 1142.29L2371.44 959.982Z" fill="#E04B9D"/>
<path d="M2288.11 1245.91L2051.02 1047L2342.89 1142.29L2288.11 1245.91Z" fill="#E04B9D"/>
<path d="M2121.36 930.225L2051.02 1047L2342.89 1142.29L2121.36 930.225Z" fill="#E04B9D"/>
<path d="M1131.54 1363.82L1021.98 1340L1105.31 1486.53L1131.54 1363.82Z" fill="#E04B9D"/>
<path d="M1035.05 1510.35L1021.98 1340L1105.31 1486.53L1035.05 1510.35Z" fill="#E04B9D"/>
<path d="M2604.92 4.73213L2207.1 73.8694L1784.26 0L2604.92 4.73213Z" fill="#E04B9D"/>
<path d="M2207.1 73.8694L1952.21 256.097L1784.26 0L2207.1 73.8694Z" fill="#E04B9D"/>
<path d="M1952.21 256.097L1675.82 95.2843L1784.26 0L1952.21 256.097Z" fill="#E04B9D"/>
<path d="M1652 762.274L1506.74 646.778L1342.32 910.013L1652 762.274Z" fill="#E04B9D"/>
<path d="M1652 762.276L1435.28 1039.87L1342.32 910.015L1652 762.276Z" fill="#E04B9D"/>
<path d="M1506.74 646.779L1325.64 420.439L1342.32 910.014L1506.74 646.779Z" fill="#E04B9D"/>
<path d="M1435.28 1039.87L1120.79 1139.88L1342.32 910.014L1435.28 1039.87Z" fill="#E04B9D"/>
<path d="M1120.79 1139.88L1104.11 1024.39L1342.32 910.014L1120.79 1139.88Z" fill="#E04B9D"/>
<path d="M1805.67 868.308L1435.28 1039.87L1754.5 1166.11L1805.67 868.308Z" fill="#E04B9D"/>
<path d="M1777.12 1473.38L1705.65 1465.04L1754.5 1166.11L1777.12 1473.38Z" fill="#E04B9D"/>
<path d="M1705.65 1465.04L1538.91 1267.33L1754.5 1166.11L1705.65 1465.04Z" fill="#E04B9D"/>
<path d="M1538.91 1267.33L1435.28 1039.87L1754.5 1166.11L1538.91 1267.33Z" fill="#E04B9D"/>
<path d="M2005.78 1191.05L1777.12 1473.38L1754.5 1166.11L2005.78 1191.05Z" fill="#E04B9D"/>
<path d="M2005.78 1191.06L1956.94 1026.71L1754.5 1166.11L2005.78 1191.06Z" fill="#E04B9D"/>
<path d="M1956.94 1026.71L1805.67 868.308L1754.5 1166.11L1956.94 1026.71Z" fill="#E04B9D"/>
<path d="M2173.73 852.827L2121.36 930.225L2093.93 802.778L2173.73 852.827Z" fill="#E04B9D"/>
<path d="M2173.73 852.828L2077.25 682.471L2093.93 802.78L2173.73 852.828Z" fill="#E04B9D"/>
<path d="M2121.36 930.225L2022.47 964.794L2093.93 802.778L2121.36 930.225Z" fill="#E04B9D"/>
<path d="M2077.25 682.471L1935.52 898.064L2093.93 802.78L2077.25 682.471Z" fill="#E04B9D"/>
<path d="M2022.47 964.794L1935.52 898.063L2093.93 802.778L2022.47 964.794Z" fill="#E04B9D"/>
<path d="M1705.65 1465.04L1538.91 1267.33L1448.35 1548.45L1705.65 1465.04Z" fill="#E04B9D"/>
<path d="M1538.91 1267.33L1131.54 1363.82L1448.35 1548.45L1538.91 1267.33Z" fill="#E04B9D"/>
</g>
<defs>
<linearGradient id="paint0_linear_0_766" x1="1678.22" y1="357.556" x2="1578.83" y2="403.149" gradientUnits="userSpaceOnUse">
<stop stop-color="white"/>
<stop offset="1" stop-color="white"/>
</linearGradient>
<linearGradient id="paint1_linear_0_766" x1="1632.67" y1="413.221" x2="1578.68" y2="431.461" gradientUnits="userSpaceOnUse">
<stop stop-color="white"/>
<stop offset="1" stop-color="white"/>
</linearGradient>
<linearGradient id="paint2_linear_0_766" x1="2056.79" y1="366.298" x2="1987.9" y2="609.014" gradientUnits="userSpaceOnUse">
<stop stop-color="#FCFCFC"/>
<stop offset="1" stop-color="#EDEDED"/>
</linearGradient>
<linearGradient id="paint3_linear_0_766" x1="2381.55" y1="861.328" x2="2299.23" y2="1040.6" gradientUnits="userSpaceOnUse">
<stop stop-color="#E2E2E2"/>
<stop offset="1" stop-color="#FAFAFA"/>
</linearGradient>
<linearGradient id="paint4_linear_0_766" x1="2014.93" y1="1213.75" x2="1677.51" y2="1418.77" gradientUnits="userSpaceOnUse">
<stop stop-color="#FCFCFC"/>
<stop offset="1" stop-color="white"/>
</linearGradient>
<linearGradient id="paint5_linear_0_766" x1="2233.89" y1="360.363" x2="2065.62" y2="477.81" gradientUnits="userSpaceOnUse">
<stop stop-color="#C5C5C5"/>
<stop offset="1" stop-color="#C0C0C0"/>
</linearGradient>
<linearGradient id="paint6_linear_0_766" x1="1921.97" y1="57.1871" x2="1642.85" y2="336.303" gradientUnits="userSpaceOnUse">
<stop stop-color="#EFEFEF"/>
<stop offset="1" stop-color="#E0E0E0"/>
</linearGradient>
<linearGradient id="paint7_linear_0_766" x1="2277.04" y1="149.182" x2="2063.03" y2="427.158" gradientUnits="userSpaceOnUse">
<stop stop-color="#E0E0E0"/>
<stop offset="1" stop-color="#D8D8D8"/>
</linearGradient>
<linearGradient id="paint8_linear_0_766" x1="2238.7" y1="78.8414" x2="2087.05" y2="332.652" gradientUnits="userSpaceOnUse">
<stop stop-color="#F4F4F4"/>
<stop offset="1" stop-color="#F4F4F4"/>
</linearGradient>
<linearGradient id="paint9_linear_0_766" x1="2184" y1="237.488" x2="1985.41" y2="480.207" gradientUnits="userSpaceOnUse">
<stop stop-color="#E0E0E0"/>
<stop offset="1" stop-color="#CCCCCC"/>
</linearGradient>
<linearGradient id="paint10_linear_0_766" x1="2146.71" y1="291.387" x2="1979.43" y2="608.286" gradientUnits="userSpaceOnUse">
<stop stop-color="#C9C9C9"/>
<stop offset="1" stop-color="#EDEDED"/>
</linearGradient>
<linearGradient id="paint11_linear_0_766" x1="2109.89" y1="921.884" x2="1994.9" y2="1012.78" gradientUnits="userSpaceOnUse">
<stop stop-color="#F4F4F4"/>
<stop offset="1" stop-color="white"/>
</linearGradient>
<linearGradient id="paint12_linear_0_766" x1="2052.86" y1="967.521" x2="1979.95" y2="1010.84" gradientUnits="userSpaceOnUse">
<stop stop-color="white"/>
<stop offset="1" stop-color="white"/>
</linearGradient>
<linearGradient id="paint13_linear_0_766" x1="2017.41" y1="962.47" x2="2011.3" y2="989.985" gradientUnits="userSpaceOnUse">
<stop stop-color="#D1D1D1"/>
<stop offset="1" stop-color="#EDEDED"/>
</linearGradient>
<linearGradient id="paint14_linear_0_766" x1="2019.58" y1="898.463" x2="1959.91" y2="981.803" gradientUnits="userSpaceOnUse">
<stop stop-color="#EFEFEF"/>
<stop offset="1" stop-color="#E0E0E0"/>
</linearGradient>
<linearGradient id="paint15_linear_0_766" x1="2263" y1="1367.83" x2="1898.64" y2="1705.65" gradientUnits="userSpaceOnUse">
<stop stop-color="#AFAFAF"/>
<stop offset="1" stop-color="#D8D8D8"/>
</linearGradient>
<linearGradient id="paint16_linear_0_766" x1="2214.72" y1="1163.06" x2="1834.99" y2="1524.76" gradientUnits="userSpaceOnUse">
<stop stop-color="white"/>
<stop offset="1" stop-color="#FCFCFC"/>
</linearGradient>
<linearGradient id="paint17_linear_0_766" x1="1651.36" y1="426.134" x2="1523.92" y2="558.382" gradientUnits="userSpaceOnUse">
<stop stop-color="white"/>
<stop offset="1" stop-color="#EDEDED"/>
</linearGradient>
<linearGradient id="paint18_linear_0_766" x1="1607.24" y1="474.335" x2="1461.25" y2="605.968" gradientUnits="userSpaceOnUse">
<stop stop-color="#EDEDED"/>
<stop offset="1" stop-color="#AFAFAF"/>
</linearGradient>
<linearGradient id="paint19_linear_0_766" x1="1579.57" y1="347.611" x2="1409.86" y2="495.967" gradientUnits="userSpaceOnUse">
<stop stop-color="white"/>
<stop offset="1" stop-color="#E0E0E0"/>
</linearGradient>
<linearGradient id="paint20_linear_0_766" x1="1504.02" y1="417.551" x2="1281.01" y2="595.96" gradientUnits="userSpaceOnUse">
<stop stop-color="#9B9B9B"/>
<stop offset="1" stop-color="#C0C0C0"/>
</linearGradient>
<linearGradient id="paint21_linear_0_766" x1="1520.46" y1="381.779" x2="1349.77" y2="559.683" gradientUnits="userSpaceOnUse">
<stop stop-color="#D8D8D8"/>
<stop offset="1" stop-color="#D3D3D3"/>
</linearGradient>
<linearGradient id="paint22_linear_0_766" x1="2277.2" y1="1186.8" x2="2163.92" y2="1414.33" gradientUnits="userSpaceOnUse">
<stop stop-color="#FAFAFA"/>
<stop offset="1" stop-color="#D6D6D6"/>
</linearGradient>
<linearGradient id="paint23_linear_0_766" x1="2296.21" y1="1057.03" x2="2107.01" y2="1325.54" gradientUnits="userSpaceOnUse">
<stop stop-color="white"/>
<stop offset="1" stop-color="#F2F2F2"/>
</linearGradient>
<linearGradient id="paint24_linear_0_766" x1="2206.46" y1="543.393" x2="1993.74" y2="617.027" gradientUnits="userSpaceOnUse">
<stop stop-color="#B9B9B9"/>
<stop offset="1" stop-color="#C5C5C5"/>
</linearGradient>
<linearGradient id="paint25_linear_0_766" x1="2174.7" y1="414.344" x2="1987.35" y2="511.961" gradientUnits="userSpaceOnUse">
<stop stop-color="#B4B4B4"/>
<stop offset="1" stop-color="#BBBBBB"/>
</linearGradient>
<linearGradient id="paint26_linear_0_766" x1="2118.39" y1="460.061" x2="1936.68" y2="827.321" gradientUnits="userSpaceOnUse">
<stop stop-color="#A4A4A4"/>
<stop offset="1" stop-color="#E0E0E0"/>
</linearGradient>
<linearGradient id="paint27_linear_0_766" x1="1574.44" y1="1064.97" x2="1400.85" y2="1406.77" gradientUnits="userSpaceOnUse">
<stop stop-color="#E8E8E8"/>
<stop offset="1" stop-color="#E8E8E8"/>
</linearGradient>
<linearGradient id="paint28_linear_0_766" x1="1489.98" y1="1115.1" x2="1301.7" y2="1466.62" gradientUnits="userSpaceOnUse">
<stop stop-color="#E0E0E0"/>
<stop offset="1" stop-color="#D3D3D3"/>
</linearGradient>
<linearGradient id="paint29_linear_0_766" x1="1155.52" y1="1190.49" x2="976.926" y2="1277.89" gradientUnits="userSpaceOnUse">
<stop stop-color="#C9C9C9"/>
<stop offset="1" stop-color="#DDDDDD"/>
</linearGradient>
<linearGradient id="paint30_linear_0_766" x1="1147.42" y1="1041.87" x2="878.925" y2="1278.15" gradientUnits="userSpaceOnUse">
<stop stop-color="white"/>
<stop offset="1" stop-color="#E5E5E5"/>
</linearGradient>
<linearGradient id="paint31_linear_0_766" x1="1147.42" y1="1162.74" x2="945.74" y2="1384.59" gradientUnits="userSpaceOnUse">
<stop stop-color="#E0E0E0"/>
<stop offset="1" stop-color="#C0C0C0"/>
</linearGradient>
<linearGradient id="paint32_linear_0_766" x1="2335.27" y1="1319.22" x2="2000.74" y2="1538.93" gradientUnits="userSpaceOnUse">
<stop stop-color="#FAFAFA"/>
<stop offset="1" stop-color="#B6B6B6"/>
</linearGradient>
<linearGradient id="paint33_linear_0_766" x1="2040.35" y1="1006.5" x2="1897.18" y2="1088.46" gradientUnits="userSpaceOnUse">
<stop stop-color="white"/>
<stop offset="1" stop-color="white"/>
</linearGradient>
<linearGradient id="paint34_linear_0_766" x1="2059.36" y1="985.487" x2="1998.48" y2="1074.33" gradientUnits="userSpaceOnUse">
<stop stop-color="white"/>
<stop offset="1" stop-color="white"/>
</linearGradient>
<linearGradient id="paint35_linear_0_766" x1="1993.19" y1="953.406" x2="1934.11" y2="992.944" gradientUnits="userSpaceOnUse">
<stop stop-color="white"/>
<stop offset="1" stop-color="white"/>
</linearGradient>
<linearGradient id="paint36_linear_0_766" x1="1071.87" y1="1373.04" x2="901.032" y2="1524.76" gradientUnits="userSpaceOnUse">
<stop stop-color="#AFAFAF"/>
<stop offset="1" stop-color="#B9B9B9"/>
</linearGradient>
<linearGradient id="paint37_linear_0_766" x1="991.423" y1="1256.98" x2="809.846" y2="1390.52" gradientUnits="userSpaceOnUse">
<stop stop-color="#B6B6B6"/>
<stop offset="1" stop-color="#AFAFAF"/>
</linearGradient>
<linearGradient id="paint38_linear_0_766" x1="886.112" y1="1269.82" x2="792.274" y2="1291.07" gradientUnits="userSpaceOnUse">
<stop stop-color="#B6B6B6"/>
<stop offset="1" stop-color="#B4B4B4"/>
</linearGradient>
<linearGradient id="paint39_linear_0_766" x1="1678.22" y1="364.533" x2="1623.07" y2="424.479" gradientUnits="userSpaceOnUse">
<stop stop-color="white"/>
<stop offset="1" stop-color="white"/>
</linearGradient>
<linearGradient id="paint40_linear_0_766" x1="1646.78" y1="386.272" x2="1604.69" y2="427.16" gradientUnits="userSpaceOnUse">
<stop stop-color="white"/>
<stop offset="1" stop-color="white"/>
</linearGradient>
<linearGradient id="paint41_linear_0_766" x1="1630.18" y1="368.946" x2="1612.34" y2="451.722" gradientUnits="userSpaceOnUse">
<stop stop-color="white"/>
<stop offset="1" stop-color="white"/>
</linearGradient>
<linearGradient id="paint42_linear_0_766" x1="2107.48" y1="700.116" x2="1895.4" y2="967.27" gradientUnits="userSpaceOnUse">
<stop stop-color="#EAEAEA"/>
<stop offset="1" stop-color="#E5E5E5"/>
</linearGradient>
<linearGradient id="paint43_linear_0_766" x1="1962.31" y1="865.501" x2="1802.42" y2="1019.38" gradientUnits="userSpaceOnUse">
<stop stop-color="#E5E5E5"/>
<stop offset="1" stop-color="#F4F4F4"/>
</linearGradient>
<linearGradient id="paint44_linear_0_766" x1="1962.31" y1="871.195" x2="1873.11" y2="1004.41" gradientUnits="userSpaceOnUse">
<stop stop-color="white"/>
<stop offset="1" stop-color="#E2E2E2"/>
</linearGradient>
<linearGradient id="paint45_linear_0_766" x1="1798.05" y1="762.998" x2="1529.03" y2="1122.08" gradientUnits="userSpaceOnUse">
<stop stop-color="#EDEDED"/>
<stop offset="1" stop-color="#EAEAEA"/>
</linearGradient>
<linearGradient id="paint46_linear_0_766" x1="1673.57" y1="545.317" x2="1457.38" y2="657.723" gradientUnits="userSpaceOnUse">
<stop stop-color="#EDEDED"/>
<stop offset="1" stop-color="#BDBDBD"/>
</linearGradient>
<linearGradient id="paint47_linear_0_766" x1="2048.05" y1="676.055" x2="1910.33" y2="991.235" gradientUnits="userSpaceOnUse">
<stop stop-color="#D3D3D3"/>
<stop offset="1" stop-color="#E5E5E5"/>
</linearGradient>
<linearGradient id="paint48_linear_0_766" x1="2052.14" y1="475.057" x2="1822.07" y2="866.923" gradientUnits="userSpaceOnUse">
<stop stop-color="#CECECE"/>
<stop offset="1" stop-color="#F4F4F4"/>
</linearGradient>
<linearGradient id="paint49_linear_0_766" x1="2364.7" y1="922.044" x2="2153.45" y2="1171.28" gradientUnits="userSpaceOnUse">
<stop stop-color="#D8D8D8"/>
<stop offset="1" stop-color="#E0E0E0"/>
</linearGradient>
<linearGradient id="paint50_linear_0_766" x1="2328.69" y1="1043.64" x2="2136.85" y2="1306.32" gradientUnits="userSpaceOnUse">
<stop stop-color="#D1D1D1"/>
<stop offset="1" stop-color="#E8E8E8"/>
</linearGradient>
<linearGradient id="paint51_linear_0_766" x1="2367.99" y1="936.321" x2="2164.33" y2="1216.65" gradientUnits="userSpaceOnUse">
<stop stop-color="white"/>
<stop offset="1" stop-color="#FCFCFC"/>
</linearGradient>
<linearGradient id="paint52_linear_0_766" x1="1126.01" y1="1332.38" x2="984.056" y2="1438.55" gradientUnits="userSpaceOnUse">
<stop stop-color="#AFAFAF"/>
<stop offset="1" stop-color="#BBBBBB"/>
</linearGradient>
<linearGradient id="paint53_linear_0_766" x1="1101.14" y1="1338.63" x2="970.779" y2="1398.19" gradientUnits="userSpaceOnUse">
<stop stop-color="#A8A8A8"/>
<stop offset="1" stop-color="#BBBBBB"/>
</linearGradient>
<linearGradient id="paint54_linear_0_766" x1="2489.83" y1="-9.14345" x2="2476.51" y2="138.841" gradientUnits="userSpaceOnUse">
<stop stop-color="white"/>
<stop offset="1" stop-color="white"/>
</linearGradient>
<linearGradient id="paint55_linear_0_766" x1="2134.27" y1="-30.6386" x2="1897.49" y2="334.27" gradientUnits="userSpaceOnUse">
<stop stop-color="white"/>
<stop offset="1" stop-color="#F2F2F2"/>
</linearGradient>
<linearGradient id="paint56_linear_0_766" x1="1977.79" y1="21.0941" x2="1719.88" y2="299.404" gradientUnits="userSpaceOnUse">
<stop stop-color="#E2E2E2"/>
<stop offset="1" stop-color="#F7F7F7"/>
</linearGradient>
<linearGradient id="paint57_linear_0_766" x1="1652.24" y1="651.67" x2="1386.88" y2="943.039" gradientUnits="userSpaceOnUse">
<stop stop-color="#D6D6D6"/>
<stop offset="1" stop-color="#C7C7C7"/>
</linearGradient>
<linearGradient id="paint58_linear_0_766" x1="1631.38" y1="744.31" x2="1373.26" y2="1052.92" gradientUnits="userSpaceOnUse">
<stop stop-color="#EAEAEA"/>
<stop offset="1" stop-color="#EDEDED"/>
</linearGradient>
<linearGradient id="paint59_linear_0_766" x1="1479.63" y1="348.414" x2="1157.9" y2="467.401" gradientUnits="userSpaceOnUse">
<stop stop-color="#A2A2A2"/>
<stop offset="1" stop-color="#DDDDDD"/>
</linearGradient>
<linearGradient id="paint60_linear_0_766" x1="1447.79" y1="928.06" x2="1245.52" y2="1224.51" gradientUnits="userSpaceOnUse">
<stop stop-color="#F2F2F2"/>
<stop offset="1" stop-color="white"/>
</linearGradient>
<linearGradient id="paint61_linear_0_766" x1="1318.26" y1="881.621" x2="1086.21" y2="1122.09" gradientUnits="userSpaceOnUse">
<stop stop-color="#F4F4F4"/>
<stop offset="1" stop-color="#FAFAFA"/>
</linearGradient>
<linearGradient id="paint62_linear_0_766" x1="1847.94" y1="894.856" x2="1554.2" y2="1260.27" gradientUnits="userSpaceOnUse">
<stop stop-color="white"/>
<stop offset="1" stop-color="white"/>
</linearGradient>
<linearGradient id="paint63_linear_0_766" x1="1789.55" y1="1226.18" x2="1660.56" y2="1254.18" gradientUnits="userSpaceOnUse">
<stop stop-color="#DBDBDB"/>
<stop offset="1" stop-color="#EAEAEA"/>
</linearGradient>
<linearGradient id="paint64_linear_0_766" x1="1755.38" y1="1178.7" x2="1482.01" y2="1389.91" gradientUnits="userSpaceOnUse">
<stop stop-color="#DDDDDD"/>
<stop offset="1" stop-color="#E8E8E8"/>
</linearGradient>
<linearGradient id="paint65_linear_0_766" x1="1728.11" y1="1019.01" x2="1510.9" y2="1323.79" gradientUnits="userSpaceOnUse">
<stop stop-color="#F7F7F7"/>
<stop offset="1" stop-color="#F2F2F2"/>
</linearGradient>
<linearGradient id="paint66_linear_0_766" x1="1941.62" y1="1102.03" x2="1653.74" y2="1354.28" gradientUnits="userSpaceOnUse">
<stop stop-color="#F4F4F4"/>
<stop offset="1" stop-color="#E5E5E5"/>
</linearGradient>
<linearGradient id="paint67_linear_0_766" x1="2060.08" y1="1061.84" x2="1907.98" y2="1294.41" gradientUnits="userSpaceOnUse">
<stop stop-color="#EDEDED"/>
<stop offset="1" stop-color="white"/>
</linearGradient>
<linearGradient id="paint68_linear_0_766" x1="1950.84" y1="854.753" x2="1671.13" y2="1044.96" gradientUnits="userSpaceOnUse">
<stop stop-color="#FAFAFA"/>
<stop offset="1" stop-color="#E5E5E5"/>
</linearGradient>
<linearGradient id="paint69_linear_0_766" x1="2164.19" y1="784.01" x2="2048.38" y2="856.525" gradientUnits="userSpaceOnUse">
<stop stop-color="#D6D6D6"/>
<stop offset="1" stop-color="#FCFCFC"/>
</linearGradient>
<linearGradient id="paint70_linear_0_766" x1="2171.41" y1="684.717" x2="2028.63" y2="771.367" gradientUnits="userSpaceOnUse">
<stop stop-color="#BBBBBB"/>
<stop offset="1" stop-color="#D6D6D6"/>
</linearGradient>
<linearGradient id="paint71_linear_0_766" x1="2136.52" y1="825.156" x2="1991.01" y2="913.962" gradientUnits="userSpaceOnUse">
<stop stop-color="white"/>
<stop offset="1" stop-color="#FAFAFA"/>
</linearGradient>
<linearGradient id="paint72_linear_0_766" x1="2110.53" y1="700.116" x2="1902.72" y2="852.819" gradientUnits="userSpaceOnUse">
<stop stop-color="#CECECE"/>
<stop offset="1" stop-color="#D3D3D3"/>
</linearGradient>
<linearGradient id="paint73_linear_0_766" x1="2099.87" y1="803.34" x2="1936.29" y2="963.31" gradientUnits="userSpaceOnUse">
<stop stop-color="white"/>
<stop offset="1" stop-color="#E0E0E0"/>
</linearGradient>
<linearGradient id="paint74_linear_0_766" x1="1708.3" y1="1280.65" x2="1427.19" y2="1520.78" gradientUnits="userSpaceOnUse">
<stop stop-color="#C7C7C7"/>
<stop offset="1" stop-color="#CCCCCC"/>
</linearGradient>
<linearGradient id="paint75_linear_0_766" x1="1542.92" y1="1280.65" x2="1277.47" y2="1665.32" gradientUnits="userSpaceOnUse">
<stop stop-color="#D3D3D3"/>
<stop offset="1" stop-color="#BBBBBB"/>
</linearGradient>
</defs>
</svg>
