<svg width="2113" height="1640" viewBox="0 0 2113 1640" fill="none" xmlns="http://www.w3.org/2000/svg">
<g clip-path="url(#clip0_96_28)">
<path d="M719.754 1486.68L677.793 1242.54L560.817 1517.17L719.754 1486.68Z" fill="url(#paint0_linear_96_28)"/>
<path d="M1798.14 232.741L1743.51 371.383L2231.79 323.085L1798.14 232.741Z" fill="url(#paint1_linear_96_28)"/>
<path d="M1105.11 1448.57L900.356 1592.27L946.171 1472.72L1105.11 1448.57Z" fill="url(#paint2_linear_96_28)"/>
<path d="M946.17 1472.72L900.356 1592.27L802.477 1512.11L946.17 1472.72Z" fill="url(#paint3_linear_96_28)"/>
<path d="M900.356 1592.27L560.817 1517.17L802.476 1512.11L900.356 1592.27Z" fill="url(#paint4_linear_96_28)"/>
<path d="M719.754 1486.68L560.817 1517.17L802.477 1512.11L719.754 1486.68Z" fill="url(#paint5_linear_96_28)"/>
<path d="M2008.03 1509.55L1821.09 1400.19L1897.39 1409.1L2008.03 1509.55Z" fill="url(#paint6_linear_96_28)"/>
<path d="M900.356 1592.27L560.817 1517.17L287.388 1662.14L900.356 1592.27Z" fill="url(#paint7_linear_96_28)"/>
<path d="M560.817 1517.17L287.388 1662.14L338.255 1508.26L560.817 1517.17Z" fill="url(#paint8_linear_96_28)"/>
<path d="M2008.03 1509.54L1897.39 1409.1L2141.54 1107.66L2008.03 1509.54Z" fill="url(#paint9_linear_96_28)"/>
<path d="M2388.25 -40.6881L2364.1 193.35L2084.33 109.428L2388.25 -40.6881Z" fill="url(#paint10_linear_96_28)"/>
<path d="M2388.25 -40.6878L2356.48 -85.1318L2084.33 109.429L2388.25 -40.6878Z" fill="url(#paint11_linear_96_28)"/>
<path d="M2364.1 193.35L2231.79 323.086L2084.33 109.429L2364.1 193.35Z" fill="url(#paint12_linear_96_28)"/>
<path d="M2231.79 323.086L1798.14 232.742L2084.33 109.429L2231.79 323.086Z" fill="url(#paint13_linear_96_28)"/>
<path d="M2137.68 880.052L2090.67 864.809L2159.35 866.094L2137.68 880.052Z" fill="url(#paint14_linear_96_28)"/>
<path d="M2090.67 864.807L2066.52 794.844L2159.35 866.091L2090.67 864.807Z" fill="url(#paint15_linear_96_28)"/>
<path d="M2250.89 1643.13L2008.03 1509.54L2390.82 1257.78L2250.89 1643.13Z" fill="url(#paint16_linear_96_28)"/>
<path d="M2141.54 1107.66L2008.03 1509.54L2390.82 1257.78L2141.54 1107.66Z" fill="url(#paint17_linear_96_28)"/>
<path d="M286.104 1185.25L178.033 1189.1L146.263 1116.57L286.104 1185.25Z" fill="url(#paint18_linear_96_28)"/>
<path d="M773.189 797.412L677.793 1242.54L892.734 1200.58L773.189 797.412Z" fill="url(#paint19_linear_96_28)"/>
<path d="M1743.51 371.383L1608.72 526.552L1603.58 412.059L1743.51 371.383Z" fill="url(#paint20_linear_96_28)"/>
<path d="M2231.79 323.087L1743.51 371.385L2217.84 564.661L2231.79 323.087Z" fill="url(#paint21_linear_96_28)"/>
<path d="M892.735 1200.58L773.19 797.412L1178.84 929.717L892.735 1200.58Z" fill="url(#paint22_linear_96_28)"/>
<path d="M1643.06 1189.1L1532.42 946.246L1196.65 1053.03L1643.06 1189.1Z" fill="url(#paint23_linear_96_28)"/>
<path d="M1643.06 1189.1L1208.13 1292.12L1196.65 1053.03L1643.06 1189.1Z" fill="url(#paint24_linear_96_28)"/>
<path d="M1208.12 1292.12L1091.15 1266.69L1196.65 1053.03L1208.12 1292.12Z" fill="url(#paint25_linear_96_28)"/>
<path d="M1196.65 1053.03L1178.84 929.719L944.886 1215.82L1196.65 1053.03Z" fill="url(#paint26_linear_96_28)"/>
<path d="M1196.65 1053.03L1091.15 1266.69L944.886 1215.82L1196.65 1053.03Z" fill="url(#paint27_linear_96_28)"/>
<path d="M1178.84 929.719L892.735 1200.58L944.886 1215.82L1178.84 929.719Z" fill="url(#paint28_linear_96_28)"/>
<path d="M1105.11 1448.57L1091.15 1266.69L943.602 1430.76L1105.11 1448.57Z" fill="url(#paint29_linear_96_28)"/>
<path d="M1105.11 1448.57L946.171 1472.72L943.602 1430.76L1105.11 1448.57Z" fill="url(#paint30_linear_96_28)"/>
<path d="M1091.15 1266.69L944.886 1215.82L943.602 1430.76L1091.15 1266.69Z" fill="url(#paint31_linear_96_28)"/>
<path d="M946.17 1472.72L802.477 1512.11L943.601 1430.76L946.17 1472.72Z" fill="url(#paint32_linear_96_28)"/>
<path d="M944.886 1215.82L892.735 1200.58L943.601 1430.76L944.886 1215.82Z" fill="url(#paint33_linear_96_28)"/>
<path d="M892.735 1200.58L677.793 1242.54L943.602 1430.76L892.735 1200.58Z" fill="url(#paint34_linear_96_28)"/>
<path d="M802.477 1512.11L719.754 1486.68L943.602 1430.76L802.477 1512.11Z" fill="url(#paint35_linear_96_28)"/>
<path d="M719.754 1486.68L677.793 1242.54L943.602 1430.76L719.754 1486.68Z" fill="url(#paint36_linear_96_28)"/>
<path d="M773.19 797.412L677.793 1242.54L255.618 886.472L773.19 797.412Z" fill="url(#paint37_linear_96_28)"/>
<path d="M677.793 1242.54L286.104 1185.25L255.618 886.473L677.793 1242.54Z" fill="url(#paint38_linear_96_28)"/>
<path d="M286.104 1185.25L146.263 1116.57L255.618 886.473L286.104 1185.25Z" fill="url(#paint39_linear_96_28)"/>
<path d="M2217.84 564.661L2066.52 794.845L1927.88 763.075L2217.84 564.661Z" fill="url(#paint40_linear_96_28)"/>
<path d="M2090.67 864.808L2089.38 932.202L1927.88 763.075L2090.67 864.808Z" fill="url(#paint41_linear_96_28)"/>
<path d="M2090.67 864.808L2066.52 794.845L1927.88 763.075L2090.67 864.808Z" fill="url(#paint42_linear_96_28)"/>
<path d="M677.793 1242.54L560.817 1517.17L367.542 1431.96L677.793 1242.54Z" fill="url(#paint43_linear_96_28)"/>
<path d="M677.793 1242.54L286.103 1185.25L367.542 1431.96L677.793 1242.54Z" fill="url(#paint44_linear_96_28)"/>
<path d="M560.817 1517.17L338.255 1508.26L367.542 1431.96L560.817 1517.17Z" fill="url(#paint45_linear_96_28)"/>
<path d="M338.255 1508.26L178.033 1189.1L367.542 1431.96L338.255 1508.26Z" fill="url(#paint46_linear_96_28)"/>
<path d="M286.103 1185.25L178.033 1189.1L367.542 1431.96L286.103 1185.25Z" fill="url(#paint47_linear_96_28)"/>
<path d="M1270.38 1495.59L900.356 1592.27L1195.37 1458.68L1270.38 1495.59Z" fill="url(#paint48_linear_96_28)"/>
<path d="M1105.11 1448.57L900.356 1592.27L1195.37 1458.68L1105.11 1448.57Z" fill="url(#paint49_linear_96_28)"/>
<path d="M1927.88 763.075L1532.42 946.246L1763.8 649.867L1927.88 763.075Z" fill="url(#paint50_linear_96_28)"/>
<path d="M1743.51 371.383L1608.72 526.552L1763.8 649.865L1743.51 371.383Z" fill="url(#paint51_linear_96_28)"/>
<path d="M2217.84 564.661L1927.88 763.075L1763.8 649.867L2217.84 564.661Z" fill="url(#paint52_linear_96_28)"/>
<path d="M2217.84 564.659L1743.51 371.383L1763.8 649.865L2217.84 564.659Z" fill="url(#paint53_linear_96_28)"/>
<path d="M1270.38 1495.59L1208.12 1292.12L1180.12 1423.14L1270.38 1495.59Z" fill="url(#paint54_linear_96_28)"/>
<path d="M1270.38 1495.59L1195.37 1458.68L1180.12 1423.14L1270.38 1495.59Z" fill="url(#paint55_linear_96_28)"/>
<path d="M1208.12 1292.12L1091.15 1266.69L1180.12 1423.14L1208.12 1292.12Z" fill="url(#paint56_linear_96_28)"/>
<path d="M1195.37 1458.68L1105.11 1448.57L1180.12 1423.14L1195.37 1458.68Z" fill="url(#paint57_linear_96_28)"/>
<path d="M1105.11 1448.57L1091.15 1266.69L1180.12 1423.14L1105.11 1448.57Z" fill="url(#paint58_linear_96_28)"/>
<path d="M1763.8 649.865L1608.72 526.552L1433.17 807.603L1763.8 649.865Z" fill="url(#paint59_linear_96_28)"/>
<path d="M1763.8 649.867L1532.42 946.246L1433.17 807.605L1763.8 649.867Z" fill="url(#paint60_linear_96_28)"/>
<path d="M1532.42 946.246L1196.65 1053.03L1433.17 807.604L1532.42 946.246Z" fill="url(#paint61_linear_96_28)"/>
<path d="M1196.65 1053.03L1178.84 929.718L1433.17 807.604L1196.65 1053.03Z" fill="url(#paint62_linear_96_28)"/>
<path d="M1433.17 807.603L1178.84 929.717L1060.58 735.071L1433.17 807.603Z" fill="url(#paint63_linear_96_28)"/>
<path d="M1178.84 929.717L773.19 797.412L1060.58 735.071L1178.84 929.717Z" fill="url(#paint64_linear_96_28)"/>
<path d="M1927.88 763.075L1532.42 946.246L1873.24 1081.03L1927.88 763.075Z" fill="url(#paint65_linear_96_28)"/>
<path d="M1897.39 1409.1L1821.09 1400.19L1873.24 1081.03L1897.39 1409.1Z" fill="url(#paint66_linear_96_28)"/>
<path d="M1821.09 1400.19L1643.06 1189.1L1873.24 1081.03L1821.09 1400.19Z" fill="url(#paint67_linear_96_28)"/>
<path d="M1643.06 1189.1L1532.42 946.246L1873.24 1081.03L1643.06 1189.1Z" fill="url(#paint68_linear_96_28)"/>
<path d="M2141.54 1107.67L1897.39 1409.1L1873.24 1081.03L2141.54 1107.67Z" fill="url(#paint69_linear_96_28)"/>
<path d="M2141.54 1107.67L2089.39 932.203L1873.24 1081.03L2141.54 1107.67Z" fill="url(#paint70_linear_96_28)"/>
<path d="M2089.38 932.202L1927.88 763.075L1873.24 1081.03L2089.38 932.202Z" fill="url(#paint71_linear_96_28)"/>
<path d="M2217.84 564.661L2066.52 794.845L2235.65 693.112L2217.84 564.661Z" fill="url(#paint72_linear_96_28)"/>
<path d="M2159.35 866.091L2066.52 794.844L2235.65 693.111L2159.35 866.091Z" fill="url(#paint73_linear_96_28)"/>
<path d="M1821.09 1400.19L1643.06 1189.1L1546.38 1489.25L1821.09 1400.19Z" fill="url(#paint74_linear_96_28)"/>
<path d="M1643.06 1189.1L1208.13 1292.12L1546.38 1489.25L1643.06 1189.1Z" fill="url(#paint75_linear_96_28)"/>
<path d="M1270.38 1495.59L1208.13 1292.12L1546.38 1489.25L1270.38 1495.59Z" fill="url(#paint76_linear_96_28)"/>
<path d="M1821.09 1400.19L1546.38 1489.25L1517.09 1660.86L1821.09 1400.19Z" fill="url(#paint77_linear_96_28)"/>
<path d="M1546.38 1489.25L1270.38 1495.59L1517.09 1660.86L1546.38 1489.25Z" fill="url(#paint78_linear_96_28)"/>
<path d="M1270.38 1495.59L900.356 1592.27L1517.09 1660.86L1270.38 1495.59Z" fill="url(#paint79_linear_96_28)"/>
<path d="M900.356 1592.27L287.388 1662.15L1517.09 1660.86L900.356 1592.27Z" fill="url(#paint80_linear_96_28)"/>
<path d="M2250.89 1643.13L2008.03 1509.55L1517.09 1660.86L2250.89 1643.13Z" fill="url(#paint81_linear_96_28)"/>
<path d="M2008.03 1509.55L1821.09 1400.19L1517.09 1660.86L2008.03 1509.55Z" fill="url(#paint82_linear_96_28)"/>
<path d="M338.254 1508.26L287.388 1662.14L0 1659.66L338.254 1508.26Z" fill="url(#paint83_linear_96_28)"/>
<path d="M338.254 1508.26L178.033 1189.1L0 1659.66L338.254 1508.26Z" fill="url(#paint84_linear_96_28)"/>
<path d="M179.033 1189.1L147.263 1116.57L1 1659.66L179.033 1189.1Z" fill="url(#paint85_linear_96_28)"/>
<g style="mix-blend-mode:overlay">
<path d="M719.754 1486.68L677.793 1242.54L560.817 1517.17L719.754 1486.68Z" fill="#E04B9D"/>
<path d="M1798.14 232.741L1743.51 371.383L2231.79 323.085L1798.14 232.741Z" fill="#5FE0ED"/>
<path d="M1105.11 1448.57L900.356 1592.27L946.171 1472.72L1105.11 1448.57Z" fill="#E04B9D"/>
<path d="M946.17 1472.72L900.356 1592.27L802.477 1512.11L946.17 1472.72Z" fill="#E04B9D"/>
<path d="M900.356 1592.27L560.817 1517.17L802.476 1512.11L900.356 1592.27Z" fill="#E04B9D"/>
<path d="M719.754 1486.68L560.817 1517.17L802.477 1512.11L719.754 1486.68Z" fill="#E04B9D"/>
<path d="M2008.03 1509.55L1821.09 1400.19L1897.39 1409.1L2008.03 1509.55Z" fill="#5FE0ED"/>
<path d="M900.356 1592.27L560.817 1517.17L287.388 1662.14L900.356 1592.27Z" fill="#E04B9D"/>
<path d="M560.817 1517.17L287.388 1662.14L338.255 1508.26L560.817 1517.17Z" fill="#E04B9D"/>
<path d="M2008.03 1509.54L1897.39 1409.1L2141.54 1107.66L2008.03 1509.54Z" fill="#5FE0ED"/>
<path d="M2388.25 -40.6881L2364.1 193.35L2084.33 109.428L2388.25 -40.6881Z" fill="#5FE0ED"/>
<path d="M2364.1 193.35L2231.79 323.086L2084.33 109.429L2364.1 193.35Z" fill="#5FE0ED"/>
<path d="M2231.79 323.086L1798.14 232.742L2084.33 109.429L2231.79 323.086Z" fill="#5FE0ED"/>
<path d="M2137.68 880.052L2090.67 864.809L2159.35 866.094L2137.68 880.052Z" fill="#5FE0ED"/>
<path d="M2090.67 864.807L2066.52 794.844L2159.35 866.091L2090.67 864.807Z" fill="#5FE0ED"/>
<path d="M2250.89 1643.13L2008.03 1509.54L2390.82 1257.78L2250.89 1643.13Z" fill="#5FE0ED"/>
<path d="M2141.54 1107.66L2008.03 1509.54L2390.82 1257.78L2141.54 1107.66Z" fill="#5FE0ED"/>
<path d="M286.104 1185.25L178.033 1189.1L146.263 1116.57L286.104 1185.25Z" fill="#E04B9D"/>
<path d="M773.189 797.412L677.793 1242.54L892.734 1200.58L773.189 797.412Z" fill="#E04B9D"/>
<path d="M1743.51 371.383L1608.72 526.552L1603.58 412.059L1743.51 371.383Z" fill="#5FE0ED"/>
<path d="M2231.79 323.087L1743.51 371.385L2217.84 564.661L2231.79 323.087Z" fill="#5FE0ED"/>
<path d="M892.735 1200.58L773.19 797.412L1178.84 929.717L892.735 1200.58Z" fill="#5FE0ED"/>
<path d="M1643.06 1189.1L1532.42 946.246L1196.65 1053.03L1643.06 1189.1Z" fill="#5FE0ED"/>
<path d="M1643.06 1189.1L1208.13 1292.12L1196.65 1053.03L1643.06 1189.1Z" fill="#5FE0ED"/>
<path d="M1208.12 1292.12L1091.15 1266.69L1196.65 1053.03L1208.12 1292.12Z" fill="#5FE0ED"/>
<path d="M1196.65 1053.03L1178.84 929.719L944.886 1215.82L1196.65 1053.03Z" fill="#5FE0ED"/>
<path d="M1196.65 1053.03L1091.15 1266.69L944.886 1215.82L1196.65 1053.03Z" fill="#5FE0ED"/>
<path d="M1178.84 929.719L892.735 1200.58L944.886 1215.82L1178.84 929.719Z" fill="#5FE0ED"/>
<path d="M1105.11 1448.57L1091.15 1266.69L943.602 1430.76L1105.11 1448.57Z" fill="#E04B9D"/>
<path d="M1105.11 1448.57L946.171 1472.72L943.602 1430.76L1105.11 1448.57Z" fill="#E04B9D"/>
<path d="M1091.15 1266.69L944.886 1215.82L943.602 1430.76L1091.15 1266.69Z" fill="#E04B9D"/>
<path d="M946.17 1472.72L802.477 1512.11L943.601 1430.76L946.17 1472.72Z" fill="#E04B9D"/>
<path d="M944.886 1215.82L892.735 1200.58L943.601 1430.76L944.886 1215.82Z" fill="#E04B9D"/>
<path d="M892.735 1200.58L677.793 1242.54L943.602 1430.76L892.735 1200.58Z" fill="#E04B9D"/>
<path d="M802.477 1512.11L719.754 1486.68L943.602 1430.76L802.477 1512.11Z" fill="#E04B9D"/>
<path d="M719.754 1486.68L677.793 1242.54L943.602 1430.76L719.754 1486.68Z" fill="#E04B9D"/>
<path d="M773.19 797.412L677.793 1242.54L255.618 886.472L773.19 797.412Z" fill="#E04B9D"/>
<path d="M677.793 1242.54L286.104 1185.25L255.618 886.473L677.793 1242.54Z" fill="#E04B9D"/>
<path d="M286.104 1185.25L146.263 1116.57L255.618 886.473L286.104 1185.25Z" fill="#E04B9D"/>
<path d="M2217.84 564.661L2066.52 794.845L1927.88 763.075L2217.84 564.661Z" fill="#5FE0ED"/>
<path d="M2090.67 864.808L2089.38 932.202L1927.88 763.075L2090.67 864.808Z" fill="#5FE0ED"/>
<path d="M2090.67 864.808L2066.52 794.845L1927.88 763.075L2090.67 864.808Z" fill="#5FE0ED"/>
<path d="M677.793 1242.54L560.817 1517.17L367.542 1431.96L677.793 1242.54Z" fill="#E04B9D"/>
<path d="M677.793 1242.54L286.103 1185.25L367.542 1431.96L677.793 1242.54Z" fill="#E04B9D"/>
<path d="M560.817 1517.17L338.255 1508.26L367.542 1431.96L560.817 1517.17Z" fill="#E04B9D"/>
<path d="M338.255 1508.26L178.033 1189.1L367.542 1431.96L338.255 1508.26Z" fill="#E04B9D"/>
<path d="M286.103 1185.25L178.033 1189.1L367.542 1431.96L286.103 1185.25Z" fill="#E04B9D"/>
<path d="M1270.38 1495.59L900.356 1592.27L1195.37 1458.68L1270.38 1495.59Z" fill="#E04B9D"/>
<path d="M1105.11 1448.57L900.356 1592.27L1195.37 1458.68L1105.11 1448.57Z" fill="#E04B9D"/>
<path d="M1927.88 763.075L1532.42 946.246L1763.8 649.867L1927.88 763.075Z" fill="#5FE0ED"/>
<path d="M1743.51 371.383L1608.72 526.552L1763.8 649.865L1743.51 371.383Z" fill="#5FE0ED"/>
<path d="M2217.84 564.661L1927.88 763.075L1763.8 649.867L2217.84 564.661Z" fill="#5FE0ED"/>
<path d="M2217.84 564.659L1743.51 371.383L1763.8 649.865L2217.84 564.659Z" fill="#5FE0ED"/>
<path d="M1270.38 1495.59L1208.12 1292.12L1180.12 1423.14L1270.38 1495.59Z" fill="#5FE0ED"/>
<path d="M1270.38 1495.59L1195.37 1458.68L1180.12 1423.14L1270.38 1495.59Z" fill="#5FE0ED"/>
<path d="M1208.12 1292.12L1091.15 1266.69L1180.12 1423.14L1208.12 1292.12Z" fill="#5FE0ED"/>
<path d="M1195.37 1458.68L1105.11 1448.57L1180.12 1423.14L1195.37 1458.68Z" fill="#E04B9D"/>
<path d="M1105.11 1448.57L1091.15 1266.69L1180.12 1423.14L1105.11 1448.57Z" fill="#E04B9D"/>
<path d="M1763.8 649.865L1608.72 526.552L1433.17 807.603L1763.8 649.865Z" fill="#5FE0ED"/>
<path d="M1763.8 649.867L1532.42 946.246L1433.17 807.605L1763.8 649.867Z" fill="#5FE0ED"/>
<path d="M1532.42 946.246L1196.65 1053.03L1433.17 807.604L1532.42 946.246Z" fill="#5FE0ED"/>
<path d="M1196.65 1053.03L1178.84 929.718L1433.17 807.604L1196.65 1053.03Z" fill="#5FE0ED"/>
<path d="M1433.17 807.603L1178.84 929.717L1060.58 735.071L1433.17 807.603Z" fill="#5FE0ED"/>
<path d="M1178.84 929.717L773.19 797.412L1060.58 735.071L1178.84 929.717Z" fill="#5FE0ED"/>
<path d="M1927.88 763.075L1532.42 946.246L1873.24 1081.03L1927.88 763.075Z" fill="#5FE0ED"/>
<path d="M1897.39 1409.1L1821.09 1400.19L1873.24 1081.03L1897.39 1409.1Z" fill="#5FE0ED"/>
<path d="M1821.09 1400.19L1643.06 1189.1L1873.24 1081.03L1821.09 1400.19Z" fill="#5FE0ED"/>
<path d="M1643.06 1189.1L1532.42 946.246L1873.24 1081.03L1643.06 1189.1Z" fill="#5FE0ED"/>
<path d="M2141.54 1107.67L1897.39 1409.1L1873.24 1081.03L2141.54 1107.67Z" fill="#5FE0ED"/>
<path d="M2141.54 1107.67L2089.39 932.203L1873.24 1081.03L2141.54 1107.67Z" fill="#5FE0ED"/>
<path d="M2089.38 932.202L1927.88 763.075L1873.24 1081.03L2089.38 932.202Z" fill="#5FE0ED"/>
<path d="M2217.84 564.661L2066.52 794.845L2235.65 693.112L2217.84 564.661Z" fill="#5FE0ED"/>
<path d="M2159.35 866.091L2066.52 794.844L2235.65 693.111L2159.35 866.091Z" fill="#5FE0ED"/>
<path d="M1821.09 1400.19L1643.06 1189.1L1546.38 1489.25L1821.09 1400.19Z" fill="#5FE0ED"/>
<path d="M1643.06 1189.1L1208.13 1292.12L1546.38 1489.25L1643.06 1189.1Z" fill="#5FE0ED"/>
<path d="M1270.38 1495.59L1208.13 1292.12L1546.38 1489.25L1270.38 1495.59Z" fill="#5FE0ED"/>
<path d="M1821.09 1400.19L1546.38 1489.25L1517.09 1660.86L1821.09 1400.19Z" fill="#5FE0ED"/>
<path d="M1546.38 1489.25L1270.38 1495.59L1517.09 1660.86L1546.38 1489.25Z" fill="#5FE0ED"/>
<path d="M1270.38 1495.59L900.356 1592.27L1517.09 1660.86L1270.38 1495.59Z" fill="#E04B9D"/>
<path d="M900.356 1592.27L287.388 1662.15L1517.09 1660.86L900.356 1592.27Z" fill="#E04B9D"/>
<path d="M2250.89 1643.13L2008.03 1509.55L1517.09 1660.86L2250.89 1643.13Z" fill="#5FE0ED"/>
<path d="M2008.03 1509.55L1821.09 1400.19L1517.09 1660.86L2008.03 1509.55Z" fill="#5FE0ED"/>
<path d="M338.254 1508.26L287.388 1662.14L0 1659.66L338.254 1508.26Z" fill="#E04B9D"/>
<path d="M338.254 1508.26L178.033 1189.1L0 1659.66L338.254 1508.26Z" fill="#E04B9D"/>
<path d="M178.033 1189.1L146.263 1116.57L0 1659.66L178.033 1189.1Z" fill="#E04B9D"/>
</g>
</g>
<defs>
<linearGradient id="paint0_linear_96_28" x1="745.444" y1="1277.22" x2="504.881" y2="1416.44" gradientUnits="userSpaceOnUse">
<stop stop-color="#8E8E8E"/>
<stop offset="1" stop-color="#929292"/>
</linearGradient>
<linearGradient id="paint1_linear_96_28" x1="2196" y1="227.089" x2="2122.44" y2="486.233" gradientUnits="userSpaceOnUse">
<stop stop-color="#FCFCFC"/>
<stop offset="1" stop-color="#EDEDED"/>
</linearGradient>
<linearGradient id="paint2_linear_96_28" x1="1080.27" y1="1429.39" x2="943.768" y2="1623.88" gradientUnits="userSpaceOnUse">
<stop stop-color="#CCCCCC"/>
<stop offset="1" stop-color="#B6B6B6"/>
</linearGradient>
<linearGradient id="paint3_linear_96_28" x1="943.088" y1="1472.38" x2="833.649" y2="1613.34" gradientUnits="userSpaceOnUse">
<stop stop-color="#B4B4B4"/>
<stop offset="1" stop-color="#909090"/>
</linearGradient>
<linearGradient id="paint4_linear_96_28" x1="897.616" y1="1513.83" x2="865.812" y2="1658.24" gradientUnits="userSpaceOnUse">
<stop stop-color="#929292"/>
<stop offset="1" stop-color="#8C8C8C"/>
</linearGradient>
<linearGradient id="paint5_linear_96_28" x1="835.617" y1="1490.11" x2="827.951" y2="1550.79" gradientUnits="userSpaceOnUse">
<stop stop-color="#909090"/>
<stop offset="1" stop-color="#8C8C8C"/>
</linearGradient>
<linearGradient id="paint6_linear_96_28" x1="2006.58" y1="1399.34" x2="1910.28" y2="1563.93" gradientUnits="userSpaceOnUse">
<stop stop-color="#C5C5C5"/>
<stop offset="1" stop-color="#D3D3D3"/>
</linearGradient>
<linearGradient id="paint7_linear_96_28" x1="911.917" y1="1520.51" x2="842.013" y2="1796.36" gradientUnits="userSpaceOnUse">
<stop stop-color="#818181"/>
<stop offset="1" stop-color="#757575"/>
</linearGradient>
<linearGradient id="paint8_linear_96_28" x1="508.838" y1="1474.26" x2="375.975" y2="1710.34" gradientUnits="userSpaceOnUse">
<stop stop-color="#9D9D9D"/>
<stop offset="1" stop-color="#929292"/>
</linearGradient>
<linearGradient id="paint9_linear_96_28" x1="2151.3" y1="1131.9" x2="1791.04" y2="1350.79" gradientUnits="userSpaceOnUse">
<stop stop-color="#FCFCFC"/>
<stop offset="1" stop-color="white"/>
</linearGradient>
<linearGradient id="paint10_linear_96_28" x1="2431.15" y1="-4.72183" x2="2202.66" y2="292.068" gradientUnits="userSpaceOnUse">
<stop stop-color="#E0E0E0"/>
<stop offset="1" stop-color="#D8D8D8"/>
</linearGradient>
<linearGradient id="paint11_linear_96_28" x1="2390.22" y1="-79.8225" x2="2228.3" y2="191.166" gradientUnits="userSpaceOnUse">
<stop stop-color="#F4F4F4"/>
<stop offset="1" stop-color="#F4F4F4"/>
</linearGradient>
<linearGradient id="paint12_linear_96_28" x1="2331.82" y1="89.5619" x2="2119.79" y2="348.707" gradientUnits="userSpaceOnUse">
<stop stop-color="#E0E0E0"/>
<stop offset="1" stop-color="#CCCCCC"/>
</linearGradient>
<linearGradient id="paint13_linear_96_28" x1="2292" y1="147.108" x2="2113.4" y2="485.455" gradientUnits="userSpaceOnUse">
<stop stop-color="#C9C9C9"/>
<stop offset="1" stop-color="#EDEDED"/>
</linearGradient>
<linearGradient id="paint14_linear_96_28" x1="2153.95" y1="863.61" x2="2147.42" y2="892.988" gradientUnits="userSpaceOnUse">
<stop stop-color="#D1D1D1"/>
<stop offset="1" stop-color="#EDEDED"/>
</linearGradient>
<linearGradient id="paint15_linear_96_28" x1="2156.26" y1="795.272" x2="2092.56" y2="884.252" gradientUnits="userSpaceOnUse">
<stop stop-color="#EFEFEF"/>
<stop offset="1" stop-color="#E0E0E0"/>
</linearGradient>
<linearGradient id="paint16_linear_96_28" x1="2416.16" y1="1296.4" x2="2027.14" y2="1657.09" gradientUnits="userSpaceOnUse">
<stop stop-color="#AFAFAF"/>
<stop offset="1" stop-color="#D8D8D8"/>
</linearGradient>
<linearGradient id="paint17_linear_96_28" x1="2364.61" y1="1077.78" x2="1959.19" y2="1463.96" gradientUnits="userSpaceOnUse">
<stop stop-color="white"/>
<stop offset="1" stop-color="#FCFCFC"/>
</linearGradient>
<linearGradient id="paint18_linear_96_28" x1="285.932" y1="1113.83" x2="226.115" y2="1229.27" gradientUnits="userSpaceOnUse">
<stop stop-color="#9B9B9B"/>
<stop offset="1" stop-color="#777777"/>
</linearGradient>
<linearGradient id="paint19_linear_96_28" x1="916.455" y1="848.536" x2="578.84" y2="1000.69" gradientUnits="userSpaceOnUse">
<stop stop-color="#DBDBDB"/>
<stop offset="1" stop-color="#A6A6A6"/>
</linearGradient>
<linearGradient id="paint20_linear_96_28" x1="1716.02" y1="342.439" x2="1560.15" y2="482.981" gradientUnits="userSpaceOnUse">
<stop stop-color="#EDEDED"/>
<stop offset="1" stop-color="#AFAFAF"/>
</linearGradient>
<linearGradient id="paint21_linear_96_28" x1="2261.77" y1="327.198" x2="2067.75" y2="719.314" gradientUnits="userSpaceOnUse">
<stop stop-color="#A4A4A4"/>
<stop offset="1" stop-color="#E0E0E0"/>
</linearGradient>
<linearGradient id="paint22_linear_96_28" x1="1111.02" y1="737.897" x2="703.834" y2="1147.65" gradientUnits="userSpaceOnUse">
<stop stop-color="#CCCCCC"/>
<stop offset="1" stop-color="#FAFAFA"/>
</linearGradient>
<linearGradient id="paint23_linear_96_28" x1="1681" y1="973.049" x2="1495.66" y2="1337.98" gradientUnits="userSpaceOnUse">
<stop stop-color="#E8E8E8"/>
<stop offset="1" stop-color="#E8E8E8"/>
</linearGradient>
<linearGradient id="paint24_linear_96_28" x1="1590.82" y1="1026.57" x2="1389.8" y2="1401.88" gradientUnits="userSpaceOnUse">
<stop stop-color="#E0E0E0"/>
<stop offset="1" stop-color="#D3D3D3"/>
</linearGradient>
<linearGradient id="paint25_linear_96_28" x1="1233.73" y1="1107.07" x2="1043.04" y2="1200.38" gradientUnits="userSpaceOnUse">
<stop stop-color="#C9C9C9"/>
<stop offset="1" stop-color="#DDDDDD"/>
</linearGradient>
<linearGradient id="paint26_linear_96_28" x1="1225.08" y1="948.387" x2="938.411" y2="1200.66" gradientUnits="userSpaceOnUse">
<stop stop-color="white"/>
<stop offset="1" stop-color="#E5E5E5"/>
</linearGradient>
<linearGradient id="paint27_linear_96_28" x1="1225.08" y1="1077.44" x2="1009.75" y2="1314.3" gradientUnits="userSpaceOnUse">
<stop stop-color="#E0E0E0"/>
<stop offset="1" stop-color="#C0C0C0"/>
</linearGradient>
<linearGradient id="paint28_linear_96_28" x1="1197.08" y1="948.387" x2="908.063" y2="1218.13" gradientUnits="userSpaceOnUse">
<stop stop-color="#E5E5E5"/>
<stop offset="1" stop-color="#BBBBBB"/>
</linearGradient>
<linearGradient id="paint29_linear_96_28" x1="1144.41" y1="1301.97" x2="962.014" y2="1463.96" gradientUnits="userSpaceOnUse">
<stop stop-color="#AFAFAF"/>
<stop offset="1" stop-color="#B9B9B9"/>
</linearGradient>
<linearGradient id="paint30_linear_96_28" x1="1079.16" y1="1424.43" x2="1058.52" y2="1503.84" gradientUnits="userSpaceOnUse">
<stop stop-color="#B4B4B4"/>
<stop offset="1" stop-color="#B6B6B6"/>
</linearGradient>
<linearGradient id="paint31_linear_96_28" x1="1058.52" y1="1178.06" x2="864.657" y2="1320.63" gradientUnits="userSpaceOnUse">
<stop stop-color="#B6B6B6"/>
<stop offset="1" stop-color="#AFAFAF"/>
</linearGradient>
<linearGradient id="paint32_linear_96_28" x1="962.441" y1="1441.04" x2="891.936" y2="1565.52" gradientUnits="userSpaceOnUse">
<stop stop-color="#C0C0C0"/>
<stop offset="1" stop-color="#A6A6A6"/>
</linearGradient>
<linearGradient id="paint33_linear_96_28" x1="946.085" y1="1191.76" x2="845.896" y2="1214.45" gradientUnits="userSpaceOnUse">
<stop stop-color="#B6B6B6"/>
<stop offset="1" stop-color="#B4B4B4"/>
</linearGradient>
<linearGradient id="paint34_linear_96_28" x1="947.798" y1="1207.26" x2="735.119" y2="1470.38" gradientUnits="userSpaceOnUse">
<stop stop-color="#E8E8E8"/>
<stop offset="1" stop-color="#CCCCCC"/>
</linearGradient>
<linearGradient id="paint35_linear_96_28" x1="943.858" y1="1430.08" x2="891.053" y2="1575.29" gradientUnits="userSpaceOnUse">
<stop stop-color="#9B9B9B"/>
<stop offset="1" stop-color="#A4A4A4"/>
</linearGradient>
<linearGradient id="paint36_linear_96_28" x1="929.9" y1="1222.33" x2="684.159" y2="1489.83" gradientUnits="userSpaceOnUse">
<stop stop-color="#929292"/>
<stop offset="1" stop-color="#A4A4A4"/>
</linearGradient>
<linearGradient id="paint37_linear_96_28" x1="778.414" y1="788.592" x2="333.904" y2="1305.49" gradientUnits="userSpaceOnUse">
<stop stop-color="#F4F4F4"/>
<stop offset="1" stop-color="#D6D6D6"/>
</linearGradient>
<linearGradient id="paint38_linear_96_28" x1="686.186" y1="892.468" x2="331.679" y2="1312.81" gradientUnits="userSpaceOnUse">
<stop stop-color="#A6A6A6"/>
<stop offset="1" stop-color="#CCCCCC"/>
</linearGradient>
<linearGradient id="paint39_linear_96_28" x1="314.192" y1="937.854" x2="82.3879" y2="1046.36" gradientUnits="userSpaceOnUse">
<stop stop-color="#B4B4B4"/>
<stop offset="1" stop-color="#C0C0C0"/>
</linearGradient>
<linearGradient id="paint40_linear_96_28" x1="2250.12" y1="583.501" x2="2023.68" y2="868.735" gradientUnits="userSpaceOnUse">
<stop stop-color="#EAEAEA"/>
<stop offset="1" stop-color="#E5E5E5"/>
</linearGradient>
<linearGradient id="paint41_linear_96_28" x1="2095.12" y1="760.078" x2="1924.41" y2="924.374" gradientUnits="userSpaceOnUse">
<stop stop-color="#E5E5E5"/>
<stop offset="1" stop-color="#F4F4F4"/>
</linearGradient>
<linearGradient id="paint42_linear_96_28" x1="2095.12" y1="766.158" x2="1999.88" y2="908.389" gradientUnits="userSpaceOnUse">
<stop stop-color="white"/>
<stop offset="1" stop-color="#E2E2E2"/>
</linearGradient>
<linearGradient id="paint43_linear_96_28" x1="708.022" y1="1258.72" x2="432.616" y2="1569.83" gradientUnits="userSpaceOnUse">
<stop stop-color="#999999"/>
<stop offset="1" stop-color="#8E8E8E"/>
</linearGradient>
<linearGradient id="paint44_linear_96_28" x1="598.068" y1="1145.43" x2="366.423" y2="1488.68" gradientUnits="userSpaceOnUse">
<stop stop-color="#909090"/>
<stop offset="1" stop-color="#929292"/>
</linearGradient>
<linearGradient id="paint45_linear_96_28" x1="566.64" y1="1436.16" x2="509.166" y2="1586.28" gradientUnits="userSpaceOnUse">
<stop stop-color="#8E8E8E"/>
<stop offset="1" stop-color="#9B9B9B"/>
</linearGradient>
<linearGradient id="paint46_linear_96_28" x1="366.343" y1="1177.54" x2="83.3" y2="1345.57" gradientUnits="userSpaceOnUse">
<stop stop-color="#999999"/>
<stop offset="1" stop-color="#7B7B7B"/>
</linearGradient>
<linearGradient id="paint47_linear_96_28" x1="366.343" y1="1178.66" x2="125.581" y2="1363.57" gradientUnits="userSpaceOnUse">
<stop stop-color="#929292"/>
<stop offset="1" stop-color="#7B7B7B"/>
</linearGradient>
<linearGradient id="paint48_linear_96_28" x1="1285.28" y1="1456.97" x2="1199.16" y2="1695.64" gradientUnits="userSpaceOnUse">
<stop stop-color="#BBBBBB"/>
<stop offset="1" stop-color="#A8A8A8"/>
</linearGradient>
<linearGradient id="paint49_linear_96_28" x1="1172.07" y1="1439.07" x2="1057.79" y2="1673.7" gradientUnits="userSpaceOnUse">
<stop stop-color="#BDBDBD"/>
<stop offset="1" stop-color="#ADADAD"/>
</linearGradient>
<linearGradient id="paint50_linear_96_28" x1="1919.74" y1="650.638" x2="1632.51" y2="1034.03" gradientUnits="userSpaceOnUse">
<stop stop-color="#EDEDED"/>
<stop offset="1" stop-color="#EAEAEA"/>
</linearGradient>
<linearGradient id="paint51_linear_96_28" x1="1786.84" y1="418.225" x2="1556.02" y2="538.238" gradientUnits="userSpaceOnUse">
<stop stop-color="#EDEDED"/>
<stop offset="1" stop-color="#BDBDBD"/>
</linearGradient>
<linearGradient id="paint52_linear_96_28" x1="2186.67" y1="557.81" x2="2039.62" y2="894.322" gradientUnits="userSpaceOnUse">
<stop stop-color="#D3D3D3"/>
<stop offset="1" stop-color="#E5E5E5"/>
</linearGradient>
<linearGradient id="paint53_linear_96_28" x1="2191.03" y1="343.209" x2="1945.38" y2="761.597" gradientUnits="userSpaceOnUse">
<stop stop-color="#CECECE"/>
<stop offset="1" stop-color="#F4F4F4"/>
</linearGradient>
<linearGradient id="paint54_linear_96_28" x1="1276.89" y1="1305.14" x2="1124.5" y2="1372.76" gradientUnits="userSpaceOnUse">
<stop stop-color="#A6A6A6"/>
<stop offset="1" stop-color="#B2B2B2"/>
</linearGradient>
<linearGradient id="paint55_linear_96_28" x1="1270.81" y1="1425.28" x2="1198.24" y2="1509.65" gradientUnits="userSpaceOnUse">
<stop stop-color="#B6B6B6"/>
<stop offset="1" stop-color="#BDBDBD"/>
</linearGradient>
<linearGradient id="paint56_linear_96_28" x1="1202.22" y1="1258.55" x2="1050.66" y2="1371.91" gradientUnits="userSpaceOnUse">
<stop stop-color="#AFAFAF"/>
<stop offset="1" stop-color="#BBBBBB"/>
</linearGradient>
<linearGradient id="paint57_linear_96_28" x1="1209.41" y1="1429.74" x2="1184.86" y2="1491.99" gradientUnits="userSpaceOnUse">
<stop stop-color="#B4B4B4"/>
<stop offset="1" stop-color="#B6B6B6"/>
</linearGradient>
<linearGradient id="paint58_linear_96_28" x1="1175.67" y1="1265.23" x2="1036.48" y2="1328.82" gradientUnits="userSpaceOnUse">
<stop stop-color="#A8A8A8"/>
<stop offset="1" stop-color="#BBBBBB"/>
</linearGradient>
<linearGradient id="paint59_linear_96_28" x1="1764.06" y1="531.776" x2="1480.75" y2="842.864" gradientUnits="userSpaceOnUse">
<stop stop-color="#D6D6D6"/>
<stop offset="1" stop-color="#C7C7C7"/>
</linearGradient>
<linearGradient id="paint60_linear_96_28" x1="1741.8" y1="630.685" x2="1466.2" y2="960.182" gradientUnits="userSpaceOnUse">
<stop stop-color="#EAEAEA"/>
<stop offset="1" stop-color="#EDEDED"/>
</linearGradient>
<linearGradient id="paint61_linear_96_28" x1="1545.78" y1="826.872" x2="1329.82" y2="1143.38" gradientUnits="userSpaceOnUse">
<stop stop-color="#F2F2F2"/>
<stop offset="1" stop-color="white"/>
</linearGradient>
<linearGradient id="paint62_linear_96_28" x1="1407.48" y1="777.29" x2="1159.73" y2="1034.03" gradientUnits="userSpaceOnUse">
<stop stop-color="#F4F4F4"/>
<stop offset="1" stop-color="#FAFAFA"/>
</linearGradient>
<linearGradient id="paint63_linear_96_28" x1="1365.26" y1="700.646" x2="1220.44" y2="997.794" gradientUnits="userSpaceOnUse">
<stop stop-color="#EFEFEF"/>
<stop offset="1" stop-color="#E2E2E2"/>
</linearGradient>
<linearGradient id="paint64_linear_96_28" x1="1220.28" y1="753.054" x2="1067.02" y2="1072.6" gradientUnits="userSpaceOnUse">
<stop stop-color="#EDEDED"/>
<stop offset="1" stop-color="#EFEFEF"/>
</linearGradient>
<linearGradient id="paint65_linear_96_28" x1="1973.01" y1="791.42" x2="1659.39" y2="1181.57" gradientUnits="userSpaceOnUse">
<stop stop-color="white"/>
<stop offset="1" stop-color="white"/>
</linearGradient>
<linearGradient id="paint66_linear_96_28" x1="1910.67" y1="1145.17" x2="1772.95" y2="1175.07" gradientUnits="userSpaceOnUse">
<stop stop-color="#DBDBDB"/>
<stop offset="1" stop-color="#EAEAEA"/>
</linearGradient>
<linearGradient id="paint67_linear_96_28" x1="1874.19" y1="1094.48" x2="1582.32" y2="1319.98" gradientUnits="userSpaceOnUse">
<stop stop-color="#DDDDDD"/>
<stop offset="1" stop-color="#E8E8E8"/>
</linearGradient>
<linearGradient id="paint68_linear_96_28" x1="1845.07" y1="923.981" x2="1613.16" y2="1249.38" gradientUnits="userSpaceOnUse">
<stop stop-color="#F7F7F7"/>
<stop offset="1" stop-color="#F2F2F2"/>
</linearGradient>
<linearGradient id="paint69_linear_96_28" x1="2073.03" y1="1012.61" x2="1765.67" y2="1281.94" gradientUnits="userSpaceOnUse">
<stop stop-color="#F4F4F4"/>
<stop offset="1" stop-color="#E5E5E5"/>
</linearGradient>
<linearGradient id="paint70_linear_96_28" x1="2199.51" y1="969.71" x2="2037.11" y2="1218.02" gradientUnits="userSpaceOnUse">
<stop stop-color="#EDEDED"/>
<stop offset="1" stop-color="white"/>
</linearGradient>
<linearGradient id="paint71_linear_96_28" x1="2082.88" y1="748.603" x2="1784.23" y2="951.679" gradientUnits="userSpaceOnUse">
<stop stop-color="#FAFAFA"/>
<stop offset="1" stop-color="#E5E5E5"/>
</linearGradient>
<linearGradient id="paint72_linear_96_28" x1="2253.37" y1="583.501" x2="2031.5" y2="746.539" gradientUnits="userSpaceOnUse">
<stop stop-color="#CECECE"/>
<stop offset="1" stop-color="#D3D3D3"/>
</linearGradient>
<linearGradient id="paint73_linear_96_28" x1="2241.98" y1="693.71" x2="2067.33" y2="864.508" gradientUnits="userSpaceOnUse">
<stop stop-color="white"/>
<stop offset="1" stop-color="#E0E0E0"/>
</linearGradient>
<linearGradient id="paint74_linear_96_28" x1="1823.92" y1="1203.32" x2="1523.79" y2="1459.71" gradientUnits="userSpaceOnUse">
<stop stop-color="#C7C7C7"/>
<stop offset="1" stop-color="#CCCCCC"/>
</linearGradient>
<linearGradient id="paint75_linear_96_28" x1="1647.34" y1="1203.32" x2="1363.93" y2="1614.03" gradientUnits="userSpaceOnUse">
<stop stop-color="#D3D3D3"/>
<stop offset="1" stop-color="#BBBBBB"/>
</linearGradient>
<linearGradient id="paint76_linear_96_28" x1="1538.33" y1="1291.44" x2="1356.77" y2="1593.27" gradientUnits="userSpaceOnUse">
<stop stop-color="#A8A8A8"/>
<stop offset="1" stop-color="#B6B6B6"/>
</linearGradient>
<linearGradient id="paint77_linear_96_28" x1="1784.19" y1="1368.93" x2="1523.93" y2="1672.35" gradientUnits="userSpaceOnUse">
<stop stop-color="#EAEAEA"/>
<stop offset="1" stop-color="#C9C9C9"/>
</linearGradient>
<linearGradient id="paint78_linear_96_28" x1="1544.24" y1="1481.8" x2="1388.68" y2="1731.84" gradientUnits="userSpaceOnUse">
<stop stop-color="#C2C2C2"/>
<stop offset="1" stop-color="#AFAFAF"/>
</linearGradient>
<linearGradient id="paint79_linear_96_28" x1="1604.95" y1="1523.5" x2="1521.44" y2="1835.09" gradientUnits="userSpaceOnUse">
<stop stop-color="#C9C9C9"/>
<stop offset="1" stop-color="#ADADAD"/>
</linearGradient>
<linearGradient id="paint80_linear_96_28" x1="1652.91" y1="1600.49" x2="1644.9" y2="1741.33" gradientUnits="userSpaceOnUse">
<stop stop-color="#7F7F7F"/>
<stop offset="1" stop-color="#7D7D7D"/>
</linearGradient>
<linearGradient id="paint81_linear_96_28" x1="2342.86" y1="1527.53" x2="2282.38" y2="1820.77" gradientUnits="userSpaceOnUse">
<stop stop-color="#A8A8A8"/>
<stop offset="1" stop-color="#AFAFAF"/>
</linearGradient>
<linearGradient id="paint82_linear_96_28" x1="1996.56" y1="1404.04" x2="1800.5" y2="1799.57" gradientUnits="userSpaceOnUse">
<stop stop-color="#B6B6B6"/>
<stop offset="1" stop-color="#BDBDBD"/>
</linearGradient>
<linearGradient id="paint83_linear_96_28" x1="418.922" y1="1536.43" x2="301.762" y2="1793.99" gradientUnits="userSpaceOnUse">
<stop stop-color="#969696"/>
<stop offset="1" stop-color="#656565"/>
</linearGradient>
<linearGradient id="paint84_linear_96_28" x1="350.586" y1="1199.98" x2="-99.9283" y2="1523.86" gradientUnits="userSpaceOnUse">
<stop stop-color="#BDBDBD"/>
<stop offset="1" stop-color="#818181"/>
</linearGradient>
<linearGradient id="paint85_linear_96_28" x1="181.773" y1="1126.16" x2="-125.9" y2="1220.31" gradientUnits="userSpaceOnUse">
<stop stop-color="#9F9F9F"/>
<stop offset="1" stop-color="#929292"/>
</linearGradient>
<clipPath id="clip0_96_28">
<rect width="2113" height="1640" fill="white"/>
</clipPath>
</defs>
</svg>
