<svg width="769" height="1141" viewBox="0 0 769 1141" fill="none" xmlns="http://www.w3.org/2000/svg">
<path d="M0.798187 372.735L20.5797 509.166L78.4993 580.888L100.265 736.234L115.212 747.187L129.266 828.855L224.458 907.534L252.621 967.27L303.919 995.49L328.031 1094.43L411.125 1141L527.886 1071.18L564.683 952.35H595.222L632.074 826.872L666.469 804.827L709.748 570.913L748.445 550.992L768.198 372.735H0.798187Z" fill="url(#paint0_linear_4031_2)"/>
<path d="M768.199 372.735L709.748 570.913L592.568 616.4L649.119 372.735H768.199Z" fill="url(#paint1_linear_4031_2)"/>
<path d="M592.567 616.4H494.637L461.78 372.735L387.264 421.546L303.919 372.735H629.532L592.567 616.4Z" fill="url(#paint2_linear_4031_2)"/>
<path d="M494.19 613.773L403.859 410.677L461.779 372.735L494.19 613.773Z" fill="url(#paint3_linear_4031_2)"/>
<path d="M592.568 616.4L537.666 669.039L494.638 616.4H592.568Z" fill="url(#paint4_linear_4031_2)"/>
<path d="M0.798187 372.735L129.266 561.945L20.5797 509.166L0.798187 372.735Z" fill="url(#paint5_linear_4031_2)"/>
<path d="M78.4995 580.888L170.59 655.236L245.665 800.971L115.213 747.187L100.265 736.234L78.4995 580.888Z" fill="url(#paint6_linear_4031_2)"/>
<path d="M232.702 372.735L238.57 488.937L303.921 372.735H232.702Z" fill="url(#paint7_linear_4031_2)"/>
<path d="M238.567 488.937L298.974 593.154L387.264 421.546L238.567 488.937Z" fill="url(#paint8_linear_4031_2)"/>
<path d="M494.191 613.773L387.265 421.546L354.1 677.476L494.191 613.773Z" fill="url(#paint9_linear_4031_2)"/>
<path d="M354.102 677.476L298.976 593.154L387.266 421.546L354.102 677.476Z" fill="url(#paint10_linear_4031_2)"/>
<path d="M354.1 677.476L494.638 724.108L537.666 669.039L494.191 613.773L354.1 677.476Z" fill="url(#paint11_linear_4031_2)"/>
<path d="M709.748 570.913L666.469 804.827L632.075 826.872L592.568 616.4L709.748 570.913Z" fill="url(#paint12_linear_4031_2)"/>
<path d="M537.665 669.039L632.075 826.872L592.567 616.4L537.665 669.039Z" fill="url(#paint13_linear_4031_2)"/>
<path d="M113.202 372.735L129.267 561.945L238.569 488.937L211.914 372.735H113.202Z" fill="url(#paint14_linear_4031_2)"/>
<path d="M506.094 726.791L494.192 875.655L632.076 826.872L537.667 669.039L506.094 726.791Z" fill="url(#paint15_linear_4031_2)"/>
<path d="M354.098 677.476L330.321 931.423L494.636 724.108L354.098 677.476Z" fill="url(#paint16_linear_4031_2)"/>
<path d="M330.321 931.423L464.265 949.025L494.189 875.655L494.552 747.187L330.321 931.423Z" fill="url(#paint17_linear_4031_2)"/>
<path d="M472.229 962.297L632.073 826.872L494.19 875.655L472.229 962.297Z" fill="url(#paint18_linear_4031_2)"/>
<path d="M330.322 931.423L328.031 1094.43L411.124 1141L472.229 962.297L330.322 931.423Z" fill="url(#paint19_linear_4031_2)"/>
<path d="M472.229 962.297L527.886 1071.18L411.125 1141L472.229 962.297Z" fill="url(#paint20_linear_4031_2)"/>
<path d="M632.076 826.872L564.685 952.35H595.223L632.076 826.872Z" fill="url(#paint21_linear_4031_2)"/>
<path d="M527.885 1071.18L564.682 952.35L632.073 826.872L472.229 962.297L527.885 1071.18Z" fill="url(#paint22_linear_4031_2)"/>
<path d="M298.974 593.154L170.589 655.236L129.266 561.945L238.567 488.937L298.974 593.154Z" fill="url(#paint23_linear_4031_2)"/>
<path d="M170.589 655.236L285.814 620.395L338.285 682.785L245.664 800.971L170.589 655.236Z" fill="url(#paint24_linear_4031_2)"/>
<path d="M268.325 800.971L338.287 682.785L330.324 931.423L268.325 800.971Z" fill="url(#paint25_linear_4031_2)"/>
<path d="M245.665 800.971L224.458 907.534L254.438 970.93L330.323 931.423L245.665 800.971Z" fill="url(#paint26_linear_4031_2)"/>
<path d="M328.033 1094.43L330.324 931.423L254.439 970.93L303.921 995.489L328.033 1094.43Z" fill="url(#paint27_linear_4031_2)"/>
<path d="M129.265 561.945L113.199 372.735H82.3257L129.265 561.945Z" fill="url(#paint28_linear_4031_2)"/>
<path style="mix-blend-mode:multiply" opacity="0.55" d="M649.117 372.735H629.531H303.918H232.699H211.94H113.2H82.3263H0.797363L20.5789 509.166L78.4985 580.888L100.264 736.234L115.212 747.187L129.265 828.855L224.457 907.534L252.621 967.27L252.732 967.326L254.437 970.93L303.918 995.49L328.031 1094.43L411.124 1141L527.885 1071.18L564.682 952.35H595.221L632.074 826.872L666.468 804.827L709.747 570.913L748.444 550.992L768.197 372.735H649.117Z" fill="url(#paint29_linear_4031_2)"/>
<path style="mix-blend-mode:screen" opacity="0.45" d="M649.117 372.735H629.531H303.918H232.699H211.94H113.2H82.3263H0.797363L20.5789 509.166L78.4985 580.888L100.264 736.234L115.212 747.187L129.265 828.855L224.457 907.534L252.621 967.27L252.732 967.326L254.437 970.93L303.918 995.49L328.031 1094.43L411.124 1141L527.885 1071.18L564.682 952.35H595.221L632.074 826.872L666.468 804.827L709.747 570.913L748.444 550.992L768.197 372.735H649.117Z" fill="url(#paint30_linear_4031_2)"/>
<path d="M0.798187 372.735L34.41 302.885L57.9914 288.943L78.4993 291.988L109.932 231.303L137.648 225.407L165.812 173.69L226.05 165.169L262.708 83.9751L318.141 12.8957L351.333 0.266846L384.498 52.0676L445.407 108.87L472.23 198.557L497.767 206.436L527.886 250.945L538.364 251.615L581.587 299.42L608.437 286.317L655.572 306.601L677.84 348.511L710.586 337.391L747.914 347.868L768.198 372.735H0.798187Z" fill="url(#paint31_linear_4031_2)"/>
<path d="M381.062 72.9667L373.267 120.465L472.23 198.557L445.408 108.87L381.062 72.9667Z" fill="url(#paint32_linear_4031_2)"/>
<path d="M472.23 198.557L376.591 237.31L350.02 322.275L472.23 263.853V198.557Z" fill="url(#paint33_linear_4031_2)"/>
<path d="M472.229 263.853L527.885 250.944L497.766 206.436L472.229 198.557V263.853Z" fill="url(#paint34_linear_4031_2)"/>
<path d="M472.229 263.853L478.152 372.735L527.885 250.945L472.229 263.853Z" fill="url(#paint35_linear_4031_2)"/>
<path d="M384.5 52.0676L350.022 18.2043L332.42 102.863L318.142 12.8957L296.684 40.4166L291.599 160.112L270.672 189.002L262.709 83.9751L318.142 12.8957L351.335 0.266846L384.5 52.0676Z" fill="url(#paint36_linear_4031_2)"/>
<path d="M49.5814 311.854L129.266 341.358L155.167 372.735H0.798187L49.5814 311.854Z" fill="url(#paint37_linear_4031_2)"/>
<path d="M129.266 341.358L196.657 283.104L211.913 372.735H155.167L129.266 341.358Z" fill="url(#paint38_linear_4031_2)"/>
<path d="M49.579 311.854L196.655 283.104L126.358 330.574L49.579 311.854Z" fill="url(#paint39_linear_4031_2)"/>
<path d="M211.914 372.735L265.196 327.919L293.583 358.29L414.591 372.735H211.914Z" fill="url(#paint40_linear_4031_2)"/>
<path d="M265.194 327.919L293.581 347.505L350.02 322.275L265.194 327.919Z" fill="url(#paint41_linear_4031_2)"/>
<path d="M293.582 358.29L298.555 372.735H414.59L350.02 322.275L293.582 358.29Z" fill="url(#paint42_linear_4031_2)"/>
<path d="M265.193 327.919L252.257 239.294L196.657 283.103L211.912 372.735L265.193 327.919Z" fill="url(#paint43_linear_4031_2)"/>
<path d="M376.59 237.31L252.257 239.294L265.193 327.919L350.019 322.275L376.59 237.31Z" fill="url(#paint44_linear_4031_2)"/>
<path d="M265.196 327.919L252.26 239.294L211.914 372.735L265.196 327.919Z" fill="url(#paint45_linear_4031_2)"/>
<path d="M252.257 239.294L226.05 165.169L203.446 184.028L196.657 283.103L252.257 239.294Z" fill="url(#paint46_linear_4031_2)"/>
<path d="M226.053 165.169L203.45 184.028L165.815 173.69L226.053 165.169Z" fill="url(#paint47_linear_4031_2)"/>
<path d="M78.4995 291.988L109.345 245.524L123.12 242.535L113.089 291.988L136.726 231.331L147.679 261.646L174.222 176.009L165.812 173.69L137.648 225.407L109.932 231.303L78.4995 291.988Z" fill="url(#paint48_linear_4031_2)"/>
<path d="M373.265 120.465L428.837 186.515L373.265 225.854L252.257 239.294L376.59 237.31L472.228 198.557L373.265 120.465Z" fill="url(#paint49_linear_4031_2)"/>
<path d="M373.267 120.465L345.718 157.96L373.267 225.854L428.84 186.515L373.267 120.465Z" fill="url(#paint50_linear_4031_2)"/>
<path d="M345.716 157.96L302.549 170.589L252.257 239.294L373.265 225.854L345.716 157.96Z" fill="url(#paint51_linear_4031_2)"/>
<path d="M196.658 283.103L147.679 261.646L174.222 176.009L203.447 184.028L196.658 283.103Z" fill="url(#paint52_linear_4031_2)"/>
<path d="M350.02 322.275L418.082 361.782L478.041 370.667L472.23 263.853L350.02 322.275Z" fill="url(#paint53_linear_4031_2)"/>
<path d="M538.364 251.615L514.336 372.735H629.532L581.587 299.42L538.364 251.615Z" fill="url(#paint54_linear_4031_2)"/>
<path d="M608.436 286.317L629.531 372.735H689.825L657.108 306.601L608.436 286.317Z" fill="url(#paint55_linear_4031_2)"/>
<path d="M608.439 286.317L581.588 299.421L629.533 372.735L608.439 286.317Z" fill="url(#paint56_linear_4031_2)"/>
<path d="M710.583 337.391L689.824 372.735H748.442L747.911 347.868L710.583 337.391Z" fill="url(#paint57_linear_4031_2)"/>
<path d="M747.912 347.868L748.443 372.735H768.197L747.912 347.868Z" fill="url(#paint58_linear_4031_2)"/>
<path d="M252.257 239.294L307.606 177.043L345.716 157.96L302.549 170.589L252.257 239.294Z" fill="url(#paint59_linear_4031_2)"/>
<path d="M262.709 83.9751L238.876 201.435L226.051 165.169L262.709 83.9751Z" fill="url(#paint60_linear_4031_2)"/>
<path d="M381.062 72.9668L350.021 18.2043L345.718 61.5113L373.267 120.465L381.062 72.9668Z" fill="url(#paint61_linear_4031_2)"/>
<path d="M303.919 170.17L326.466 120.465L345.717 157.96L303.919 170.17Z" fill="url(#paint62_linear_4031_2)"/>
<path d="M326.466 120.465H373.266L345.717 157.96L326.466 120.465Z" fill="url(#paint63_linear_4031_2)"/>
<path style="mix-blend-mode:screen" opacity="0.45" d="M747.913 347.868L710.585 337.391L677.839 348.511L677.728 348.315L657.108 306.601L608.436 286.317L581.586 299.42L538.363 251.615L527.885 250.945L497.766 206.436L472.229 198.557L445.407 108.87L384.497 52.0676L351.361 0.266846L318.14 12.8957L262.707 83.9751L226.05 165.169L165.811 173.69L137.647 225.407L109.931 231.303L78.4985 291.988L57.9905 288.943L34.4092 302.885L0.797363 372.735H155.166H211.94H298.554H414.589H514.335H629.531H689.826H748.444H768.197L747.913 347.868Z" fill="url(#paint64_linear_4031_2)"/>
<path style="mix-blend-mode:multiply" opacity="0.55" d="M747.913 347.868L710.585 337.391L677.839 348.511L677.728 348.315L657.108 306.601L608.436 286.317L581.586 299.42L538.363 251.615L527.885 250.945L497.766 206.436L472.229 198.557L445.407 108.87L384.497 52.0676L351.361 0.266846L318.14 12.8957L262.707 83.9751L226.05 165.169L165.811 173.69L137.647 225.407L109.931 231.303L78.4985 291.988L57.9905 288.943L34.4092 302.885L0.797363 372.735H155.166H211.94H298.554H414.589H514.335H629.531H689.826H748.444H768.197L747.913 347.868Z" fill="url(#paint65_linear_4031_2)"/>
<defs>
<linearGradient id="paint0_linear_4031_2" x1="383.604" y1="76.068" x2="387.572" y2="1384.64" gradientUnits="userSpaceOnUse">
<stop stop-color="#74D4FF"/>
<stop offset="1" stop-color="#FAFDFF"/>
</linearGradient>
<linearGradient id="paint1_linear_4031_2" x1="679.713" y1="279.164" x2="680.97" y2="693.179" gradientUnits="userSpaceOnUse">
<stop stop-color="#0D8CC4"/>
<stop offset="1" stop-color="#7ECBEE"/>
</linearGradient>
<linearGradient id="paint2_linear_4031_2" x1="472.313" y1="294.726" x2="444.429" y2="684.126" gradientUnits="userSpaceOnUse">
<stop stop-color="#1F9ED6"/>
<stop offset="1" stop-color="#74D2FC"/>
</linearGradient>
<linearGradient id="paint3_linear_4031_2" x1="484.578" y1="333.172" x2="408.889" y2="714.273" gradientUnits="userSpaceOnUse">
<stop stop-color="#0D8CC4"/>
<stop offset="1" stop-color="#7ECBEE"/>
</linearGradient>
<linearGradient id="paint4_linear_4031_2" x1="528.948" y1="339.234" x2="547.053" y2="681.612" gradientUnits="userSpaceOnUse">
<stop stop-color="#1F9ED6"/>
<stop offset="1" stop-color="#74D2FC"/>
</linearGradient>
<linearGradient id="paint5_linear_4031_2" x1="241.529" y1="600.781" x2="-56.2274" y2="394.64" gradientUnits="userSpaceOnUse">
<stop stop-color="#74D4FF"/>
<stop offset="1" stop-color="#FAFDFF"/>
</linearGradient>
<linearGradient id="paint6_linear_4031_2" x1="487.904" y1="898.677" x2="12.1979" y2="613.242" gradientUnits="userSpaceOnUse">
<stop stop-color="#74D4FF"/>
<stop offset="1" stop-color="#FAFDFF"/>
</linearGradient>
<linearGradient id="paint7_linear_4031_2" x1="270.393" y1="258.712" x2="267.096" y2="439.958" gradientUnits="userSpaceOnUse">
<stop stop-color="#0D8CC4"/>
<stop offset="1" stop-color="#7ECBEE"/>
</linearGradient>
<linearGradient id="paint8_linear_4031_2" x1="316.632" y1="252.844" x2="311.714" y2="520.37" gradientUnits="userSpaceOnUse">
<stop stop-color="#1F9ED6"/>
<stop offset="1" stop-color="#74D2FC"/>
</linearGradient>
<linearGradient id="paint9_linear_4031_2" x1="505.591" y1="364.968" x2="359.52" y2="708.881" gradientUnits="userSpaceOnUse">
<stop stop-color="#1F9ED6"/>
<stop offset="1" stop-color="#74D2FC"/>
</linearGradient>
<linearGradient id="paint10_linear_4031_2" x1="660.715" y1="954.166" x2="160.114" y2="255.722" gradientUnits="userSpaceOnUse">
<stop stop-color="#74D4FF"/>
<stop offset="1" stop-color="#FAFDFF"/>
</linearGradient>
<linearGradient id="paint11_linear_4031_2" x1="531.156" y1="476.56" x2="431.577" y2="706.283" gradientUnits="userSpaceOnUse">
<stop stop-color="#0D8CC4"/>
<stop offset="1" stop-color="#7ECBEE"/>
</linearGradient>
<linearGradient id="paint12_linear_4031_2" x1="685.916" y1="426.687" x2="598.352" y2="867.58" gradientUnits="userSpaceOnUse">
<stop stop-color="#0D8CC4"/>
<stop offset="1" stop-color="#7ECBEE"/>
</linearGradient>
<linearGradient id="paint13_linear_4031_2" x1="543.812" y1="429.481" x2="582.341" y2="728.243" gradientUnits="userSpaceOnUse">
<stop stop-color="#1F9ED6"/>
<stop offset="1" stop-color="#74D2FC"/>
</linearGradient>
<linearGradient id="paint14_linear_4031_2" x1="183.862" y1="319.314" x2="162.404" y2="619.277" gradientUnits="userSpaceOnUse">
<stop stop-color="#1F9ED6"/>
<stop offset="1" stop-color="#74D2FC"/>
</linearGradient>
<linearGradient id="paint15_linear_4031_2" x1="704.748" y1="463.847" x2="524.339" y2="880.041" gradientUnits="userSpaceOnUse">
<stop stop-color="#0D8CC4"/>
<stop offset="1" stop-color="#7ECBEE"/>
</linearGradient>
<linearGradient id="paint16_linear_4031_2" x1="753.025" y1="738.358" x2="290.925" y2="812.706" gradientUnits="userSpaceOnUse">
<stop stop-color="#1F9ED6"/>
<stop offset="1" stop-color="#74D2FC"/>
</linearGradient>
<linearGradient id="paint17_linear_4031_2" x1="684.348" y1="815.137" x2="231.106" y2="888.06" gradientUnits="userSpaceOnUse">
<stop stop-color="#0D8CC4"/>
<stop offset="1" stop-color="#7ECBEE"/>
</linearGradient>
<linearGradient id="paint18_linear_4031_2" x1="744.169" y1="656.521" x2="415.51" y2="1010.05" gradientUnits="userSpaceOnUse">
<stop stop-color="#1F9ED6"/>
<stop offset="1" stop-color="#74D2FC"/>
</linearGradient>
<linearGradient id="paint19_linear_4031_2" x1="692.2" y1="849.587" x2="296.486" y2="1079.31" gradientUnits="userSpaceOnUse">
<stop stop-color="#74D4FF"/>
<stop offset="1" stop-color="#FAFDFF"/>
</linearGradient>
<linearGradient id="paint20_linear_4031_2" x1="662.641" y1="923.404" x2="367.343" y2="1094.82" gradientUnits="userSpaceOnUse">
<stop stop-color="#0D8CC4"/>
<stop offset="1" stop-color="#7ECBEE"/>
</linearGradient>
<linearGradient id="paint21_linear_4031_2" x1="700.278" y1="773.953" x2="486.173" y2="1059.75" gradientUnits="userSpaceOnUse">
<stop stop-color="#0D8CC4"/>
<stop offset="1" stop-color="#7ECBEE"/>
</linearGradient>
<linearGradient id="paint22_linear_4031_2" x1="815.024" y1="905.634" x2="248.373" y2="1010.21" gradientUnits="userSpaceOnUse">
<stop stop-color="#1F9ED6"/>
<stop offset="1" stop-color="#74D2FC"/>
</linearGradient>
<linearGradient id="paint23_linear_4031_2" x1="218.73" y1="326.662" x2="213.98" y2="585.386" gradientUnits="userSpaceOnUse">
<stop stop-color="#0D8CC4"/>
<stop offset="1" stop-color="#7ECBEE"/>
</linearGradient>
<linearGradient id="paint24_linear_4031_2" x1="258.544" y1="444.68" x2="253.403" y2="724.667" gradientUnits="userSpaceOnUse">
<stop stop-color="#1F9ED6"/>
<stop offset="1" stop-color="#74D2FC"/>
</linearGradient>
<linearGradient id="paint25_linear_4031_2" x1="584.745" y1="423.53" x2="227.561" y2="970.595" gradientUnits="userSpaceOnUse">
<stop stop-color="#0D8CC4"/>
<stop offset="1" stop-color="#7ECBEE"/>
</linearGradient>
<linearGradient id="paint26_linear_4031_2" x1="433.757" y1="785.325" x2="142.957" y2="946.65" gradientUnits="userSpaceOnUse">
<stop stop-color="#1F9ED6"/>
<stop offset="1" stop-color="#74D2FC" stop-opacity="0.1"/>
</linearGradient>
<linearGradient id="paint27_linear_4031_2" x1="559.628" y1="770.321" x2="323.255" y2="1001.38" gradientUnits="userSpaceOnUse">
<stop stop-color="#0D8CC4"/>
<stop offset="1" stop-color="#7ECBEE"/>
</linearGradient>
<linearGradient id="paint28_linear_4031_2" x1="76.2348" y1="194.059" x2="129.041" y2="632.27" gradientUnits="userSpaceOnUse">
<stop stop-color="#74D4FF"/>
<stop offset="1" stop-color="#FAFDFF"/>
</linearGradient>
<linearGradient id="paint29_linear_4031_2" x1="974.422" y1="786.107" x2="30.3299" y2="714.413" gradientUnits="userSpaceOnUse">
<stop stop-color="#0584BC"/>
<stop offset="1" stop-color="#0584BC" stop-opacity="0"/>
</linearGradient>
<linearGradient id="paint30_linear_4031_2" x1="537.329" y1="753.613" x2="-229.512" y2="705.808" gradientUnits="userSpaceOnUse">
<stop stop-color="#74D4FF" stop-opacity="0"/>
<stop offset="1" stop-color="#FAFDFF"/>
</linearGradient>
<linearGradient id="paint31_linear_4031_2" x1="379.748" y1="551.048" x2="395.674" y2="-45.1636" gradientUnits="userSpaceOnUse">
<stop stop-color="#74D4FF"/>
<stop offset="1" stop-color="#FAFDFF"/>
</linearGradient>
<linearGradient id="paint32_linear_4031_2" x1="433.757" y1="259.941" x2="415.847" y2="96.6039" gradientUnits="userSpaceOnUse">
<stop stop-color="#0D8CC4"/>
<stop offset="1" stop-color="#7ECBEE"/>
</linearGradient>
<linearGradient id="paint33_linear_4031_2" x1="409.169" y1="332.976" x2="415.819" y2="197.523" gradientUnits="userSpaceOnUse">
<stop stop-color="#0D8CC4"/>
<stop offset="1" stop-color="#7ECBEE"/>
</linearGradient>
<linearGradient id="paint34_linear_4031_2" x1="496.341" y1="408.358" x2="500.029" y2="226.609" gradientUnits="userSpaceOnUse">
<stop stop-color="#1F9ED6"/>
<stop offset="1" stop-color="#74D2FC"/>
</linearGradient>
<linearGradient id="paint35_linear_4031_2" x1="492.234" y1="643.921" x2="499.163" y2="302.047" gradientUnits="userSpaceOnUse">
<stop stop-color="#0D8CC4"/>
<stop offset="1" stop-color="#7ECBEE"/>
</linearGradient>
<linearGradient id="paint36_linear_4031_2" x1="383.075" y1="321.828" x2="313.364" y2="68.8875" gradientUnits="userSpaceOnUse">
<stop stop-color="#74D4FF"/>
<stop offset="1" stop-color="#FAFDFF"/>
</linearGradient>
<linearGradient id="paint37_linear_4031_2" x1="65.5072" y1="481.897" x2="82.9138" y2="329.54" gradientUnits="userSpaceOnUse">
<stop stop-color="#0D8CC4"/>
<stop offset="1" stop-color="#7ECBEE"/>
</linearGradient>
<linearGradient id="paint38_linear_4031_2" x1="156.899" y1="406.291" x2="184.783" y2="306.042" gradientUnits="userSpaceOnUse">
<stop stop-color="#0D8CC4"/>
<stop offset="1" stop-color="#7ECBEE"/>
</linearGradient>
<linearGradient id="paint39_linear_4031_2" x1="140.021" y1="372.847" x2="122.419" y2="294.28" gradientUnits="userSpaceOnUse">
<stop stop-color="#1F9ED6"/>
<stop offset="1" stop-color="#74D2FC"/>
</linearGradient>
<linearGradient id="paint40_linear_4031_2" x1="322.361" y1="388.549" x2="277.21" y2="310.233" gradientUnits="userSpaceOnUse">
<stop stop-color="#0D8CC4"/>
<stop offset="1" stop-color="#7ECBEE"/>
</linearGradient>
<linearGradient id="paint41_linear_4031_2" x1="308.892" y1="383.743" x2="307.523" y2="320.878" gradientUnits="userSpaceOnUse">
<stop stop-color="#1F9ED6"/>
<stop offset="1" stop-color="#74D2FC"/>
</linearGradient>
<linearGradient id="paint42_linear_4031_2" x1="382.794" y1="417.495" x2="321.717" y2="313.251" gradientUnits="userSpaceOnUse">
<stop stop-color="#0D8CC4"/>
<stop offset="1" stop-color="#7ECBEE"/>
</linearGradient>
<linearGradient id="paint43_linear_4031_2" x1="242.562" y1="433.504" x2="225.295" y2="243.624" gradientUnits="userSpaceOnUse">
<stop stop-color="#1F9ED6"/>
<stop offset="1" stop-color="#74D2FC"/>
</linearGradient>
<linearGradient id="paint44_linear_4031_2" x1="325.236" y1="357.312" x2="313.026" y2="222.921" gradientUnits="userSpaceOnUse">
<stop stop-color="#0D8CC4"/>
<stop offset="1" stop-color="#7ECBEE"/>
</linearGradient>
<linearGradient id="paint45_linear_4031_2" x1="237.619" y1="373.601" x2="244.604" y2="201.295" gradientUnits="userSpaceOnUse">
<stop stop-color="#74D4FF"/>
<stop offset="1" stop-color="#FAFDFF"/>
</linearGradient>
<linearGradient id="paint46_linear_4031_2" x1="248.681" y1="376.926" x2="208.866" y2="186.71" gradientUnits="userSpaceOnUse">
<stop stop-color="#1F9ED6"/>
<stop offset="1" stop-color="#74D2FC"/>
</linearGradient>
<linearGradient id="paint47_linear_4031_2" x1="206.439" y1="248.57" x2="196.157" y2="171.204" gradientUnits="userSpaceOnUse">
<stop stop-color="#74D4FF"/>
<stop offset="1" stop-color="#FAFDFF"/>
</linearGradient>
<linearGradient id="paint48_linear_4031_2" x1="158.576" y1="387.655" x2="119.739" y2="202.441" gradientUnits="userSpaceOnUse">
<stop stop-color="#74D4FF"/>
<stop offset="1" stop-color="#FAFDFF"/>
</linearGradient>
<linearGradient id="paint49_linear_4031_2" x1="392.767" y1="367.929" x2="348.286" y2="150.808" gradientUnits="userSpaceOnUse">
<stop stop-color="#74D4FF"/>
<stop offset="1" stop-color="#FAFDFF"/>
</linearGradient>
<linearGradient id="paint50_linear_4031_2" x1="432.891" y1="497.934" x2="385.086" y2="156.703" gradientUnits="userSpaceOnUse">
<stop stop-color="#1F9ED6"/>
<stop offset="1" stop-color="#74D2FC"/>
</linearGradient>
<linearGradient id="paint51_linear_4031_2" x1="324.565" y1="347.729" x2="308.64" y2="192.354" gradientUnits="userSpaceOnUse">
<stop stop-color="#0D8CC4"/>
<stop offset="1" stop-color="#7ECBEE"/>
</linearGradient>
<linearGradient id="paint52_linear_4031_2" x1="199.843" y1="459.433" x2="175.535" y2="222.53" gradientUnits="userSpaceOnUse">
<stop stop-color="#0D8CC4"/>
<stop offset="1" stop-color="#7ECBEE"/>
</linearGradient>
<linearGradient id="paint53_linear_4031_2" x1="350.02" y1="317.274" x2="478.041" y2="317.274" gradientUnits="userSpaceOnUse">
<stop stop-color="#1F9ED6"/>
<stop offset="1" stop-color="#74D2FC"/>
</linearGradient>
<linearGradient id="paint54_linear_4031_2" x1="575.441" y1="479.075" x2="568.819" y2="277.907" gradientUnits="userSpaceOnUse">
<stop stop-color="#0D8CC4"/>
<stop offset="1" stop-color="#7ECBEE"/>
</linearGradient>
<linearGradient id="paint55_linear_4031_2" x1="613.465" y1="399.585" x2="670.798" y2="286.959" gradientUnits="userSpaceOnUse">
<stop stop-color="#0D8CC4"/>
<stop offset="1" stop-color="#7ECBEE"/>
</linearGradient>
<linearGradient id="paint56_linear_4031_2" x1="621.095" y1="423.474" x2="598.687" y2="297.493" gradientUnits="userSpaceOnUse">
<stop stop-color="#1F9ED6"/>
<stop offset="1" stop-color="#74D2FC"/>
</linearGradient>
<linearGradient id="paint57_linear_4031_2" x1="713.405" y1="407.325" x2="725.363" y2="335.128" gradientUnits="userSpaceOnUse">
<stop stop-color="#0D8CC4"/>
<stop offset="1" stop-color="#7ECBEE"/>
</linearGradient>
<linearGradient id="paint58_linear_4031_2" x1="759.759" y1="411.32" x2="757.775" y2="358.039" gradientUnits="userSpaceOnUse">
<stop stop-color="#1F9ED6"/>
<stop offset="1" stop-color="#74D2FC"/>
</linearGradient>
<linearGradient id="paint59_linear_4031_2" x1="319.983" y1="293.19" x2="289.445" y2="155.753" gradientUnits="userSpaceOnUse">
<stop stop-color="#74D4FF"/>
<stop offset="1" stop-color="#FAFDFF"/>
</linearGradient>
<linearGradient id="paint60_linear_4031_2" x1="231.025" y1="385.28" x2="246.28" y2="87.1602" gradientUnits="userSpaceOnUse">
<stop stop-color="#74D4FF"/>
<stop offset="1" stop-color="#FAFDFF"/>
</linearGradient>
<linearGradient id="paint61_linear_4031_2" x1="409.785" y1="278.661" x2="347.059" y2="-7.16517" gradientUnits="userSpaceOnUse">
<stop stop-color="#1F9ED6"/>
<stop offset="1" stop-color="#74D2FC" stop-opacity="0.1"/>
</linearGradient>
<linearGradient id="paint62_linear_4031_2" x1="417.467" y1="233.873" x2="318.532" y2="148.237" gradientUnits="userSpaceOnUse">
<stop stop-color="#1F9ED6"/>
<stop offset="1" stop-color="#74D2FC"/>
</linearGradient>
<linearGradient id="paint63_linear_4031_2" x1="371.058" y1="217.025" x2="346.667" y2="105.88" gradientUnits="userSpaceOnUse">
<stop stop-color="#1F9ED6"/>
<stop offset="1" stop-color="#74D2FC" stop-opacity="0.1"/>
</linearGradient>
<linearGradient id="paint64_linear_4031_2" x1="379.049" y1="344.152" x2="309.339" y2="-22.3087" gradientUnits="userSpaceOnUse">
<stop stop-color="#74D4FF" stop-opacity="0"/>
<stop offset="1" stop-color="#FAFDFF"/>
</linearGradient>
<linearGradient id="paint65_linear_4031_2" x1="508.411" y1="551.663" x2="295.955" y2="244.937" gradientUnits="userSpaceOnUse">
<stop stop-color="#0584BC"/>
<stop offset="1" stop-color="#0584BC" stop-opacity="0"/>
</linearGradient>
</defs>
</svg>
